SplineFontDB: 3.0
FontName: Orbitron-Regular
FullName: Orbitron Regular
FamilyName: Orbitron
Weight: Regular
Copyright: Copyright (c) 2009, Matt McInerney <matt@pixelspread.com>
Version: 001.001
ItalicAngle: 0
UnderlinePosition: -50
UnderlineWidth: 50
Ascent: 750
Descent: 250
sfntRevision: 0x00010000
LayerCount: 2
Layer: 0 1 "Back"  1
Layer: 1 1 "Fore"  0
XUID: [1021 496 529952750 13530602]
FSType: 4
OS2Version: 2
OS2_WeightWidthSlopeOnly: 0
OS2_UseTypoMetrics: 1
CreationTime: 1259834267
ModificationTime: 1291728359
PfmFamily: 17
TTFWeight: 400
TTFWidth: 5
LineGap: 0
VLineGap: 0
Panose: 2 0 0 0 0 0 0 0 0 0
OS2TypoAscent: 0
OS2TypoAOffset: 1
OS2TypoDescent: 0
OS2TypoDOffset: 1
OS2TypoLinegap: 0
OS2WinAscent: 0
OS2WinAOffset: 1
OS2WinDescent: 0
OS2WinDOffset: 1
HheadAscent: -261
HheadAOffset: 1
HheadDescent: -7
HheadDOffset: 1
OS2SubXSize: 700
OS2SubYSize: 650
OS2SubXOff: 0
OS2SubYOff: 140
OS2SupXSize: 700
OS2SupYSize: 650
OS2SupXOff: 0
OS2SupYOff: 477
OS2StrikeYSize: 50
OS2StrikeYPos: 250
OS2Vendor: 'pyrs'
OS2CodePages: 00000001.00000000
OS2UnicodeRanges: 80000027.10000042.00000000.00000000
Lookup: 1 0 0 "'aalt' Access All Alternates in Latin lookup 0"  {"'aalt' Access All Alternates in Latin lookup 0 subtable"  } ['aalt' ('latn' <'dflt' > ) ]
Lookup: 3 0 0 "'aalt' Access All Alternates in Latin lookup 1"  {"'aalt' Access All Alternates in Latin lookup 1 subtable"  } ['aalt' ('latn' <'dflt' > ) ]
Lookup: 1 0 0 "'salt' Stylistic Alternatives in Latin lookup 2"  {"'salt' Stylistic Alternatives in Latin lookup 2 subtable"  } ['salt' ('latn' <'dflt' > ) ]
Lookup: 1 0 0 "'smcp' Lowercase to Small Capitals in Latin lookup 3"  {"'smcp' Lowercase to Small Capitals in Latin lookup 3 subtable"  } ['smcp' ('latn' <'dflt' > ) ]
Lookup: 1 0 0 "'ss01' Style Set 1 in Latin lookup 4"  {"'ss01' Style Set 1 in Latin lookup 4 subtable"  } ['ss01' ('latn' <'dflt' > ) ]

StartChar: A.alt3
Encoding: 65539 -1 4
Width: 827
Flags: MW
HStem: 0 21G<-28 67 -28 -28 742 837 742 742> 183 81<220 588 220 637 173 588> 700 20G<358 452 452 452>
LayerCount: 2
Fore
SplineSet
837 0 m 1,0,-1
 742 0 l 1,1,-1
 637 183 l 1,2,-1
 173 183 l 1,3,-1
 67 0 l 1,4,-1
 -28 0 l 1,5,-1
 358 720 l 1,6,-1
 452 720 l 1,7,-1
 837 0 l 1,0,-1
405 644 m 1,8,-1
 220 264 l 1,9,-1
 588 264 l 1,10,-1
 405 644 l 1,8,-1
EndSplineSet
EndChar

StartChar: AE
Encoding: 198 198 5
Width: 1375
Flags: MW
HStem: 0 81<774 1350 774 1350> 263 81<135 693 135 693> 319 82<774 1237 774 1237> 639 81<163.5 1350 174 654 774 774 774 1350>
VStem: 54 81<0 263 344 600> 693 81<81 263 263 263 401 600 600 610.5>
LayerCount: 2
Fore
SplineSet
774 639 m 1,0,-1
 774 401 l 1,1,-1
 1237 401 l 1,2,-1
 1237 319 l 1,3,-1
 774 319 l 1,4,-1
 774 81 l 1,5,-1
 1350 81 l 1,6,-1
 1350 0 l 1,7,-1
 693 0 l 1,8,-1
 693 263 l 1,9,-1
 135 263 l 1,10,-1
 135 0 l 1,11,-1
 54 0 l 1,12,-1
 54 600 l 2,13,14
 54 650 54 650 89 685 c 128,-1,15
 124 720 124 720 174 720 c 2,16,-1
 1350 720 l 1,17,-1
 1350 639 l 1,18,-1
 774 639 l 1,0,-1
693 344 m 1,19,-1
 693 600 l 2,20,21
 693 616 693 616 681.5 627.5 c 128,-1,22
 670 639 670 639 654 639 c 2,23,-1
 174 639 l 2,24,25
 158 639 158 639 146.5 627.5 c 128,-1,26
 135 616 135 616 135 600 c 2,27,-1
 135 344 l 1,28,-1
 693 344 l 1,19,-1
EndSplineSet
EndChar

StartChar: Aacute
Encoding: 193 193 6
Width: 836
Flags: MW
HStem: 0 21G<58 139 58 58 697 778 697 697> 263 81<139 697 139 697> 639 81<167.5 658 178 658> 864 139<344 458 379 424>
VStem: 58 81<0 263 344 600> 697 81<0 263 263 263 344 600 0 610.5>
LayerCount: 2
Fore
SplineSet
178 720 m 2,0,-1
 658 720 l 2,1,2
 708 720 708 720 743 685 c 128,-1,3
 778 650 778 650 778 600 c 2,4,-1
 778 0 l 1,5,-1
 697 0 l 1,6,-1
 697 263 l 1,7,-1
 139 263 l 1,8,-1
 139 0 l 1,9,-1
 58 0 l 1,10,-1
 58 600 l 2,11,12
 58 650 58 650 93 685 c 128,-1,13
 128 720 128 720 178 720 c 2,0,-1
139 344 m 1,14,-1
 697 344 l 1,15,-1
 697 600 l 2,16,17
 697 616 697 616 685.5 627.5 c 128,-1,18
 674 639 674 639 658 639 c 2,19,-1
 178 639 l 2,20,21
 162 639 162 639 150.5 627.5 c 128,-1,22
 139 616 139 616 139 600 c 2,23,-1
 139 344 l 1,14,-1
344 864 m 1,24,-1
 379 1003 l 1,25,-1
 458 1003 l 1,26,-1
 424 864 l 1,27,-1
 344 864 l 1,24,-1
EndSplineSet
EndChar

StartChar: Acircumflex
Encoding: 194 194 7
Width: 836
Flags: MW
HStem: 0 21G<58 139 58 58 697 778 697 697> 263 81<139 697 139 697> 639 81<167.5 658 178 658> 864 21G<296 337 296 296 455 455 455 497> 961 20G<367 426 426 426>
VStem: 58 81<0 263 344 600> 697 81<0 263 263 263 344 600 0 610.5>
LayerCount: 2
Fore
SplineSet
178 720 m 2,0,-1
 658 720 l 2,1,2
 708 720 708 720 743 685 c 128,-1,3
 778 650 778 650 778 600 c 2,4,-1
 778 0 l 1,5,-1
 697 0 l 1,6,-1
 697 263 l 1,7,-1
 139 263 l 1,8,-1
 139 0 l 1,9,-1
 58 0 l 1,10,-1
 58 600 l 2,11,12
 58 650 58 650 93 685 c 128,-1,13
 128 720 128 720 178 720 c 2,0,-1
139 344 m 1,14,-1
 697 344 l 1,15,-1
 697 600 l 2,16,17
 697 616 697 616 685.5 627.5 c 128,-1,18
 674 639 674 639 658 639 c 2,19,-1
 178 639 l 2,20,21
 162 639 162 639 150.5 627.5 c 128,-1,22
 139 616 139 616 139 600 c 2,23,-1
 139 344 l 1,14,-1
337 864 m 1,24,-1
 296 864 l 1,25,-1
 367 981 l 1,26,-1
 426 981 l 1,27,-1
 497 864 l 1,28,-1
 455 864 l 1,29,-1
 397 949 l 1,30,-1
 337 864 l 1,24,-1
EndSplineSet
EndChar

StartChar: Adieresis
Encoding: 196 196 8
Width: 836
Flags: MW
HStem: 0 21G<58 139 58 58 697 778 697 697> 263 81<139 697 139 697> 639 81<167.5 658 178 658> 855 82<279 362 279 362 459 541>
VStem: 58 81<0 263 344 600> 279 83<855 937 855 937> 459 82<855 937 855 937> 697 81<0 263 263 263 344 600 0 610.5>
LayerCount: 2
Fore
SplineSet
178 720 m 2,0,-1
 658 720 l 2,1,2
 708 720 708 720 743 685 c 128,-1,3
 778 650 778 650 778 600 c 2,4,-1
 778 0 l 1,5,-1
 697 0 l 1,6,-1
 697 263 l 1,7,-1
 139 263 l 1,8,-1
 139 0 l 1,9,-1
 58 0 l 1,10,-1
 58 600 l 2,11,12
 58 650 58 650 93 685 c 128,-1,13
 128 720 128 720 178 720 c 2,0,-1
139 344 m 1,14,-1
 697 344 l 1,15,-1
 697 600 l 2,16,17
 697 616 697 616 685.5 627.5 c 128,-1,18
 674 639 674 639 658 639 c 2,19,-1
 178 639 l 2,20,21
 162 639 162 639 150.5 627.5 c 128,-1,22
 139 616 139 616 139 600 c 2,23,-1
 139 344 l 1,14,-1
541 937 m 1,24,-1
 541 855 l 1,25,-1
 459 855 l 1,26,-1
 459 937 l 1,27,-1
 541 937 l 1,24,-1
362 937 m 1,28,-1
 362 855 l 1,29,-1
 279 855 l 1,30,-1
 279 937 l 1,31,-1
 362 937 l 1,28,-1
EndSplineSet
EndChar

StartChar: Agrave
Encoding: 192 192 9
Width: 836
Flags: MW
HStem: 0 21G<58 139 58 58 697 778 697 697> 263 81<139 697 139 697> 639 81<167.5 658 178 658> 865 139<379 425 344 459 379 379>
VStem: 58 81<0 263 344 600> 697 81<0 263 263 263 344 600 0 610.5>
LayerCount: 2
Fore
SplineSet
178 720 m 2,0,-1
 658 720 l 2,1,2
 708 720 708 720 743 685 c 128,-1,3
 778 650 778 650 778 600 c 2,4,-1
 778 0 l 1,5,-1
 697 0 l 1,6,-1
 697 263 l 1,7,-1
 139 263 l 1,8,-1
 139 0 l 1,9,-1
 58 0 l 1,10,-1
 58 600 l 2,11,12
 58 650 58 650 93 685 c 128,-1,13
 128 720 128 720 178 720 c 2,0,-1
139 344 m 1,14,-1
 697 344 l 1,15,-1
 697 600 l 2,16,17
 697 616 697 616 685.5 627.5 c 128,-1,18
 674 639 674 639 658 639 c 2,19,-1
 178 639 l 2,20,21
 162 639 162 639 150.5 627.5 c 128,-1,22
 139 616 139 616 139 600 c 2,23,-1
 139 344 l 1,14,-1
425 1004 m 1,24,-1
 459 865 l 1,25,-1
 379 865 l 1,26,-1
 344 1004 l 1,27,-1
 425 1004 l 1,24,-1
EndSplineSet
EndChar

StartChar: Aring
Encoding: 197 197 10
Width: 836
Flags: MW
HStem: 0 21G<58 139 58 58 697 778 697 697> 263 81<139 697 139 697> 639 81<167.5 658 178 658> 821 40<385 390 390 446> 941 40<382.5 446 390 446 446 451>
VStem: 58 81<0 263 344 600> 336 40<874 928 928 931> 460 40<871 874 874 928> 697 81<0 263 263 263 344 600 0 610.5>
LayerCount: 2
Fore
SplineSet
178 720 m 2,0,-1
 658 720 l 2,1,2
 708 720 708 720 743 685 c 128,-1,3
 778 650 778 650 778 600 c 2,4,-1
 778 0 l 1,5,-1
 697 0 l 1,6,-1
 697 263 l 1,7,-1
 139 263 l 1,8,-1
 139 0 l 1,9,-1
 58 0 l 1,10,-1
 58 600 l 2,11,12
 58 650 58 650 93 685 c 128,-1,13
 128 720 128 720 178 720 c 2,0,-1
139 344 m 1,14,-1
 697 344 l 1,15,-1
 697 600 l 2,16,17
 697 616 697 616 685.5 627.5 c 128,-1,18
 674 639 674 639 658 639 c 2,19,-1
 178 639 l 2,20,21
 162 639 162 639 150.5 627.5 c 128,-1,22
 139 616 139 616 139 600 c 2,23,-1
 139 344 l 1,14,-1
390 981 m 2,24,-1
 446 981 l 2,25,26
 468 981 468 981 484 965.5 c 128,-1,27
 500 950 500 950 500 928 c 2,28,-1
 500 874 l 2,29,30
 500 852 500 852 484 836.5 c 128,-1,31
 468 821 468 821 446 821 c 2,32,-1
 390 821 l 2,33,34
 368 821 368 821 352 836.5 c 128,-1,35
 336 852 336 852 336 874 c 2,36,-1
 336 928 l 2,37,38
 336 950 336 950 352 965.5 c 128,-1,39
 368 981 368 981 390 981 c 2,24,-1
385 861 m 2,40,-1
 451 861 l 2,41,42
 460 861 460 861 460 871 c 2,43,-1
 460 931 l 2,44,45
 460 941 460 941 451 941 c 2,46,-1
 385 941 l 2,47,48
 376 941 376 941 376 931 c 2,49,-1
 376 871 l 2,50,51
 376 861 376 861 385 861 c 2,40,-1
EndSplineSet
EndChar

StartChar: Atilde
Encoding: 195 195 11
Width: 836
Flags: MW
HStem: 0 21G<58 139 58 58 697 778 697 697> 263 81<139 697 139 697> 639 81<167.5 658 178 658> 869 120 941 48<296 341.5 292 345>
VStem: 58 81<0 263 344 600> 697 81<0 263 263 263 344 600 0 610.5>
LayerCount: 2
Fore
SplineSet
178 720 m 2,0,-1
 658 720 l 2,1,2
 708 720 708 720 743 685 c 128,-1,3
 778 650 778 650 778 600 c 2,4,-1
 778 0 l 1,5,-1
 697 0 l 1,6,-1
 697 263 l 1,7,-1
 139 263 l 1,8,-1
 139 0 l 1,9,-1
 58 0 l 1,10,-1
 58 600 l 2,11,12
 58 650 58 650 93 685 c 128,-1,13
 128 720 128 720 178 720 c 2,0,-1
139 344 m 1,14,-1
 697 344 l 1,15,-1
 697 600 l 2,16,17
 697 616 697 616 685.5 627.5 c 128,-1,18
 674 639 674 639 658 639 c 2,19,-1
 178 639 l 2,20,21
 162 639 162 639 150.5 627.5 c 128,-1,22
 139 616 139 616 139 600 c 2,23,-1
 139 344 l 1,14,-1
513 917 m 1,24,-1
 515 917 l 2,25,26
 545 917 545 917 581 934 c 1,27,-1
 581 883 l 1,28,29
 543 869 543 869 515 869 c 0,30,31
 480 869 480 869 413 905 c 128,-1,32
 346 941 346 941 304 941 c 0,33,34
 265 941 265 941 242 933 c 1,35,-1
 242 980 l 1,36,37
 269 989 269 989 304 989 c 0,38,39
 344 989 344 989 411 955.5 c 128,-1,40
 478 922 478 922 513 917 c 1,24,-1
EndSplineSet
EndChar

StartChar: B
Encoding: 66 66 12
Width: 832
Flags: MW
HStem: 0 81<179 659 179 659> 327 81<168.5 628 179 628 628 638.5 179 659> 639 81<168.5 179 179 628>
VStem: 59 81<109.5 120 120 288 436.5 447 447 600> 666 82<447 600> 698 81<120 288>
LayerCount: 2
Fore
SplineSet
735 394 m 1,0,-1
 739 377 l 1,1,2
 779 340 779 340 779 288 c 2,3,-1
 779 120 l 2,4,5
 779 70 779 70 744 35 c 128,-1,6
 709 0 709 0 659 0 c 2,7,-1
 59 0 l 1,8,-1
 59 720 l 1,9,-1
 628 720 l 2,10,11
 678 720 678 720 713 685 c 128,-1,12
 748 650 748 650 748 600 c 2,13,-1
 748 447 l 2,14,15
 748 420 748 420 735 394 c 1,0,-1
628 639 m 2,16,-1
 179 639 l 2,17,18
 163 639 163 639 151.5 627.5 c 128,-1,19
 140 616 140 616 140 600 c 2,20,-1
 140 447 l 2,21,22
 140 431 140 431 151.5 419.5 c 128,-1,23
 163 408 163 408 179 408 c 2,24,-1
 628 408 l 2,25,26
 644 408 644 408 655 419.5 c 128,-1,27
 666 431 666 431 666 447 c 2,28,-1
 666 600 l 2,29,30
 666 616 666 616 655 627.5 c 128,-1,31
 644 639 644 639 628 639 c 2,16,-1
698 120 m 2,32,-1
 698 288 l 2,33,34
 698 304 698 304 686.5 315.5 c 128,-1,35
 675 327 675 327 659 327 c 2,36,-1
 179 327 l 2,37,38
 163 327 163 327 151.5 315.5 c 128,-1,39
 140 304 140 304 140 288 c 2,40,-1
 140 120 l 2,41,42
 140 104 140 104 151.5 92.5 c 128,-1,43
 163 81 163 81 179 81 c 2,44,-1
 659 81 l 2,45,46
 675 81 675 81 686.5 92.5 c 128,-1,47
 698 104 698 104 698 120 c 2,32,-1
EndSplineSet
EndChar

StartChar: C
Encoding: 67 67 13
Width: 822
Flags: MW
HStem: 0 81<142.5 774 176 774> 639 81<165.5 774 176 774>
VStem: 56 81<120 600>
LayerCount: 2
Fore
SplineSet
774 639 m 1,0,-1
 176 639 l 2,1,2
 160 639 160 639 148.5 627.5 c 128,-1,3
 137 616 137 616 137 600 c 2,4,-1
 137 120 l 2,5,6
 137 104 137 104 148.5 92.5 c 128,-1,7
 160 81 160 81 176 81 c 2,8,-1
 774 81 l 1,9,-1
 774 0 l 1,10,-1
 176 0 l 2,11,12
 126 0 126 0 91 35 c 128,-1,13
 56 70 56 70 56 120 c 2,14,-1
 56 600 l 2,15,16
 56 650 56 650 91 685 c 128,-1,17
 126 720 126 720 176 720 c 2,18,-1
 774 720 l 1,19,-1
 774 639 l 1,0,-1
EndSplineSet
Substitution2: "'salt' Stylistic Alternatives in Latin lookup 2 subtable" C.alt
Substitution2: "'aalt' Access All Alternates in Latin lookup 0 subtable" C.alt
EndChar

StartChar: C.alt
Encoding: 65540 -1 14
Width: 822
Flags: MW
HStem: 0 81<138.5 692 172 652> 0 194<172 770> 526 194<172 773 172 692> 639 81<161.5 652 172 652 652 679 172 692>
VStem: 52 81<120 600> 692 78<100 194 100 194 100 194>
LayerCount: 2
Fore
SplineSet
770 620 m 1,0,-1
 773 526 l 1,1,-1
 692 526 l 1,2,-1
 692 639 l 1,3,-1
 172 639 l 2,4,5
 156 639 156 639 144.5 627.5 c 128,-1,6
 133 616 133 616 133 600 c 2,7,-1
 133 120 l 2,8,9
 133 104 133 104 144.5 92.5 c 128,-1,10
 156 81 156 81 172 81 c 2,11,-1
 692 81 l 1,12,-1
 692 194 l 1,13,-1
 770 194 l 1,14,-1
 770 100 l 1,15,16
 758 60 758 60 724.5 30 c 128,-1,17
 691 0 691 0 652 0 c 2,18,-1
 172 0 l 2,19,20
 122 0 122 0 87 35 c 128,-1,21
 52 70 52 70 52 120 c 2,22,-1
 52 600 l 2,23,24
 52 650 52 650 87 685 c 128,-1,25
 122 720 122 720 172 720 c 2,26,-1
 652 720 l 2,27,28
 691 720 691 720 724.5 690 c 128,-1,29
 758 660 758 660 770 620 c 1,0,-1
EndSplineSet
EndChar

StartChar: A.alt
Encoding: 57355 57355 15
Width: 774
Flags: MW
HStem: 0 21G<4 111 4 4 645 645 645 728> 202 83<351 645 351 645 281 645> 701 20G<616 728 728 728>
VStem: 645 83<0 202 202 202 285 629 629 629>
LayerCount: 2
Fore
SplineSet
111 0 m 1,0,-1
 4 0 l 1,1,-1
 616 721 l 1,2,-1
 728 721 l 1,3,-1
 728 0 l 1,4,-1
 645 0 l 1,5,-1
 645 202 l 1,6,-1
 281 202 l 1,7,-1
 111 0 l 1,0,-1
645 629 m 1,8,-1
 351 285 l 1,9,-1
 645 285 l 1,10,-1
 645 629 l 1,8,-1
EndSplineSet
EndChar

StartChar: Ccedilla
Encoding: 199 199 16
Width: 822
Flags: MW
HStem: -139 220<337 417 337 337> 0 81<142.5 774 176 372 451 774 451 451> 639 81<165.5 774 176 774>
VStem: 56 81<120 600>
LayerCount: 2
Fore
SplineSet
774 639 m 1,0,-1
 176 639 l 2,1,2
 160 639 160 639 148.5 627.5 c 128,-1,3
 137 616 137 616 137 600 c 2,4,-1
 137 120 l 2,5,6
 137 104 137 104 148.5 92.5 c 128,-1,7
 160 81 160 81 176 81 c 2,8,-1
 774 81 l 1,9,-1
 774 0 l 1,10,-1
 451 0 l 1,11,-1
 417 -139 l 1,12,-1
 337 -139 l 1,13,-1
 372 0 l 1,14,-1
 176 0 l 2,15,16
 126 0 126 0 91 35 c 128,-1,17
 56 70 56 70 56 120 c 2,18,-1
 56 600 l 2,19,20
 56 650 56 650 91 685 c 128,-1,21
 126 720 126 720 176 720 c 2,22,-1
 774 720 l 1,23,-1
 774 639 l 1,0,-1
EndSplineSet
EndChar

StartChar: D
Encoding: 68 68 17
Width: 834
Flags: MW
HStem: 0 81<178 658 178 658> 639 81<167.5 178 178 658>
VStem: 58 81<109.5 120 120 600> 697 81<120 600>
LayerCount: 2
Fore
SplineSet
58 720 m 1,0,-1
 658 720 l 2,1,2
 708 720 708 720 743 685 c 128,-1,3
 778 650 778 650 778 600 c 2,4,-1
 778 120 l 2,5,6
 778 70 778 70 743 35 c 128,-1,7
 708 0 708 0 658 0 c 2,8,-1
 58 0 l 1,9,-1
 58 720 l 1,0,-1
697 120 m 2,10,-1
 697 600 l 2,11,12
 697 616 697 616 685.5 627.5 c 128,-1,13
 674 639 674 639 658 639 c 2,14,-1
 178 639 l 2,15,16
 162 639 162 639 150.5 627.5 c 128,-1,17
 139 616 139 616 139 600 c 2,18,-1
 139 120 l 2,19,20
 139 104 139 104 150.5 92.5 c 128,-1,21
 162 81 162 81 178 81 c 2,22,-1
 658 81 l 2,23,24
 674 81 674 81 685.5 92.5 c 128,-1,25
 697 104 697 104 697 120 c 2,10,-1
EndSplineSet
EndChar

StartChar: E
Encoding: 69 69 18
Width: 766
Flags: MW
HStem: 0 81<139 715 139 715> 319 82<139 602 139 602> 639 81<139 715 139 139>
VStem: 58 81<81 319 401 639>
CounterMasks: 1 e0
LayerCount: 2
Fore
SplineSet
715 720 m 1,0,-1
 715 639 l 1,1,-1
 139 639 l 1,2,-1
 139 401 l 1,3,-1
 602 401 l 1,4,-1
 602 319 l 1,5,-1
 139 319 l 1,6,-1
 139 81 l 1,7,-1
 715 81 l 1,8,-1
 715 0 l 1,9,-1
 58 0 l 1,10,-1
 58 720 l 1,11,-1
 715 720 l 1,0,-1
EndSplineSet
EndChar

StartChar: Eacute
Encoding: 201 201 19
Width: 766
Flags: MW
HStem: 0 81<139 715 139 715> 319 82<139 602 139 602> 639 81<139 715 139 139> 865 139<309 423 344 389>
VStem: 58 81<81 319 401 639>
LayerCount: 2
Fore
SplineSet
715 720 m 1,0,-1
 715 639 l 1,1,-1
 139 639 l 1,2,-1
 139 401 l 1,3,-1
 602 401 l 1,4,-1
 602 319 l 1,5,-1
 139 319 l 1,6,-1
 139 81 l 1,7,-1
 715 81 l 1,8,-1
 715 0 l 1,9,-1
 58 0 l 1,10,-1
 58 720 l 1,11,-1
 715 720 l 1,0,-1
309 865 m 1,12,-1
 344 1004 l 1,13,-1
 423 1004 l 1,14,-1
 389 865 l 1,15,-1
 309 865 l 1,12,-1
EndSplineSet
EndChar

StartChar: Ecircumflex
Encoding: 202 202 20
Width: 766
Flags: MW
HStem: 0 81<139 715 139 715> 319 82<139 602 139 602> 639 81<139 715 139 139> 864 21G<261 302 261 261 420 420 420 462> 961 20G<332 391 391 391>
VStem: 58 81<81 319 401 639>
LayerCount: 2
Fore
SplineSet
715 720 m 1,0,-1
 715 639 l 1,1,-1
 139 639 l 1,2,-1
 139 401 l 1,3,-1
 602 401 l 1,4,-1
 602 319 l 1,5,-1
 139 319 l 1,6,-1
 139 81 l 1,7,-1
 715 81 l 1,8,-1
 715 0 l 1,9,-1
 58 0 l 1,10,-1
 58 720 l 1,11,-1
 715 720 l 1,0,-1
302 864 m 1,12,-1
 261 864 l 1,13,-1
 332 981 l 1,14,-1
 391 981 l 1,15,-1
 462 864 l 1,16,-1
 420 864 l 1,17,-1
 362 949 l 1,18,-1
 302 864 l 1,12,-1
EndSplineSet
EndChar

StartChar: Edieresis
Encoding: 203 203 21
Width: 766
Flags: MW
HStem: 0 81<139 715 139 715> 319 82<139 602 139 602> 639 81<139 715 139 139> 865 82<244 327 244 327 424 506>
VStem: 58 81<81 319 401 639> 244 83<865 947 865 947> 424 82<865 947 865 947>
LayerCount: 2
Fore
SplineSet
715 720 m 1,0,-1
 715 639 l 1,1,-1
 139 639 l 1,2,-1
 139 401 l 1,3,-1
 602 401 l 1,4,-1
 602 319 l 1,5,-1
 139 319 l 1,6,-1
 139 81 l 1,7,-1
 715 81 l 1,8,-1
 715 0 l 1,9,-1
 58 0 l 1,10,-1
 58 720 l 1,11,-1
 715 720 l 1,0,-1
506 947 m 1,12,-1
 506 865 l 1,13,-1
 424 865 l 1,14,-1
 424 947 l 1,15,-1
 506 947 l 1,12,-1
327 947 m 1,16,-1
 327 865 l 1,17,-1
 244 865 l 1,18,-1
 244 947 l 1,19,-1
 327 947 l 1,16,-1
EndSplineSet
EndChar

StartChar: Egrave
Encoding: 200 200 22
Width: 766
Flags: MW
HStem: 0 81<139 715 139 715> 319 82<139 602 139 602> 639 81<139 715 139 139> 865 139<344 390 309 424 344 344>
VStem: 58 81<81 319 401 639>
LayerCount: 2
Fore
SplineSet
715 720 m 1,0,-1
 715 639 l 1,1,-1
 139 639 l 1,2,-1
 139 401 l 1,3,-1
 602 401 l 1,4,-1
 602 319 l 1,5,-1
 139 319 l 1,6,-1
 139 81 l 1,7,-1
 715 81 l 1,8,-1
 715 0 l 1,9,-1
 58 0 l 1,10,-1
 58 720 l 1,11,-1
 715 720 l 1,0,-1
390 1004 m 1,12,-1
 424 865 l 1,13,-1
 344 865 l 1,14,-1
 309 1004 l 1,15,-1
 390 1004 l 1,12,-1
EndSplineSet
EndChar

StartChar: Euro
Encoding: 8364 8364 23
Width: 799
Flags: MW
HStem: 0 82<228 761 262 761> 230 82<35 140 35 140 223 647> 415 83<35 140 35 140 223 647> 638 83<251.5 761 262 761>
VStem: 140 83<121 230 312 415 498 599>
LayerCount: 2
Fore
SplineSet
262 82 m 2,0,-1
 761 82 l 1,1,-1
 761 0 l 1,2,-1
 262 0 l 2,3,4
 211 0 211 0 175.5 35.5 c 128,-1,5
 140 71 140 71 140 121 c 2,6,-1
 140 230 l 1,7,-1
 35 230 l 1,8,-1
 35 312 l 1,9,-1
 140 312 l 1,10,-1
 140 415 l 1,11,-1
 35 415 l 1,12,-1
 35 498 l 1,13,-1
 140 498 l 1,14,-1
 140 599 l 2,15,16
 140 650 140 650 175.5 685.5 c 128,-1,17
 211 721 211 721 262 721 c 2,18,-1
 761 721 l 1,19,-1
 761 638 l 1,20,-1
 262 638 l 2,21,22
 246 638 246 638 234.5 626.5 c 128,-1,23
 223 615 223 615 223 599 c 2,24,-1
 223 498 l 1,25,-1
 647 498 l 1,26,-1
 647 415 l 1,27,-1
 223 415 l 1,28,-1
 223 312 l 1,29,-1
 647 312 l 1,30,-1
 647 230 l 1,31,-1
 223 230 l 1,32,-1
 223 121 l 2,33,34
 223 105 223 105 234.5 93.5 c 128,-1,35
 246 82 246 82 262 82 c 2,0,-1
EndSplineSet
EndChar

StartChar: F
Encoding: 70 70 24
Width: 723
Flags: MW
HStem: 0 21G<58 139 58 58> 319 82<139 602 139 602> 639 81<139 715 139 139>
VStem: 58 81<0 319 401 639>
LayerCount: 2
Fore
SplineSet
58 720 m 1,0,-1
 715 720 l 1,1,-1
 715 639 l 1,2,-1
 139 639 l 1,3,-1
 139 401 l 1,4,-1
 602 401 l 1,5,-1
 602 319 l 1,6,-1
 139 319 l 1,7,-1
 139 0 l 1,8,-1
 58 0 l 1,9,-1
 58 720 l 1,0,-1
EndSplineSet
EndChar

StartChar: G
Encoding: 71 71 25
Width: 830
Flags: MW
HStem: 0 81<142.5 656 176 656> 298 82<517 695 517 776> 571 149<176 776 176 695> 639 81<165.5 656 176 656>
VStem: 56 81<120 600> 695 81<120 298 298 298 571 600>
LayerCount: 2
Fore
SplineSet
776 600 m 2,0,-1
 776 571 l 1,1,-1
 695 571 l 1,2,-1
 695 600 l 2,3,4
 695 616 695 616 683.5 627.5 c 128,-1,5
 672 639 672 639 656 639 c 2,6,-1
 176 639 l 2,7,8
 160 639 160 639 148.5 627.5 c 128,-1,9
 137 616 137 616 137 600 c 2,10,-1
 137 120 l 2,11,12
 137 104 137 104 148.5 92.5 c 128,-1,13
 160 81 160 81 176 81 c 2,14,-1
 656 81 l 2,15,16
 672 81 672 81 683.5 92.5 c 128,-1,17
 695 104 695 104 695 120 c 2,18,-1
 695 298 l 1,19,-1
 517 298 l 1,20,-1
 517 380 l 1,21,-1
 776 380 l 1,22,-1
 776 120 l 2,23,24
 776 70 776 70 741 35 c 128,-1,25
 706 0 706 0 656 0 c 2,26,-1
 176 0 l 2,27,28
 126 0 126 0 91 35 c 128,-1,29
 56 70 56 70 56 120 c 2,30,-1
 56 600 l 2,31,32
 56 650 56 650 91 685 c 128,-1,33
 126 720 126 720 176 720 c 2,34,-1
 656 720 l 2,35,36
 706 720 706 720 741 685 c 128,-1,37
 776 650 776 650 776 600 c 2,0,-1
EndSplineSet
EndChar

StartChar: H
Encoding: 72 72 26
Width: 851
Flags: MW
HStem: 0 21G<57 138 57 57 713 795 713 713> 319 82<138 713 138 713> 700 20G<57 138 138 138 713 795 795 795>
VStem: 57 81<0 319 401 720> 713 82<0 319 319 319 401 720 0 720>
LayerCount: 2
Fore
SplineSet
713 720 m 1,0,-1
 795 720 l 1,1,-1
 795 0 l 1,2,-1
 713 0 l 1,3,-1
 713 319 l 1,4,-1
 138 319 l 1,5,-1
 138 0 l 1,6,-1
 57 0 l 1,7,-1
 57 720 l 1,8,-1
 138 720 l 1,9,-1
 138 401 l 1,10,-1
 713 401 l 1,11,-1
 713 720 l 1,0,-1
EndSplineSet
EndChar

StartChar: I
Encoding: 73 73 27
Width: 220
Flags: MW
HStem: 0 21G<57 57 57 138> 700 20G<57 138 138 138>
VStem: 57 81<0 720 0 720>
LayerCount: 2
Fore
SplineSet
57 0 m 1,0,-1
 57 720 l 1,1,-1
 138 720 l 1,2,-1
 138 0 l 1,3,-1
 57 0 l 1,0,-1
EndSplineSet
Substitution2: "'salt' Stylistic Alternatives in Latin lookup 2 subtable" I.alt
Substitution2: "'aalt' Access All Alternates in Latin lookup 0 subtable" I.alt
EndChar

StartChar: I.alt
Encoding: 65541 -1 28
Width: 818
Flags: MW
HStem: 0 81<49 368 450 769 49 368> 639 81<49 368 49 769 450 769 450 450>
VStem: 368 82<81 639 81 639>
LayerCount: 2
Fore
SplineSet
769 720 m 1,0,-1
 769 639 l 1,1,-1
 450 639 l 1,2,-1
 450 81 l 1,3,-1
 769 81 l 1,4,-1
 769 0 l 1,5,-1
 49 0 l 1,6,-1
 49 81 l 1,7,-1
 368 81 l 1,8,-1
 368 639 l 1,9,-1
 49 639 l 1,10,-1
 49 720 l 1,11,-1
 769 720 l 1,0,-1
EndSplineSet
EndChar

StartChar: Iacute
Encoding: 205 205 29
Width: 220
Flags: MW
HStem: 0 21G<57 57 57 138> 700 20G<57 138 138 138> 865 139<36 150 71 116>
VStem: 57 81<0 720 0 720>
LayerCount: 2
Fore
SplineSet
57 0 m 1,0,-1
 57 720 l 1,1,-1
 138 720 l 1,2,-1
 138 0 l 1,3,-1
 57 0 l 1,0,-1
36 865 m 1,4,-1
 71 1004 l 1,5,-1
 150 1004 l 1,6,-1
 116 865 l 1,7,-1
 36 865 l 1,4,-1
EndSplineSet
EndChar

StartChar: Icircumflex
Encoding: 206 206 30
Width: 220
Flags: MW
HStem: 0 21G<57 57 57 138> 700 20G<57 138 138 138> 864 21G<-12 29 -12 -12 147 147 147 189> 961 20G<59 118 118 118>
VStem: 57 81<0 720 0 720>
LayerCount: 2
Fore
SplineSet
57 0 m 1,0,-1
 57 720 l 1,1,-1
 138 720 l 1,2,-1
 138 0 l 1,3,-1
 57 0 l 1,0,-1
29 864 m 1,4,-1
 -12 864 l 1,5,-1
 59 981 l 1,6,-1
 118 981 l 1,7,-1
 189 864 l 1,8,-1
 147 864 l 1,9,-1
 89 949 l 1,10,-1
 29 864 l 1,4,-1
EndSplineSet
EndChar

StartChar: Idieresis
Encoding: 207 207 31
Width: 220
Flags: MW
HStem: 0 21G<57 57 57 138> 700 20G<57 138 138 138> 865 82<-29 54 -29 54 151 233>
VStem: -29 83<865 947 865 947> 57 81<0 720 0 720> 151 82<865 947 865 947>
LayerCount: 2
Fore
SplineSet
57 0 m 1,0,-1
 57 720 l 1,1,-1
 138 720 l 1,2,-1
 138 0 l 1,3,-1
 57 0 l 1,0,-1
233 947 m 1,4,-1
 233 865 l 1,5,-1
 151 865 l 1,6,-1
 151 947 l 1,7,-1
 233 947 l 1,4,-1
54 947 m 1,8,-1
 54 865 l 1,9,-1
 -29 865 l 1,10,-1
 -29 947 l 1,11,-1
 54 947 l 1,8,-1
EndSplineSet
EndChar

StartChar: Igrave
Encoding: 204 204 32
Width: 220
Flags: MW
HStem: 0 21G<57 57 57 138> 700 20G<57 138 138 138> 865 139<71 117 36 151 71 71>
VStem: 57 81<0 720 0 720>
LayerCount: 2
Fore
SplineSet
57 0 m 1,0,-1
 57 720 l 1,1,-1
 138 720 l 1,2,-1
 138 0 l 1,3,-1
 57 0 l 1,0,-1
117 1004 m 1,4,-1
 151 865 l 1,5,-1
 71 865 l 1,6,-1
 36 1004 l 1,7,-1
 117 1004 l 1,4,-1
EndSplineSet
EndChar

StartChar: J
Encoding: 74 74 33
Width: 780
Flags: MW
HStem: 0 81<90.5 604 124 604> 0 177<4 124 4 604> 700 20G<643 724 724 724>
VStem: 4 81<120 177 109.5 177> 643 81<120 720>
LayerCount: 2
Fore
SplineSet
643 120 m 2,0,-1
 643 720 l 1,1,-1
 724 720 l 1,2,-1
 724 120 l 2,3,4
 724 70 724 70 689 35 c 128,-1,5
 654 0 654 0 604 0 c 2,6,-1
 124 0 l 2,7,8
 74 0 74 0 39 35 c 128,-1,9
 4 70 4 70 4 120 c 2,10,-1
 4 177 l 1,11,-1
 85 177 l 1,12,-1
 85 120 l 2,13,14
 85 104 85 104 96.5 92.5 c 128,-1,15
 108 81 108 81 124 81 c 2,16,-1
 604 81 l 2,17,18
 620 81 620 81 631.5 92.5 c 128,-1,19
 643 104 643 104 643 120 c 2,0,-1
EndSplineSet
Substitution2: "'salt' Stylistic Alternatives in Latin lookup 2 subtable" J.alt
Substitution2: "'aalt' Access All Alternates in Latin lookup 0 subtable" J.alt
EndChar

StartChar: J.alt
Encoding: 65542 -1 34
Width: 645
Flags: MW
HStem: 0 81<3 468 3 468> 700 20G<506 588 588 588>
VStem: 506 82<120 720>
LayerCount: 2
Fore
SplineSet
506 120 m 2,0,-1
 506 720 l 1,1,-1
 588 720 l 1,2,-1
 588 120 l 2,3,4
 588 70 588 70 553 35 c 128,-1,5
 518 0 518 0 468 0 c 2,6,-1
 3 0 l 1,7,-1
 3 81 l 1,8,-1
 468 81 l 2,9,10
 484 81 484 81 495 92.5 c 128,-1,11
 506 104 506 104 506 120 c 2,0,-1
EndSplineSet
EndChar

StartChar: K
Encoding: 75 75 35
Width: 797
Flags: MW
HStem: 0 21G<57 139 57 57 639 744 639 639> 319 82<139 371 139 371> 700 20G<57 139 139 139 639 743 743 743>
VStem: 57 82<0 319 401 720>
LayerCount: 2
Fore
SplineSet
639 720 m 1,0,-1
 743 720 l 1,1,-1
 442 360 l 1,2,-1
 744 0 l 1,3,-1
 639 0 l 1,4,-1
 371 319 l 1,5,-1
 139 319 l 1,6,-1
 139 0 l 1,7,-1
 57 0 l 1,8,-1
 57 720 l 1,9,-1
 139 720 l 1,10,-1
 139 401 l 1,11,-1
 371 401 l 1,12,-1
 639 720 l 1,0,-1
EndSplineSet
Substitution2: "'salt' Stylistic Alternatives in Latin lookup 2 subtable" K.alt
Substitution2: "'aalt' Access All Alternates in Latin lookup 0 subtable" K.alt
EndChar

StartChar: K.alt
Encoding: 65543 -1 36
Width: 829
Flags: MW
HStem: 0 21G<54 135 54 54 693 774 693 693> 316 41<174 677> 357 41<174 677> 700 20G<54 135 135 135 694 775 775 775>
VStem: 54 81<0 278 425.5 436 436 720> 693 81<0 257 0 278 0 288>
LayerCount: 2
Fore
SplineSet
694 436 m 2,0,-1
 694 720 l 1,1,-1
 775 720 l 1,2,-1
 775 457 l 2,3,4
 775 422 775 422 734.5 389.5 c 128,-1,5
 694 357 694 357 636 357 c 1,6,7
 694 357 694 357 734 324 c 128,-1,8
 774 291 774 291 774 257 c 2,9,-1
 774 0 l 1,10,-1
 693 0 l 1,11,-1
 693 278 l 2,12,13
 693 293 693 293 681.5 304.5 c 128,-1,14
 670 316 670 316 654 316 c 2,15,-1
 174 316 l 2,16,17
 158 316 158 316 146.5 304.5 c 128,-1,18
 135 293 135 293 135 278 c 2,19,-1
 135 0 l 1,20,-1
 54 0 l 1,21,-1
 54 720 l 1,22,-1
 135 720 l 1,23,-1
 135 436 l 2,24,25
 135 420 135 420 146.5 409 c 128,-1,26
 158 398 158 398 174 398 c 2,27,-1
 655 398 l 2,28,29
 671 398 671 398 682.5 409 c 128,-1,30
 694 420 694 420 694 436 c 2,0,-1
EndSplineSet
EndChar

StartChar: L
Encoding: 76 76 37
Width: 779
Flags: MW
HStem: 0 81<138 777 138 777> 701 20G<57 138 138 138>
VStem: 57 81<81 721 81 721 81 721>
LayerCount: 2
Fore
SplineSet
57 0 m 1,0,-1
 57 721 l 1,1,-1
 138 721 l 1,2,-1
 138 81 l 1,3,-1
 777 81 l 1,4,-1
 777 0 l 1,5,-1
 57 0 l 1,0,-1
EndSplineSet
EndChar

StartChar: M
Encoding: 77 77 38
Width: 928
Flags: MW
HStem: 0 21G<56 137 56 56 795 876 795 795> 700 20G<56 167 167 167 765 876 876 876>
VStem: 56 81<0 628 0 720> 795 81<0 628 628 628>
LayerCount: 2
Fore
SplineSet
466 364 m 1,0,-1
 765 720 l 1,1,-1
 876 720 l 1,2,-1
 876 0 l 1,3,-1
 795 0 l 1,4,-1
 795 628 l 1,5,-1
 466 237 l 1,6,-1
 137 628 l 1,7,-1
 137 0 l 1,8,-1
 56 0 l 1,9,-1
 56 720 l 1,10,-1
 167 720 l 1,11,-1
 466 364 l 1,0,-1
EndSplineSet
Substitution2: "'salt' Stylistic Alternatives in Latin lookup 2 subtable" M.alt
Substitution2: "'aalt' Access All Alternates in Latin lookup 0 subtable" M.alt
EndChar

StartChar: M.alt
Encoding: 65544 -1 39
Width: 1155
Flags: MW
HStem: 0 21G<54 136 54 54 532 614 532 532 1035 1117 1035 1035> 639 81<136 494 136 136 614 997 614 614>
VStem: 54 82<0 639 0 720 0 720> 532 82<0 600 600 610.5> 1035 82<0 600 0 610.5>
LayerCount: 2
Fore
SplineSet
997 720 m 2,0,1
 1047 720 1047 720 1082 685 c 128,-1,2
 1117 650 1117 650 1117 600 c 2,3,-1
 1117 0 l 1,4,-1
 1035 0 l 1,5,-1
 1035 600 l 2,6,7
 1035 616 1035 616 1024 627.5 c 128,-1,8
 1013 639 1013 639 997 639 c 2,9,-1
 614 639 l 1,10,-1
 614 0 l 1,11,-1
 532 0 l 1,12,-1
 532 600 l 2,13,14
 532 616 532 616 521 627.5 c 128,-1,15
 510 639 510 639 494 639 c 2,16,-1
 136 639 l 1,17,-1
 136 0 l 1,18,-1
 54 0 l 1,19,-1
 54 720 l 1,20,-1
 997 720 l 2,0,1
EndSplineSet
EndChar

StartChar: N
Encoding: 78 78 40
Width: 832
Flags: MW
HStem: 0 21G<56 137 56 56 665 776 665 665> 700 20G<56 167 167 167 695 776 776 776>
VStem: 56 81<0 628 0 720> 695 81<92 720 0 720>
LayerCount: 2
Fore
SplineSet
695 92 m 1,0,-1
 695 720 l 1,1,-1
 776 720 l 1,2,-1
 776 0 l 1,3,-1
 665 0 l 1,4,-1
 137 628 l 1,5,-1
 137 0 l 1,6,-1
 56 0 l 1,7,-1
 56 720 l 1,8,-1
 167 720 l 1,9,-1
 695 92 l 1,0,-1
EndSplineSet
Substitution2: "'salt' Stylistic Alternatives in Latin lookup 2 subtable" N.alt
Substitution2: "'aalt' Access All Alternates in Latin lookup 0 subtable" N.alt
EndChar

StartChar: N.alt
Encoding: 65545 -1 41
Width: 827
Flags: MW
HStem: 0 21G<54 135 54 54 693 693 693 774> 639 81<135 654 135 135>
VStem: 54 81<0 639> 693 81<0 600 0 610.5>
LayerCount: 2
Fore
SplineSet
135 0 m 1,0,-1
 54 0 l 1,1,-1
 54 720 l 1,2,-1
 654 720 l 2,3,4
 704 720 704 720 739 685 c 128,-1,5
 774 650 774 650 774 600 c 2,6,-1
 774 0 l 1,7,-1
 693 0 l 1,8,-1
 693 600 l 2,9,10
 693 616 693 616 681.5 627.5 c 128,-1,11
 670 639 670 639 654 639 c 2,12,-1
 135 639 l 1,13,-1
 135 0 l 1,0,-1
EndSplineSet
EndChar

StartChar: Ntilde
Encoding: 209 209 42
Width: 832
Flags: MW
HStem: 0 21G<56 137 56 56 665 776 665 665> 700 20G<56 167 167 167 695 776 776 776> 869 120 941 48<294 339.5 290 343>
VStem: 56 81<0 628 0 720> 695 81<92 720 0 720>
LayerCount: 2
Fore
SplineSet
695 92 m 1,0,-1
 695 720 l 1,1,-1
 776 720 l 1,2,-1
 776 0 l 1,3,-1
 665 0 l 1,4,-1
 137 628 l 1,5,-1
 137 0 l 1,6,-1
 56 0 l 1,7,-1
 56 720 l 1,8,-1
 167 720 l 1,9,-1
 695 92 l 1,0,-1
511 917 m 1,10,-1
 513 917 l 2,11,12
 543 917 543 917 579 934 c 1,13,-1
 579 883 l 1,14,15
 541 869 541 869 513 869 c 0,16,17
 478 869 478 869 411 905 c 128,-1,18
 344 941 344 941 302 941 c 0,19,20
 263 941 263 941 240 933 c 1,21,-1
 240 980 l 1,22,23
 267 989 267 989 302 989 c 0,24,25
 342 989 342 989 409 955.5 c 128,-1,26
 476 922 476 922 511 917 c 1,10,-1
EndSplineSet
EndChar

StartChar: O
Encoding: 79 79 43
Width: 828
Flags: MW
HStem: 0 81<140.5 654 174 654> 639 81<163.5 654 174 654>
VStem: 54 81<120 600> 693 81<120 600>
LayerCount: 2
Fore
SplineSet
174 720 m 2,0,-1
 654 720 l 2,1,2
 704 720 704 720 739 685 c 128,-1,3
 774 650 774 650 774 600 c 2,4,-1
 774 120 l 2,5,6
 774 70 774 70 739 35 c 128,-1,7
 704 0 704 0 654 0 c 2,8,-1
 174 0 l 2,9,10
 124 0 124 0 89 35 c 128,-1,11
 54 70 54 70 54 120 c 2,12,-1
 54 600 l 2,13,14
 54 650 54 650 89 685 c 128,-1,15
 124 720 124 720 174 720 c 2,0,-1
174 81 m 2,16,-1
 654 81 l 2,17,18
 670 81 670 81 681.5 92.5 c 128,-1,19
 693 104 693 104 693 120 c 2,20,-1
 693 600 l 2,21,22
 693 616 693 616 681.5 627.5 c 128,-1,23
 670 639 670 639 654 639 c 2,24,-1
 174 639 l 2,25,26
 158 639 158 639 146.5 627.5 c 128,-1,27
 135 616 135 616 135 600 c 2,28,-1
 135 120 l 2,29,30
 135 104 135 104 146.5 92.5 c 128,-1,31
 158 81 158 81 174 81 c 2,16,-1
EndSplineSet
Substitution2: "'salt' Stylistic Alternatives in Latin lookup 2 subtable" O.alt
Substitution2: "'aalt' Access All Alternates in Latin lookup 0 subtable" O.alt
EndChar

StartChar: O.alt
Encoding: 65546 -1 44
Width: 824
Flags: MW
HStem: 0 81<138.5 652 172 652> 319 82<371 453 371 453> 639 81<161.5 652 172 652>
VStem: 52 81<120 600> 371 82<319 401> 691 81<120 600>
CounterMasks: 1 fc
LayerCount: 2
Fore
SplineSet
172 720 m 2,0,-1
 652 720 l 2,1,2
 702 720 702 720 737 685 c 128,-1,3
 772 650 772 650 772 600 c 2,4,-1
 772 120 l 2,5,6
 772 70 772 70 737 35 c 128,-1,7
 702 0 702 0 652 0 c 2,8,-1
 172 0 l 2,9,10
 122 0 122 0 87 35 c 128,-1,11
 52 70 52 70 52 120 c 2,12,-1
 52 600 l 2,13,14
 52 650 52 650 87 685 c 128,-1,15
 122 720 122 720 172 720 c 2,0,-1
691 120 m 2,16,-1
 691 600 l 2,17,18
 691 616 691 616 679.5 627.5 c 128,-1,19
 668 639 668 639 652 639 c 2,20,-1
 172 639 l 2,21,22
 156 639 156 639 144.5 627.5 c 128,-1,23
 133 616 133 616 133 600 c 2,24,-1
 133 120 l 2,25,26
 133 104 133 104 144.5 92.5 c 128,-1,27
 156 81 156 81 172 81 c 2,28,-1
 652 81 l 2,29,30
 668 81 668 81 679.5 92.5 c 128,-1,31
 691 104 691 104 691 120 c 2,16,-1
453 319 m 1,32,-1
 371 319 l 1,33,-1
 371 401 l 1,34,-1
 453 401 l 1,35,-1
 453 319 l 1,32,-1
EndSplineSet
EndChar

StartChar: OE
Encoding: 338 338 45
Width: 1374
Flags: MW
HStem: 0 81<139.5 653 173 653 653 663.5 773 1349> 319 82<773 1236 773 1236> 639 81<162.5 1349 173 653 773 773 773 1349>
VStem: 53 81<120 600> 692 81<120 319 401 600 600 610.5>
CounterMasks: 1 e0
LayerCount: 2
Fore
SplineSet
773 639 m 1,0,-1
 773 401 l 1,1,-1
 1236 401 l 1,2,-1
 1236 319 l 1,3,-1
 773 319 l 1,4,-1
 773 81 l 1,5,-1
 1349 81 l 1,6,-1
 1349 0 l 1,7,-1
 173 0 l 2,8,9
 123 0 123 0 88 35 c 128,-1,10
 53 70 53 70 53 120 c 2,11,-1
 53 600 l 2,12,13
 53 650 53 650 88 685 c 128,-1,14
 123 720 123 720 173 720 c 2,15,-1
 1349 720 l 1,16,-1
 1349 639 l 1,17,-1
 773 639 l 1,0,-1
653 81 m 2,18,19
 669 81 669 81 680.5 92.5 c 128,-1,20
 692 104 692 104 692 120 c 2,21,-1
 692 600 l 2,22,23
 692 616 692 616 680.5 627.5 c 128,-1,24
 669 639 669 639 653 639 c 2,25,-1
 173 639 l 2,26,27
 157 639 157 639 145.5 627.5 c 128,-1,28
 134 616 134 616 134 600 c 2,29,-1
 134 120 l 2,30,31
 134 104 134 104 145.5 92.5 c 128,-1,32
 157 81 157 81 173 81 c 2,33,-1
 653 81 l 2,18,19
EndSplineSet
EndChar

StartChar: Oacute
Encoding: 211 211 46
Width: 828
Flags: MW
HStem: 0 81<140.5 654 174 654> 639 81<163.5 654 174 654> 865 139<340 454 375 420>
VStem: 54 81<120 600> 693 81<120 600>
LayerCount: 2
Fore
SplineSet
174 720 m 2,0,-1
 654 720 l 2,1,2
 704 720 704 720 739 685 c 128,-1,3
 774 650 774 650 774 600 c 2,4,-1
 774 120 l 2,5,6
 774 70 774 70 739 35 c 128,-1,7
 704 0 704 0 654 0 c 2,8,-1
 174 0 l 2,9,10
 124 0 124 0 89 35 c 128,-1,11
 54 70 54 70 54 120 c 2,12,-1
 54 600 l 2,13,14
 54 650 54 650 89 685 c 128,-1,15
 124 720 124 720 174 720 c 2,0,-1
174 81 m 2,16,-1
 654 81 l 2,17,18
 670 81 670 81 681.5 92.5 c 128,-1,19
 693 104 693 104 693 120 c 2,20,-1
 693 600 l 2,21,22
 693 616 693 616 681.5 627.5 c 128,-1,23
 670 639 670 639 654 639 c 2,24,-1
 174 639 l 2,25,26
 158 639 158 639 146.5 627.5 c 128,-1,27
 135 616 135 616 135 600 c 2,28,-1
 135 120 l 2,29,30
 135 104 135 104 146.5 92.5 c 128,-1,31
 158 81 158 81 174 81 c 2,16,-1
340 865 m 1,32,-1
 375 1004 l 1,33,-1
 454 1004 l 1,34,-1
 420 865 l 1,35,-1
 340 865 l 1,32,-1
EndSplineSet
EndChar

StartChar: Ocircumflex
Encoding: 212 212 47
Width: 828
Flags: MW
HStem: 0 81<140.5 654 174 654> 639 81<163.5 654 174 654> 864 21G<292 333 292 292 451 451 451 493> 961 20G<363 422 422 422>
VStem: 54 81<120 600> 693 81<120 600>
LayerCount: 2
Fore
SplineSet
174 720 m 2,0,-1
 654 720 l 2,1,2
 704 720 704 720 739 685 c 128,-1,3
 774 650 774 650 774 600 c 2,4,-1
 774 120 l 2,5,6
 774 70 774 70 739 35 c 128,-1,7
 704 0 704 0 654 0 c 2,8,-1
 174 0 l 2,9,10
 124 0 124 0 89 35 c 128,-1,11
 54 70 54 70 54 120 c 2,12,-1
 54 600 l 2,13,14
 54 650 54 650 89 685 c 128,-1,15
 124 720 124 720 174 720 c 2,0,-1
174 81 m 2,16,-1
 654 81 l 2,17,18
 670 81 670 81 681.5 92.5 c 128,-1,19
 693 104 693 104 693 120 c 2,20,-1
 693 600 l 2,21,22
 693 616 693 616 681.5 627.5 c 128,-1,23
 670 639 670 639 654 639 c 2,24,-1
 174 639 l 2,25,26
 158 639 158 639 146.5 627.5 c 128,-1,27
 135 616 135 616 135 600 c 2,28,-1
 135 120 l 2,29,30
 135 104 135 104 146.5 92.5 c 128,-1,31
 158 81 158 81 174 81 c 2,16,-1
333 864 m 1,32,-1
 292 864 l 1,33,-1
 363 981 l 1,34,-1
 422 981 l 1,35,-1
 493 864 l 1,36,-1
 451 864 l 1,37,-1
 393 949 l 1,38,-1
 333 864 l 1,32,-1
EndSplineSet
EndChar

StartChar: Odieresis
Encoding: 214 214 48
Width: 828
Flags: MW
HStem: 0 81<140.5 654 174 654> 639 81<163.5 654 174 654> 865 82<275 358 275 358 455 537>
VStem: 54 81<120 600> 275 83<865 947 865 947> 455 82<865 947 865 947> 693 81<120 600>
LayerCount: 2
Fore
SplineSet
174 720 m 2,0,-1
 654 720 l 2,1,2
 704 720 704 720 739 685 c 128,-1,3
 774 650 774 650 774 600 c 2,4,-1
 774 120 l 2,5,6
 774 70 774 70 739 35 c 128,-1,7
 704 0 704 0 654 0 c 2,8,-1
 174 0 l 2,9,10
 124 0 124 0 89 35 c 128,-1,11
 54 70 54 70 54 120 c 2,12,-1
 54 600 l 2,13,14
 54 650 54 650 89 685 c 128,-1,15
 124 720 124 720 174 720 c 2,0,-1
174 81 m 2,16,-1
 654 81 l 2,17,18
 670 81 670 81 681.5 92.5 c 128,-1,19
 693 104 693 104 693 120 c 2,20,-1
 693 600 l 2,21,22
 693 616 693 616 681.5 627.5 c 128,-1,23
 670 639 670 639 654 639 c 2,24,-1
 174 639 l 2,25,26
 158 639 158 639 146.5 627.5 c 128,-1,27
 135 616 135 616 135 600 c 2,28,-1
 135 120 l 2,29,30
 135 104 135 104 146.5 92.5 c 128,-1,31
 158 81 158 81 174 81 c 2,16,-1
537 947 m 1,32,-1
 537 865 l 1,33,-1
 455 865 l 1,34,-1
 455 947 l 1,35,-1
 537 947 l 1,32,-1
358 947 m 1,36,-1
 358 865 l 1,37,-1
 275 865 l 1,38,-1
 275 947 l 1,39,-1
 358 947 l 1,36,-1
EndSplineSet
EndChar

StartChar: Ograve
Encoding: 210 210 49
Width: 828
Flags: MW
HStem: 0 81<140.5 654 174 654> 639 81<163.5 654 174 654> 865 139<375 421 340 455 375 375>
VStem: 54 81<120 600> 693 81<120 600>
LayerCount: 2
Fore
SplineSet
174 720 m 2,0,-1
 654 720 l 2,1,2
 704 720 704 720 739 685 c 128,-1,3
 774 650 774 650 774 600 c 2,4,-1
 774 120 l 2,5,6
 774 70 774 70 739 35 c 128,-1,7
 704 0 704 0 654 0 c 2,8,-1
 174 0 l 2,9,10
 124 0 124 0 89 35 c 128,-1,11
 54 70 54 70 54 120 c 2,12,-1
 54 600 l 2,13,14
 54 650 54 650 89 685 c 128,-1,15
 124 720 124 720 174 720 c 2,0,-1
174 81 m 2,16,-1
 654 81 l 2,17,18
 670 81 670 81 681.5 92.5 c 128,-1,19
 693 104 693 104 693 120 c 2,20,-1
 693 600 l 2,21,22
 693 616 693 616 681.5 627.5 c 128,-1,23
 670 639 670 639 654 639 c 2,24,-1
 174 639 l 2,25,26
 158 639 158 639 146.5 627.5 c 128,-1,27
 135 616 135 616 135 600 c 2,28,-1
 135 120 l 2,29,30
 135 104 135 104 146.5 92.5 c 128,-1,31
 158 81 158 81 174 81 c 2,16,-1
421 1004 m 1,32,-1
 455 865 l 1,33,-1
 375 865 l 1,34,-1
 340 1004 l 1,35,-1
 421 1004 l 1,32,-1
EndSplineSet
EndChar

StartChar: Otilde
Encoding: 213 213 50
Width: 828
Flags: MW
HStem: 0 81<140.5 654 174 654> 639 81<163.5 654 174 654> 869 120 941 48<292 337.5 288 341>
VStem: 54 81<120 600> 693 81<120 600>
LayerCount: 2
Fore
SplineSet
174 720 m 2,0,-1
 654 720 l 2,1,2
 704 720 704 720 739 685 c 128,-1,3
 774 650 774 650 774 600 c 2,4,-1
 774 120 l 2,5,6
 774 70 774 70 739 35 c 128,-1,7
 704 0 704 0 654 0 c 2,8,-1
 174 0 l 2,9,10
 124 0 124 0 89 35 c 128,-1,11
 54 70 54 70 54 120 c 2,12,-1
 54 600 l 2,13,14
 54 650 54 650 89 685 c 128,-1,15
 124 720 124 720 174 720 c 2,0,-1
174 81 m 2,16,-1
 654 81 l 2,17,18
 670 81 670 81 681.5 92.5 c 128,-1,19
 693 104 693 104 693 120 c 2,20,-1
 693 600 l 2,21,22
 693 616 693 616 681.5 627.5 c 128,-1,23
 670 639 670 639 654 639 c 2,24,-1
 174 639 l 2,25,26
 158 639 158 639 146.5 627.5 c 128,-1,27
 135 616 135 616 135 600 c 2,28,-1
 135 120 l 2,29,30
 135 104 135 104 146.5 92.5 c 128,-1,31
 158 81 158 81 174 81 c 2,16,-1
509 917 m 1,32,-1
 511 917 l 2,33,34
 541 917 541 917 577 934 c 1,35,-1
 577 883 l 1,36,37
 539 869 539 869 511 869 c 0,38,39
 476 869 476 869 409 905 c 128,-1,40
 342 941 342 941 300 941 c 0,41,42
 261 941 261 941 238 933 c 1,43,-1
 238 980 l 1,44,45
 265 989 265 989 300 989 c 0,46,47
 340 989 340 989 407 955.5 c 128,-1,48
 474 922 474 922 509 917 c 1,32,-1
EndSplineSet
EndChar

StartChar: P
Encoding: 80 80 51
Width: 791
Flags: MW
HStem: 0 21G<56 137 56 56> 268 82<171.5 656 176 656> 638 81<165.5 176 176 656>
VStem: 56 81<0 272 377.5 388 388 599> 695 81<388 599>
LayerCount: 2
Fore
SplineSet
56 719 m 1,0,-1
 656 719 l 2,1,2
 706 719 706 719 741 684 c 128,-1,3
 776 649 776 649 776 599 c 2,4,-1
 776 388 l 2,5,6
 776 338 776 338 741 303 c 128,-1,7
 706 268 706 268 656 268 c 2,8,-1
 176 268 l 2,9,10
 167 268 167 268 137 272 c 1,11,-1
 137 0 l 1,12,-1
 56 0 l 1,13,-1
 56 719 l 1,0,-1
695 388 m 2,14,-1
 695 599 l 2,15,16
 695 615 695 615 683.5 626.5 c 128,-1,17
 672 638 672 638 656 638 c 2,18,-1
 176 638 l 2,19,20
 160 638 160 638 148.5 626.5 c 128,-1,21
 137 615 137 615 137 599 c 2,22,-1
 137 388 l 2,23,24
 137 372 137 372 148.5 361 c 128,-1,25
 160 350 160 350 176 350 c 2,26,-1
 656 350 l 2,27,28
 672 350 672 350 683.5 361 c 128,-1,29
 695 372 695 372 695 388 c 2,14,-1
EndSplineSet
EndChar

StartChar: Q
Encoding: 81 81 52
Width: 884
Flags: MW
HStem: 0 81<140.5 654 174 654 654 664.5 770 868> 639 81<163.5 654 174 654>
VStem: 54 81<120 600> 693 81<120 600>
LayerCount: 2
Fore
SplineSet
770 81 m 1,0,-1
 868 81 l 1,1,-1
 868 0 l 1,2,-1
 174 0 l 2,3,4
 124 0 124 0 89 35 c 128,-1,5
 54 70 54 70 54 120 c 2,6,-1
 54 600 l 2,7,8
 54 650 54 650 89 685 c 128,-1,9
 124 720 124 720 174 720 c 2,10,-1
 654 720 l 2,11,12
 704 720 704 720 739 685 c 128,-1,13
 774 650 774 650 774 600 c 2,14,-1
 774 120 l 2,15,16
 774 111 774 111 770 81 c 1,0,-1
174 81 m 2,17,-1
 654 81 l 2,18,19
 670 81 670 81 681.5 92.5 c 128,-1,20
 693 104 693 104 693 120 c 2,21,-1
 693 600 l 2,22,23
 693 616 693 616 681.5 627.5 c 128,-1,24
 670 639 670 639 654 639 c 2,25,-1
 174 639 l 2,26,27
 158 639 158 639 146.5 627.5 c 128,-1,28
 135 616 135 616 135 600 c 2,29,-1
 135 120 l 2,30,31
 135 104 135 104 146.5 92.5 c 128,-1,32
 158 81 158 81 174 81 c 2,17,-1
EndSplineSet
Substitution2: "'salt' Stylistic Alternatives in Latin lookup 2 subtable" Q.alt
Substitution2: "'aalt' Access All Alternates in Latin lookup 0 subtable" Q.alt
EndChar

StartChar: Q.alt
Encoding: 65547 -1 53
Width: 868
Flags: MW
HStem: -113 194<373 455 373 373> 0 81<140.5 654 174 373 455 654 455 455> 639 81<163.5 654 174 654>
VStem: 54 81<120 600> 373 82<-113 0 -113 0> 693 81<120 600>
CounterMasks: 1 1c
LayerCount: 2
Fore
SplineSet
654 720 m 2,0,1
 704 720 704 720 739 685 c 128,-1,2
 774 650 774 650 774 600 c 2,3,-1
 774 120 l 2,4,5
 774 70 774 70 739 35 c 128,-1,6
 704 0 704 0 654 0 c 2,7,-1
 455 0 l 1,8,-1
 455 -113 l 1,9,-1
 373 -113 l 1,10,-1
 373 0 l 1,11,-1
 174 0 l 2,12,13
 124 0 124 0 89 35 c 128,-1,14
 54 70 54 70 54 120 c 2,15,-1
 54 600 l 2,16,17
 54 650 54 650 89 685 c 128,-1,18
 124 720 124 720 174 720 c 2,19,-1
 654 720 l 2,0,1
693 120 m 2,20,-1
 693 600 l 2,21,22
 693 616 693 616 681.5 627.5 c 128,-1,23
 670 639 670 639 654 639 c 2,24,-1
 174 639 l 2,25,26
 158 639 158 639 146.5 627.5 c 128,-1,27
 135 616 135 616 135 600 c 2,28,-1
 135 120 l 2,29,30
 135 104 135 104 146.5 92.5 c 128,-1,31
 158 81 158 81 174 81 c 2,32,-1
 654 81 l 2,33,34
 670 81 670 81 681.5 92.5 c 128,-1,35
 693 104 693 104 693 120 c 2,20,-1
EndSplineSet
EndChar

StartChar: R
Encoding: 82 82 54
Width: 825
Flags: MW
HStem: 0 21G<55 136 55 55 664 771 664 664> 268 82<170 655 175 439 545 655 545 545> 638 81<164.5 175 175 655>
VStem: 55 81<0 272 377.5 388 388 599> 693 82<388 599>
LayerCount: 2
Fore
SplineSet
775 599 m 2,0,-1
 775 388 l 2,1,2
 775 338 775 338 740 303 c 128,-1,3
 705 268 705 268 655 268 c 2,4,-1
 545 268 l 1,5,-1
 771 0 l 1,6,-1
 664 0 l 1,7,-1
 439 268 l 1,8,-1
 175 268 l 2,9,10
 166 268 166 268 136 272 c 1,11,-1
 136 0 l 1,12,-1
 55 0 l 1,13,-1
 55 719 l 1,14,-1
 655 719 l 2,15,16
 705 719 705 719 740 684 c 128,-1,17
 775 649 775 649 775 599 c 2,0,-1
175 350 m 2,18,-1
 655 350 l 2,19,20
 671 350 671 350 682 361 c 128,-1,21
 693 372 693 372 693 388 c 2,22,-1
 693 599 l 2,23,24
 693 615 693 615 682 626.5 c 128,-1,25
 671 638 671 638 655 638 c 2,26,-1
 175 638 l 2,27,28
 159 638 159 638 147.5 626.5 c 128,-1,29
 136 615 136 615 136 599 c 2,30,-1
 136 388 l 2,31,32
 136 372 136 372 147.5 361 c 128,-1,33
 159 350 159 350 175 350 c 2,18,-1
EndSplineSet
Substitution2: "'salt' Stylistic Alternatives in Latin lookup 2 subtable" R.alt
Substitution2: "'aalt' Access All Alternates in Latin lookup 0 subtable" R.alt
EndChar

StartChar: R.alt
Encoding: 65548 -1 55
Width: 826
Flags: MW
HStem: 0 21G<54 135 54 54 693 774 693 693> 268 82<163.5 654 174 654> 638 81<174 687.5> 700 20G<54 54>
VStem: 54 81<0 230 377.5 388 388 599> 693 81<0 230 0 240 388 599>
LayerCount: 2
Fore
SplineSet
774 599 m 2,0,-1
 774 388 l 2,1,2
 774 362 774 362 752.5 343 c 128,-1,3
 731 324 731 324 707.5 316.5 c 128,-1,4
 684 309 684 309 667 309 c 1,5,6
 698 309 698 309 736 288.5 c 128,-1,7
 774 268 774 268 774 230 c 2,8,-1
 774 0 l 1,9,-1
 693 0 l 1,10,-1
 693 230 l 2,11,12
 693 245 693 245 681.5 256.5 c 128,-1,13
 670 268 670 268 654 268 c 2,14,-1
 174 268 l 2,15,16
 158 268 158 268 146.5 256.5 c 128,-1,17
 135 245 135 245 135 230 c 2,18,-1
 135 0 l 1,19,-1
 54 0 l 1,20,-1
 54 720 l 1,21,-1
 654 719 l 2,22,23
 704 719 704 719 739 684 c 128,-1,24
 774 649 774 649 774 599 c 2,0,-1
654 638 m 2,25,-1
 174 638 l 2,26,27
 158 638 158 638 146.5 626.5 c 128,-1,28
 135 615 135 615 135 599 c 2,29,-1
 135 388 l 2,30,31
 135 372 135 372 146.5 361 c 128,-1,32
 158 350 158 350 174 350 c 2,33,-1
 654 350 l 2,34,35
 670 350 670 350 681.5 361 c 128,-1,36
 693 372 693 372 693 388 c 2,37,-1
 693 599 l 2,38,39
 693 615 693 615 681.5 626.5 c 128,-1,40
 670 638 670 638 654 638 c 2,25,-1
EndSplineSet
EndChar

StartChar: S
Encoding: 83 83 56
Width: 822
Flags: MW
HStem: 0 81<137.5 651 171 651> 0 148<51 171 51 651> 319 82<137.5 651 171 651> 572 148<171 771 171 690> 639 81<160.5 651 171 651>
VStem: 51 81<120 148 109.5 148 439 600> 690 81<120 281 572 600>
LayerCount: 2
Fore
SplineSet
771 600 m 2,0,-1
 771 572 l 1,1,-1
 690 572 l 1,2,-1
 690 600 l 2,3,4
 690 616 690 616 678.5 627.5 c 128,-1,5
 667 639 667 639 651 639 c 2,6,-1
 171 639 l 2,7,8
 155 639 155 639 143.5 627.5 c 128,-1,9
 132 616 132 616 132 600 c 2,10,-1
 132 439 l 2,11,12
 132 423 132 423 143.5 412 c 128,-1,13
 155 401 155 401 171 401 c 2,14,-1
 651 401 l 2,15,16
 701 401 701 401 736 366 c 128,-1,17
 771 331 771 331 771 281 c 2,18,-1
 771 120 l 2,19,20
 771 70 771 70 736 35 c 128,-1,21
 701 0 701 0 651 0 c 2,22,-1
 171 0 l 2,23,24
 121 0 121 0 86 35 c 128,-1,25
 51 70 51 70 51 120 c 2,26,-1
 51 148 l 1,27,-1
 132 148 l 1,28,-1
 132 120 l 2,29,30
 132 104 132 104 143.5 92.5 c 128,-1,31
 155 81 155 81 171 81 c 2,32,-1
 651 81 l 2,33,34
 667 81 667 81 678.5 92.5 c 128,-1,35
 690 104 690 104 690 120 c 2,36,-1
 690 281 l 2,37,38
 690 297 690 297 678.5 308 c 128,-1,39
 667 319 667 319 651 319 c 2,40,-1
 171 319 l 2,41,42
 121 319 121 319 86 354 c 128,-1,43
 51 389 51 389 51 439 c 2,44,-1
 51 600 l 2,45,46
 51 650 51 650 86 685 c 128,-1,47
 121 720 121 720 171 720 c 2,48,-1
 651 720 l 2,49,50
 701 720 701 720 736 685 c 128,-1,51
 771 650 771 650 771 600 c 2,0,-1
EndSplineSet
Substitution2: "'salt' Stylistic Alternatives in Latin lookup 2 subtable" S.alt
Substitution2: "'aalt' Access All Alternates in Latin lookup 0 subtable" S.alt
EndChar

StartChar: S.alt
Encoding: 65549 -1 57
Width: 812
Flags: MW
HStem: 0 81<46 646 46 646> 319 82<132.5 646 166 646> 639 81<155.5 766 166 766>
VStem: 46 81<439 600> 684 82<120 281>
CounterMasks: 1 e0
LayerCount: 2
Fore
SplineSet
166 401 m 2,0,-1
 646 401 l 2,1,2
 696 401 696 401 731 366 c 128,-1,3
 766 331 766 331 766 281 c 2,4,-1
 766 120 l 2,5,6
 766 70 766 70 731 35 c 128,-1,7
 696 0 696 0 646 0 c 2,8,-1
 46 0 l 1,9,-1
 46 81 l 1,10,-1
 646 81 l 2,11,12
 662 81 662 81 673 92.5 c 128,-1,13
 684 104 684 104 684 120 c 2,14,-1
 684 281 l 2,15,16
 684 297 684 297 673 308 c 128,-1,17
 662 319 662 319 646 319 c 2,18,-1
 166 319 l 2,19,20
 116 319 116 319 81 354 c 128,-1,21
 46 389 46 389 46 439 c 2,22,-1
 46 600 l 2,23,24
 46 650 46 650 81 685 c 128,-1,25
 116 720 116 720 166 720 c 2,26,-1
 766 720 l 1,27,-1
 766 639 l 1,28,-1
 166 639 l 2,29,30
 150 639 150 639 138.5 627.5 c 128,-1,31
 127 616 127 616 127 600 c 2,32,-1
 127 439 l 2,33,34
 127 423 127 423 138.5 412 c 128,-1,35
 150 401 150 401 166 401 c 2,0,-1
EndSplineSet
EndChar

StartChar: Scaron
Encoding: 352 352 58
Width: 822
Flags: MW
HStem: 0 81<137.5 651 171 651> 0 148<51 171 51 651> 319 82<137.5 651 171 651> 572 148<171 771 171 690> 639 81<160.5 651 171 651> 864 21G<361 420 361 361> 961 20G<289 331 331 331 449 490 490 490>
VStem: 51 81<120 148 109.5 148 439 600> 690 81<120 281 572 600>
LayerCount: 2
Fore
SplineSet
771 600 m 2,0,-1
 771 572 l 1,1,-1
 690 572 l 1,2,-1
 690 600 l 2,3,4
 690 616 690 616 678.5 627.5 c 128,-1,5
 667 639 667 639 651 639 c 2,6,-1
 171 639 l 2,7,8
 155 639 155 639 143.5 627.5 c 128,-1,9
 132 616 132 616 132 600 c 2,10,-1
 132 439 l 2,11,12
 132 423 132 423 143.5 412 c 128,-1,13
 155 401 155 401 171 401 c 2,14,-1
 651 401 l 2,15,16
 701 401 701 401 736 366 c 128,-1,17
 771 331 771 331 771 281 c 2,18,-1
 771 120 l 2,19,20
 771 70 771 70 736 35 c 128,-1,21
 701 0 701 0 651 0 c 2,22,-1
 171 0 l 2,23,24
 121 0 121 0 86 35 c 128,-1,25
 51 70 51 70 51 120 c 2,26,-1
 51 148 l 1,27,-1
 132 148 l 1,28,-1
 132 120 l 2,29,30
 132 104 132 104 143.5 92.5 c 128,-1,31
 155 81 155 81 171 81 c 2,32,-1
 651 81 l 2,33,34
 667 81 667 81 678.5 92.5 c 128,-1,35
 690 104 690 104 690 120 c 2,36,-1
 690 281 l 2,37,38
 690 297 690 297 678.5 308 c 128,-1,39
 667 319 667 319 651 319 c 2,40,-1
 171 319 l 2,41,42
 121 319 121 319 86 354 c 128,-1,43
 51 389 51 389 51 439 c 2,44,-1
 51 600 l 2,45,46
 51 650 51 650 86 685 c 128,-1,47
 121 720 121 720 171 720 c 2,48,-1
 651 720 l 2,49,50
 701 720 701 720 736 685 c 128,-1,51
 771 650 771 650 771 600 c 2,0,-1
289 981 m 1,52,-1
 331 981 l 1,53,-1
 391 896 l 1,54,-1
 449 981 l 1,55,-1
 490 981 l 1,56,-1
 420 864 l 1,57,-1
 361 864 l 1,58,-1
 289 981 l 1,52,-1
EndSplineSet
EndChar

StartChar: T
Encoding: 84 84 59
Width: 759
Flags: MW
HStem: 0 21G<340 421 340 340> 639 81<20 340 20 740 421 740 421 421>
VStem: 340 81<0 639 0 639>
LayerCount: 2
Fore
SplineSet
20 720 m 1,0,-1
 740 720 l 1,1,-1
 740 639 l 1,2,-1
 421 639 l 1,3,-1
 421 0 l 1,4,-1
 340 0 l 1,5,-1
 340 639 l 1,6,-1
 20 639 l 1,7,-1
 20 720 l 1,0,-1
EndSplineSet
EndChar

StartChar: U
Encoding: 85 85 60
Width: 828
Flags: MW
HStem: 0 81<140.5 654 174 654> 700 20G<54 135 135 135 693 774 774 774>
VStem: 54 81<120 720> 693 81<120 720>
LayerCount: 2
Fore
SplineSet
693 120 m 2,0,-1
 693 720 l 1,1,-1
 774 720 l 1,2,-1
 774 120 l 2,3,4
 774 70 774 70 739 35 c 128,-1,5
 704 0 704 0 654 0 c 2,6,-1
 174 0 l 2,7,8
 124 0 124 0 89 35 c 128,-1,9
 54 70 54 70 54 120 c 2,10,-1
 54 720 l 1,11,-1
 135 720 l 1,12,-1
 135 120 l 2,13,14
 135 104 135 104 146.5 92.5 c 128,-1,15
 158 81 158 81 174 81 c 2,16,-1
 654 81 l 2,17,18
 670 81 670 81 681.5 92.5 c 128,-1,19
 693 104 693 104 693 120 c 2,0,-1
EndSplineSet
EndChar

StartChar: Uacute
Encoding: 218 218 61
Width: 828
Flags: MW
HStem: 0 81<140.5 654 174 654> 700 20G<54 135 135 135 693 774 774 774> 865 139<340 454 375 420>
VStem: 54 81<120 720> 693 81<120 720>
LayerCount: 2
Fore
SplineSet
693 120 m 2,0,-1
 693 720 l 1,1,-1
 774 720 l 1,2,-1
 774 120 l 2,3,4
 774 70 774 70 739 35 c 128,-1,5
 704 0 704 0 654 0 c 2,6,-1
 174 0 l 2,7,8
 124 0 124 0 89 35 c 128,-1,9
 54 70 54 70 54 120 c 2,10,-1
 54 720 l 1,11,-1
 135 720 l 1,12,-1
 135 120 l 2,13,14
 135 104 135 104 146.5 92.5 c 128,-1,15
 158 81 158 81 174 81 c 2,16,-1
 654 81 l 2,17,18
 670 81 670 81 681.5 92.5 c 128,-1,19
 693 104 693 104 693 120 c 2,0,-1
340 865 m 1,20,-1
 375 1004 l 1,21,-1
 454 1004 l 1,22,-1
 420 865 l 1,23,-1
 340 865 l 1,20,-1
EndSplineSet
EndChar

StartChar: Ucircumflex
Encoding: 219 219 62
Width: 828
Flags: MW
HStem: 0 81<140.5 654 174 654> 700 20G<54 135 135 135 693 774 774 774> 864 21G<292 333 292 292 451 451 451 493> 961 20G<363 422 422 422>
VStem: 54 81<120 720> 693 81<120 720>
LayerCount: 2
Fore
SplineSet
693 120 m 2,0,-1
 693 720 l 1,1,-1
 774 720 l 1,2,-1
 774 120 l 2,3,4
 774 70 774 70 739 35 c 128,-1,5
 704 0 704 0 654 0 c 2,6,-1
 174 0 l 2,7,8
 124 0 124 0 89 35 c 128,-1,9
 54 70 54 70 54 120 c 2,10,-1
 54 720 l 1,11,-1
 135 720 l 1,12,-1
 135 120 l 2,13,14
 135 104 135 104 146.5 92.5 c 128,-1,15
 158 81 158 81 174 81 c 2,16,-1
 654 81 l 2,17,18
 670 81 670 81 681.5 92.5 c 128,-1,19
 693 104 693 104 693 120 c 2,0,-1
333 864 m 1,20,-1
 292 864 l 1,21,-1
 363 981 l 1,22,-1
 422 981 l 1,23,-1
 493 864 l 1,24,-1
 451 864 l 1,25,-1
 393 949 l 1,26,-1
 333 864 l 1,20,-1
EndSplineSet
EndChar

StartChar: Udieresis
Encoding: 220 220 63
Width: 828
Flags: MW
HStem: 0 81<140.5 654 174 654> 700 20G<54 135 135 135 693 774 774 774> 865 82<275 358 275 358 455 537>
VStem: 54 81<120 720> 275 83<865 947 865 947> 455 82<865 947 865 947> 693 81<120 720>
LayerCount: 2
Fore
SplineSet
693 120 m 2,0,-1
 693 720 l 1,1,-1
 774 720 l 1,2,-1
 774 120 l 2,3,4
 774 70 774 70 739 35 c 128,-1,5
 704 0 704 0 654 0 c 2,6,-1
 174 0 l 2,7,8
 124 0 124 0 89 35 c 128,-1,9
 54 70 54 70 54 120 c 2,10,-1
 54 720 l 1,11,-1
 135 720 l 1,12,-1
 135 120 l 2,13,14
 135 104 135 104 146.5 92.5 c 128,-1,15
 158 81 158 81 174 81 c 2,16,-1
 654 81 l 2,17,18
 670 81 670 81 681.5 92.5 c 128,-1,19
 693 104 693 104 693 120 c 2,0,-1
537 947 m 1,20,-1
 537 865 l 1,21,-1
 455 865 l 1,22,-1
 455 947 l 1,23,-1
 537 947 l 1,20,-1
358 947 m 1,24,-1
 358 865 l 1,25,-1
 275 865 l 1,26,-1
 275 947 l 1,27,-1
 358 947 l 1,24,-1
EndSplineSet
EndChar

StartChar: Ugrave
Encoding: 217 217 64
Width: 828
Flags: MW
HStem: 0 81<140.5 654 174 654> 700 20G<54 135 135 135 693 774 774 774> 865 139<375 421 340 455 375 375>
VStem: 54 81<120 720> 693 81<120 720>
LayerCount: 2
Fore
SplineSet
693 120 m 2,0,-1
 693 720 l 1,1,-1
 774 720 l 1,2,-1
 774 120 l 2,3,4
 774 70 774 70 739 35 c 128,-1,5
 704 0 704 0 654 0 c 2,6,-1
 174 0 l 2,7,8
 124 0 124 0 89 35 c 128,-1,9
 54 70 54 70 54 120 c 2,10,-1
 54 720 l 1,11,-1
 135 720 l 1,12,-1
 135 120 l 2,13,14
 135 104 135 104 146.5 92.5 c 128,-1,15
 158 81 158 81 174 81 c 2,16,-1
 654 81 l 2,17,18
 670 81 670 81 681.5 92.5 c 128,-1,19
 693 104 693 104 693 120 c 2,0,-1
421 1004 m 1,20,-1
 455 865 l 1,21,-1
 375 865 l 1,22,-1
 340 1004 l 1,23,-1
 421 1004 l 1,20,-1
EndSplineSet
EndChar

StartChar: V
Encoding: 86 86 65
Width: 1003
Flags: MW
HStem: 0 21G<452 546 452 452> 700 20G<35 130 130 130 867 962 962 962>
LayerCount: 2
Fore
SplineSet
499 79 m 1,0,-1
 867 720 l 1,1,-1
 962 720 l 1,2,-1
 546 0 l 1,3,-1
 452 0 l 1,4,-1
 35 720 l 1,5,-1
 130 720 l 1,6,-1
 499 79 l 1,0,-1
EndSplineSet
Substitution2: "'ss02' Style Set 2 in Latin lookup 5 subtable" V.alt2
Substitution2: "'ss01' Style Set 1 in Latin lookup 4 subtable" V.alt
Substitution2: "'salt' Stylistic Alternatives in Latin lookup 2 subtable" V.alt3
AlternateSubs2: "'aalt' Access All Alternates in Latin lookup 1 subtable" V.alt3 V.alt V.alt2
EndChar

StartChar: V.alt
Encoding: 57354 57354 66
Width: 774
Flags: MW
HStem: 0 21G<54 166 54 54> 701 20G<54 137 137 137 670 777 777 777>
VStem: 54 83<93 721 93 721 93 721>
LayerCount: 2
Fore
SplineSet
54 721 m 1,0,-1
 137 721 l 1,1,-1
 137 93 l 1,2,-1
 670 721 l 1,3,-1
 777 721 l 1,4,-1
 166 0 l 1,5,-1
 54 0 l 1,6,-1
 54 721 l 1,0,-1
EndSplineSet
EndChar

StartChar: V.alt2
Encoding: 65550 -1 67
Width: 774
Flags: MW
HStem: 0 21G<605 716 605 605> 700 20G<0 107 107 107 635 716 716 716>
VStem: 635 81<92 720 0 720>
LayerCount: 2
Fore
SplineSet
635 92 m 1,0,-1
 635 720 l 1,1,-1
 716 720 l 1,2,-1
 716 0 l 1,3,-1
 605 0 l 1,4,-1
 0 720 l 1,5,-1
 107 720 l 1,6,-1
 635 92 l 1,0,-1
EndSplineSet
EndChar

StartChar: V.alt3
Encoding: 65551 -1 68
Width: 827
Flags: MW
HStem: 0 81<139.5 692 173 692 173 773> 700 20G<53 134 134 134 692 773 773 773>
VStem: 53 81<120 720> 692 81<81 720 0 720>
LayerCount: 2
Fore
SplineSet
692 720 m 1,0,-1
 773 720 l 1,1,-1
 773 0 l 1,2,-1
 173 0 l 2,3,4
 123 0 123 0 88 35 c 128,-1,5
 53 70 53 70 53 120 c 2,6,-1
 53 720 l 1,7,-1
 134 720 l 1,8,-1
 134 120 l 2,9,10
 134 104 134 104 145.5 92.5 c 128,-1,11
 157 81 157 81 173 81 c 2,12,-1
 692 81 l 1,13,-1
 692 720 l 1,0,-1
EndSplineSet
EndChar

StartChar: W
Encoding: 87 87 69
Width: 1179
Flags: MW
HStem: 0 21G<297 367 297 297 815 886 815 815> 700 20G<35 121 121 121 542 640 640 640 1060 1148 1148 1148>
LayerCount: 2
Fore
SplineSet
1060 720 m 1,0,-1
 1148 720 l 1,1,-1
 886 0 l 1,2,-1
 815 0 l 1,3,-1
 591 615 l 1,4,-1
 367 0 l 1,5,-1
 297 0 l 1,6,-1
 35 720 l 1,7,-1
 121 720 l 1,8,-1
 332 142 l 1,9,-1
 542 720 l 1,10,-1
 640 720 l 1,11,-1
 851 142 l 1,12,-1
 1060 720 l 1,0,-1
EndSplineSet
Substitution2: "'ss02' Style Set 2 in Latin lookup 5 subtable" W.alt2
Substitution2: "'ss01' Style Set 1 in Latin lookup 4 subtable" W.alt
Substitution2: "'salt' Stylistic Alternatives in Latin lookup 2 subtable" W.alt4
AlternateSubs2: "'aalt' Access All Alternates in Latin lookup 1 subtable" W.alt4 W.alt W.alt2
EndChar

StartChar: W.alt
Encoding: 57353 57353 70
Width: 1171
Flags: MW
HStem: 0 21G<49 161 49 49 449 561 449 449> 700 20G<49 131 131 131 665 770 770 770 1065 1171 1171 1171>
VStem: 49 82<93 720 93 720 93 720> 449 82<93 343 343 343>
LayerCount: 2
Fore
SplineSet
1065 720 m 1,0,-1
 1171 720 l 1,1,-1
 561 0 l 1,2,-1
 449 0 l 1,3,-1
 449 343 l 1,4,-1
 161 0 l 1,5,-1
 49 0 l 1,6,-1
 49 720 l 1,7,-1
 131 720 l 1,8,-1
 131 93 l 1,9,-1
 665 720 l 1,10,-1
 770 720 l 1,11,-1
 531 442 l 1,12,-1
 531 93 l 1,13,-1
 1065 720 l 1,0,-1
EndSplineSet
EndChar

StartChar: W.alt2
Encoding: 57352 57352 71
Width: 1168
Flags: MW
HStem: 0 21G<612 612 612 724 1012 1012 1012 1123> 700 20G<0 108 108 108 401 507 507 507 1041 1123 1123 1123>
VStem: 641 83<93 343 0 442> 1041 82<93 720 0 720>
LayerCount: 2
Fore
SplineSet
612 0 m 1,0,-1
 0 720 l 1,1,-1
 108 720 l 1,2,-1
 641 93 l 1,3,-1
 641 442 l 1,4,-1
 401 720 l 1,5,-1
 507 720 l 1,6,-1
 1041 93 l 1,7,-1
 1041 720 l 1,8,-1
 1123 720 l 1,9,-1
 1123 0 l 1,10,-1
 1012 0 l 1,11,-1
 724 343 l 1,12,-1
 724 0 l 1,13,-1
 612 0 l 1,0,-1
EndSplineSet
EndChar

StartChar: W.alt3
Encoding: 65552 -1 72
Width: 1028
Flags: MW
HStem: 0 21G<54 164 54 54 872 872 872 983> 700 20G<54 135 135 135 901 983 983 983>
VStem: 54 81<92 720 92 720 92 720> 901 82<92 720 0 720>
LayerCount: 2
Fore
SplineSet
518 421 m 1,0,-1
 164 0 l 1,1,-1
 54 0 l 1,2,-1
 54 720 l 1,3,-1
 135 720 l 1,4,-1
 135 92 l 1,5,-1
 518 549 l 1,6,-1
 901 92 l 1,7,-1
 901 720 l 1,8,-1
 983 720 l 1,9,-1
 983 0 l 1,10,-1
 872 0 l 1,11,-1
 518 421 l 1,0,-1
EndSplineSet
EndChar

StartChar: W.alt4
Encoding: 65553 -1 73
Width: 1155
Flags: MW
HStem: 0 81<140 556 173 556 676 1034> 700 20G<53 135 135 135 556 638 638 638 1034 1116 1116 1116>
VStem: 53 82<120 720> 556 82<109.5 120 120 720> 1034 82<81 720 0 720>
LayerCount: 2
Fore
SplineSet
173 0 m 2,0,1
 123 0 123 0 88 35 c 128,-1,2
 53 70 53 70 53 120 c 2,3,-1
 53 720 l 1,4,-1
 135 720 l 1,5,-1
 135 120 l 2,6,7
 135 104 135 104 146.5 92.5 c 128,-1,8
 158 81 158 81 173 81 c 2,9,-1
 556 81 l 1,10,-1
 556 720 l 1,11,-1
 638 720 l 1,12,-1
 638 120 l 2,13,14
 638 104 638 104 649 92.5 c 128,-1,15
 660 81 660 81 676 81 c 2,16,-1
 1034 81 l 1,17,-1
 1034 720 l 1,18,-1
 1116 720 l 1,19,-1
 1116 0 l 1,20,-1
 173 0 l 2,0,1
EndSplineSet
EndChar

StartChar: X
Encoding: 88 88 74
Width: 812
Flags: MW
HStem: 0 21G<46 150 46 46 651 756 651 651> 700 20G<46 150 150 150 651 755 755 755>
LayerCount: 2
Fore
SplineSet
651 720 m 1,0,-1
 755 720 l 1,1,-1
 453 360 l 1,2,-1
 756 0 l 1,3,-1
 651 0 l 1,4,-1
 401 297 l 1,5,-1
 150 0 l 1,6,-1
 46 0 l 1,7,-1
 348 360 l 1,8,-1
 46 720 l 1,9,-1
 150 720 l 1,10,-1
 401 423 l 1,11,-1
 651 720 l 1,0,-1
EndSplineSet
Substitution2: "'salt' Stylistic Alternatives in Latin lookup 2 subtable" X.alt
Substitution2: "'aalt' Access All Alternates in Latin lookup 0 subtable" X.alt
EndChar

StartChar: X.alt
Encoding: 65554 -1 75
Width: 829
Flags: MW
HStem: 0 21G<55 136 55 55 693 774 693 693> 316 41<156.5 175 156.5 654> 357 41<156.5 655 174 672> 700 20G<54 135 135 135 694 775 775 775>
VStem: 54 81<457 720> 694 80
LayerCount: 2
Fore
SplineSet
694 720 m 1,0,-1
 775 720 l 1,1,-1
 775 457 l 2,2,3
 775 419 775 419 732.5 388 c 128,-1,4
 690 357 690 357 636 357 c 1,5,6
 690 357 690 357 732 326 c 128,-1,7
 774 295 774 295 774 257 c 2,8,-1
 774 0 l 1,9,-1
 693 0 l 1,10,-1
 693 278 l 2,11,12
 693 293 693 293 681.5 304.5 c 128,-1,13
 670 316 670 316 654 316 c 2,14,-1
 175 316 l 2,15,16
 159 316 159 316 147.5 304.5 c 128,-1,17
 136 293 136 293 136 278 c 2,18,-1
 136 0 l 1,19,-1
 55 0 l 1,20,-1
 55 257 l 2,21,22
 55 296 55 296 97 326.5 c 128,-1,23
 139 357 139 357 193 357 c 1,24,25
 139 357 139 357 96.5 387.5 c 128,-1,26
 54 418 54 418 54 457 c 2,27,-1
 54 720 l 1,28,-1
 135 720 l 1,29,-1
 135 436 l 2,30,31
 135 420 135 420 146.5 409 c 128,-1,32
 158 398 158 398 174 398 c 2,33,-1
 655 398 l 2,34,35
 671 398 671 398 682.5 409 c 128,-1,36
 694 420 694 420 694 436 c 2,37,-1
 694 720 l 1,0,-1
EndSplineSet
EndChar

StartChar: Y
Encoding: 89 89 76
Width: 806
Flags: MW
HStem: 0 21G<348 429 348 348> 700 20G<17 110 110 110 665 760 760 760>
VStem: 348 81<0 271 0 271>
LayerCount: 2
Fore
SplineSet
665 720 m 1,0,-1
 760 720 l 1,1,-1
 429 271 l 1,2,-1
 429 0 l 1,3,-1
 348 0 l 1,4,-1
 348 271 l 1,5,-1
 17 720 l 1,6,-1
 110 720 l 1,7,-1
 389 368 l 1,8,-1
 665 720 l 1,0,-1
EndSplineSet
Substitution2: "'salt' Stylistic Alternatives in Latin lookup 2 subtable" Y.alt
Substitution2: "'aalt' Access All Alternates in Latin lookup 0 subtable" Y.alt
EndChar

StartChar: Y.alt
Encoding: 65555 -1 77
Width: 824
Flags: MW
HStem: 0 81<51 651 51 651> 319 82<137.5 690 171 651> 700 20G<51 132 132 132 690 771 771 771>
VStem: 51 81<439 720> 690 81<120 281 281 291.5 401 720>
LayerCount: 2
Fore
SplineSet
690 720 m 1,0,-1
 771 720 l 1,1,-1
 771 120 l 2,2,3
 771 70 771 70 736 35 c 128,-1,4
 701 0 701 0 651 0 c 2,5,-1
 51 0 l 1,6,-1
 51 81 l 1,7,-1
 651 81 l 2,8,9
 667 81 667 81 678.5 92.5 c 128,-1,10
 690 104 690 104 690 120 c 2,11,-1
 690 281 l 2,12,13
 690 297 690 297 678.5 308 c 128,-1,14
 667 319 667 319 651 319 c 2,15,-1
 171 319 l 2,16,17
 121 319 121 319 86 354 c 128,-1,18
 51 389 51 389 51 439 c 2,19,-1
 51 720 l 1,20,-1
 132 720 l 1,21,-1
 132 439 l 2,22,23
 132 423 132 423 143.5 412 c 128,-1,24
 155 401 155 401 171 401 c 2,25,-1
 690 401 l 1,26,-1
 690 720 l 1,0,-1
EndSplineSet
EndChar

StartChar: Yacute
Encoding: 221 221 78
Width: 806
Flags: MW
HStem: 0 21G<348 429 348 348> 700 20G<17 110 110 110 665 760 760 760> 865 139<329 443 364 409>
VStem: 348 81<0 271 0 271>
LayerCount: 2
Fore
SplineSet
665 720 m 1,0,-1
 760 720 l 1,1,-1
 429 271 l 1,2,-1
 429 0 l 1,3,-1
 348 0 l 1,4,-1
 348 271 l 1,5,-1
 17 720 l 1,6,-1
 110 720 l 1,7,-1
 389 368 l 1,8,-1
 665 720 l 1,0,-1
329 865 m 1,9,-1
 364 1004 l 1,10,-1
 443 1004 l 1,11,-1
 409 865 l 1,12,-1
 329 865 l 1,9,-1
EndSplineSet
EndChar

StartChar: Ydieresis
Encoding: 376 376 79
Width: 806
Flags: MW
HStem: 0 21G<348 429 348 348> 700 20G<17 110 110 110 665 760 760 760> 865 82<264 347 264 347 444 526>
VStem: 264 83<865 947 865 947> 348 81<0 271 0 271> 444 82<865 947 865 947>
LayerCount: 2
Fore
SplineSet
665 720 m 1,0,-1
 760 720 l 1,1,-1
 429 271 l 1,2,-1
 429 0 l 1,3,-1
 348 0 l 1,4,-1
 348 271 l 1,5,-1
 17 720 l 1,6,-1
 110 720 l 1,7,-1
 389 368 l 1,8,-1
 665 720 l 1,0,-1
526 947 m 1,9,-1
 526 865 l 1,10,-1
 444 865 l 1,11,-1
 444 947 l 1,12,-1
 526 947 l 1,9,-1
347 947 m 1,13,-1
 347 865 l 1,14,-1
 264 865 l 1,15,-1
 264 947 l 1,16,-1
 347 947 l 1,13,-1
EndSplineSet
EndChar

StartChar: Z
Encoding: 90 90 80
Width: 821
Flags: MW
HStem: 0 81<143 771 143 771> 639 81<51 771 51 679>
LayerCount: 2
Fore
SplineSet
51 639 m 1,0,-1
 51 720 l 1,1,-1
 771 720 l 1,2,-1
 771 609 l 1,3,-1
 143 81 l 1,4,-1
 771 81 l 1,5,-1
 771 0 l 1,6,-1
 51 0 l 1,7,-1
 51 111 l 1,8,-1
 679 639 l 1,9,-1
 51 639 l 1,0,-1
EndSplineSet
Substitution2: "'salt' Stylistic Alternatives in Latin lookup 2 subtable" Z.alt
Substitution2: "'aalt' Access All Alternates in Latin lookup 0 subtable" Z.alt
EndChar

StartChar: Z.alt
Encoding: 65556 -1 81
Width: 818
Flags: MW
HStem: 0 81<135.5 769 169 769> 319 82<158.5 649 169 649> 639 81<49 649 49 649>
VStem: 49 81<120 281> 687 82<439 600>
CounterMasks: 1 e0
LayerCount: 2
Fore
SplineSet
169 401 m 2,0,-1
 649 401 l 2,1,2
 665 401 665 401 676 412 c 128,-1,3
 687 423 687 423 687 439 c 2,4,-1
 687 600 l 2,5,6
 687 616 687 616 676 627.5 c 128,-1,7
 665 639 665 639 649 639 c 2,8,-1
 49 639 l 1,9,-1
 49 720 l 1,10,-1
 649 720 l 2,11,12
 699 720 699 720 734 685 c 128,-1,13
 769 650 769 650 769 600 c 2,14,-1
 769 439 l 2,15,16
 769 389 769 389 734 354 c 128,-1,17
 699 319 699 319 649 319 c 2,18,-1
 169 319 l 2,19,20
 153 319 153 319 141.5 308 c 128,-1,21
 130 297 130 297 130 281 c 2,22,-1
 130 120 l 2,23,24
 130 104 130 104 141.5 92.5 c 128,-1,25
 153 81 153 81 169 81 c 2,26,-1
 769 81 l 1,27,-1
 769 0 l 1,28,-1
 169 0 l 2,29,30
 119 0 119 0 84 35 c 128,-1,31
 49 70 49 70 49 120 c 2,32,-1
 49 281 l 2,33,34
 49 331 49 331 84 366 c 128,-1,35
 119 401 119 401 169 401 c 2,0,-1
EndSplineSet
EndChar

StartChar: Zcaron
Encoding: 381 381 82
Width: 821
Flags: MW
HStem: 0 81<143 771 143 771> 639 81<51 771 51 679> 864 21G<360 419 360 360> 961 20G<288 330 330 330 448 489 489 489>
LayerCount: 2
Fore
SplineSet
51 639 m 1,0,-1
 51 720 l 1,1,-1
 771 720 l 1,2,-1
 771 609 l 1,3,-1
 143 81 l 1,4,-1
 771 81 l 1,5,-1
 771 0 l 1,6,-1
 51 0 l 1,7,-1
 51 111 l 1,8,-1
 679 639 l 1,9,-1
 51 639 l 1,0,-1
288 981 m 1,10,-1
 330 981 l 1,11,-1
 390 896 l 1,12,-1
 448 981 l 1,13,-1
 489 981 l 1,14,-1
 419 864 l 1,15,-1
 360 864 l 1,16,-1
 288 981 l 1,10,-1
EndSplineSet
EndChar

StartChar: a
Encoding: 97 97 83
Width: 694
Flags: MW
HStem: 0 82<139.5 560 173 560 173 643> 249 82<134 560 134 134> 498 82<52 521 52 521>
VStem: 52 82<121 249> 560 83<82 249 249 249 331 459 0 469.5>
CounterMasks: 1 e0
LayerCount: 2
Fore
SplineSet
521 580 m 2,0,1
 572 580 572 580 607.5 544.5 c 128,-1,2
 643 509 643 509 643 459 c 2,3,-1
 643 0 l 1,4,-1
 173 0 l 2,5,6
 123 0 123 0 87.5 35.5 c 128,-1,7
 52 71 52 71 52 121 c 2,8,-1
 52 331 l 1,9,-1
 560 331 l 1,10,-1
 560 459 l 2,11,12
 560 475 560 475 548.5 486.5 c 128,-1,13
 537 498 537 498 521 498 c 2,14,-1
 52 498 l 1,15,-1
 52 580 l 1,16,-1
 521 580 l 2,0,1
560 82 m 1,17,-1
 560 249 l 1,18,-1
 134 249 l 1,19,-1
 134 121 l 2,20,21
 134 105 134 105 145.5 93.5 c 128,-1,22
 157 82 157 82 173 82 c 2,23,-1
 560 82 l 1,17,-1
EndSplineSet
Substitution2: "'smcp' Lowercase to Small Capitals in Latin lookup 3 subtable" a.sc
Substitution2: "'salt' Stylistic Alternatives in Latin lookup 2 subtable" a.alt
AlternateSubs2: "'aalt' Access All Alternates in Latin lookup 1 subtable" a.sc a.alt
EndChar

StartChar: a.alt
Encoding: 65557 -1 84
Width: 693
Flags: MW
HStem: 0 82<138.5 559 172 559 172 642> 498 82<161.5 520 172 520>
VStem: 51 82<121 459> 559 83<82 459 0 469.5>
LayerCount: 2
Fore
SplineSet
520 580 m 2,0,1
 571 580 571 580 606.5 544.5 c 128,-1,2
 642 509 642 509 642 459 c 2,3,-1
 642 0 l 1,4,-1
 172 0 l 2,5,6
 122 0 122 0 86.5 35.5 c 128,-1,7
 51 71 51 71 51 121 c 2,8,-1
 51 459 l 2,9,10
 51 509 51 509 86.5 544.5 c 128,-1,11
 122 580 122 580 172 580 c 2,12,-1
 520 580 l 2,0,1
172 82 m 2,13,-1
 559 82 l 1,14,-1
 559 459 l 2,15,16
 559 475 559 475 547.5 486.5 c 128,-1,17
 536 498 536 498 520 498 c 2,18,-1
 172 498 l 2,19,20
 156 498 156 498 144.5 486.5 c 128,-1,21
 133 475 133 475 133 459 c 2,22,-1
 133 121 l 2,23,24
 133 105 133 105 144.5 93.5 c 128,-1,25
 156 82 156 82 172 82 c 2,13,-1
EndSplineSet
EndChar

StartChar: a.sc
Encoding: 65558 -1 85
Width: 725
Flags: MW
HStem: 0 21G<53 135 53 53 593 675 593 593> 160 83<135 593 135 593> 498 82<163.5 554 174 554>
VStem: 53 82<0 160 243 459> 593 82<0 160 160 160 243 459 0 469.5>
LayerCount: 2
Fore
SplineSet
174 580 m 2,0,-1
 554 580 l 2,1,2
 604 580 604 580 639.5 544.5 c 128,-1,3
 675 509 675 509 675 459 c 2,4,-1
 675 0 l 1,5,-1
 593 0 l 1,6,-1
 593 160 l 1,7,-1
 135 160 l 1,8,-1
 135 0 l 1,9,-1
 53 0 l 1,10,-1
 53 459 l 2,11,12
 53 509 53 509 88.5 544.5 c 128,-1,13
 124 580 124 580 174 580 c 2,0,-1
135 243 m 1,14,-1
 593 243 l 1,15,-1
 593 459 l 2,16,17
 593 475 593 475 581.5 486.5 c 128,-1,18
 570 498 570 498 554 498 c 2,19,-1
 174 498 l 2,20,21
 158 498 158 498 146.5 486.5 c 128,-1,22
 135 475 135 475 135 459 c 2,23,-1
 135 243 l 1,14,-1
EndSplineSet
EndChar

StartChar: aacute
Encoding: 225 225 86
Width: 725
Flags: MW
HStem: 0 82<139.5 560 173 560 173 643> 249 82<134 560 134 134> 498 82<52 521 52 521> 763 139<288 402 323 368>
VStem: 52 82<121 249> 560 83<82 249 249 249 331 459 0 469.5>
LayerCount: 2
Fore
SplineSet
521 580 m 2,0,1
 572 580 572 580 607.5 544.5 c 128,-1,2
 643 509 643 509 643 459 c 2,3,-1
 643 0 l 1,4,-1
 173 0 l 2,5,6
 123 0 123 0 87.5 35.5 c 128,-1,7
 52 71 52 71 52 121 c 2,8,-1
 52 331 l 1,9,-1
 560 331 l 1,10,-1
 560 459 l 2,11,12
 560 475 560 475 548.5 486.5 c 128,-1,13
 537 498 537 498 521 498 c 2,14,-1
 52 498 l 1,15,-1
 52 580 l 1,16,-1
 521 580 l 2,0,1
560 82 m 1,17,-1
 560 249 l 1,18,-1
 134 249 l 1,19,-1
 134 121 l 2,20,21
 134 105 134 105 145.5 93.5 c 128,-1,22
 157 82 157 82 173 82 c 2,23,-1
 560 82 l 1,17,-1
288 763 m 1,24,-1
 323 902 l 1,25,-1
 402 902 l 1,26,-1
 368 763 l 1,27,-1
 288 763 l 1,24,-1
EndSplineSet
EndChar

StartChar: acircumflex
Encoding: 226 226 87
Width: 725
Flags: MW
HStem: 0 82<139.5 560 173 560 173 643> 249 82<134 560 134 134> 498 82<52 521 52 521> 763 21G<240 281 240 240 399 399 399 441> 860 20G<311 370 370 370>
VStem: 52 82<121 249> 560 83<82 249 249 249 331 459 0 469.5>
LayerCount: 2
Fore
SplineSet
521 580 m 2,0,1
 572 580 572 580 607.5 544.5 c 128,-1,2
 643 509 643 509 643 459 c 2,3,-1
 643 0 l 1,4,-1
 173 0 l 2,5,6
 123 0 123 0 87.5 35.5 c 128,-1,7
 52 71 52 71 52 121 c 2,8,-1
 52 331 l 1,9,-1
 560 331 l 1,10,-1
 560 459 l 2,11,12
 560 475 560 475 548.5 486.5 c 128,-1,13
 537 498 537 498 521 498 c 2,14,-1
 52 498 l 1,15,-1
 52 580 l 1,16,-1
 521 580 l 2,0,1
560 82 m 1,17,-1
 560 249 l 1,18,-1
 134 249 l 1,19,-1
 134 121 l 2,20,21
 134 105 134 105 145.5 93.5 c 128,-1,22
 157 82 157 82 173 82 c 2,23,-1
 560 82 l 1,17,-1
281 763 m 1,24,-1
 240 763 l 1,25,-1
 311 880 l 1,26,-1
 370 880 l 1,27,-1
 441 763 l 1,28,-1
 399 763 l 1,29,-1
 341 848 l 1,30,-1
 281 763 l 1,24,-1
EndSplineSet
EndChar

StartChar: acute
Encoding: 180 180 88
Width: 213
Flags: MW
HStem: 872 139<33 147 68 113>
LayerCount: 2
Fore
SplineSet
33 872 m 1,0,-1
 68 1011 l 1,1,-1
 147 1011 l 1,2,-1
 113 872 l 1,3,-1
 33 872 l 1,0,-1
EndSplineSet
EndChar

StartChar: adieresis
Encoding: 228 228 89
Width: 725
Flags: MW
HStem: 0 82<139.5 560 173 560 173 643> 249 82<134 560 134 134> 498 82<52 521 52 521> 763 82<223 306 223 306 403 485>
VStem: 52 82<121 249> 223 83<763 845 763 845> 403 82<763 845 763 845> 560 83<82 249 249 249 331 459 0 469.5>
LayerCount: 2
Fore
SplineSet
521 580 m 2,0,1
 572 580 572 580 607.5 544.5 c 128,-1,2
 643 509 643 509 643 459 c 2,3,-1
 643 0 l 1,4,-1
 173 0 l 2,5,6
 123 0 123 0 87.5 35.5 c 128,-1,7
 52 71 52 71 52 121 c 2,8,-1
 52 331 l 1,9,-1
 560 331 l 1,10,-1
 560 459 l 2,11,12
 560 475 560 475 548.5 486.5 c 128,-1,13
 537 498 537 498 521 498 c 2,14,-1
 52 498 l 1,15,-1
 52 580 l 1,16,-1
 521 580 l 2,0,1
560 82 m 1,17,-1
 560 249 l 1,18,-1
 134 249 l 1,19,-1
 134 121 l 2,20,21
 134 105 134 105 145.5 93.5 c 128,-1,22
 157 82 157 82 173 82 c 2,23,-1
 560 82 l 1,17,-1
485 845 m 1,24,-1
 485 763 l 1,25,-1
 403 763 l 1,26,-1
 403 845 l 1,27,-1
 485 845 l 1,24,-1
306 845 m 1,28,-1
 306 763 l 1,29,-1
 223 763 l 1,30,-1
 223 845 l 1,31,-1
 306 845 l 1,28,-1
EndSplineSet
EndChar

StartChar: ae
Encoding: 230 230 90
Width: 1178
Flags: MW
HStem: 0 82<140 561 174 561 682 1151> 249 82<135 561 135 135 643 1069> 498 82<53 522 53 1030 671.5 682 682 1030>
VStem: 53 82<121 249> 561 82<117 249 117 249 117 249 331 459> 1069 82<331 459>
CounterMasks: 1 fc
LayerCount: 2
Fore
SplineSet
1030 580 m 2,0,1
 1081 580 1081 580 1116 544.5 c 128,-1,2
 1151 509 1151 509 1151 459 c 2,3,-1
 1151 249 l 1,4,-1
 643 249 l 1,5,-1
 643 117 l 1,6,7
 644 102 644 102 655.5 92 c 128,-1,8
 667 82 667 82 682 82 c 2,9,-1
 1151 82 l 1,10,-1
 1151 0 l 1,11,-1
 174 0 l 2,12,13
 123 0 123 0 88 35.5 c 128,-1,14
 53 71 53 71 53 121 c 2,15,-1
 53 331 l 1,16,-1
 561 331 l 1,17,-1
 561 459 l 2,18,19
 561 475 561 475 549.5 486.5 c 128,-1,20
 538 498 538 498 522 498 c 2,21,-1
 53 498 l 1,22,-1
 53 580 l 1,23,-1
 1030 580 l 2,0,1
561 82 m 1,24,-1
 561 249 l 1,25,-1
 135 249 l 1,26,-1
 135 121 l 2,27,28
 135 105 135 105 146.5 93.5 c 128,-1,29
 158 82 158 82 174 82 c 2,30,-1
 561 82 l 1,24,-1
643 331 m 1,31,-1
 1069 331 l 1,32,-1
 1069 459 l 2,33,34
 1069 475 1069 475 1057.5 486.5 c 128,-1,35
 1046 498 1046 498 1030 498 c 2,36,-1
 682 498 l 2,37,38
 666 498 666 498 654.5 486.5 c 128,-1,39
 643 475 643 475 643 459 c 2,40,-1
 643 331 l 1,31,-1
EndSplineSet
EndChar

StartChar: agrave
Encoding: 224 224 91
Width: 725
Flags: MW
HStem: 0 82<139.5 560 173 560 173 643> 249 82<134 560 134 134> 498 82<52 521 52 521> 763 139<323 369 288 403 323 323>
VStem: 52 82<121 249> 560 83<82 249 249 249 331 459 0 469.5>
LayerCount: 2
Fore
SplineSet
521 580 m 2,0,1
 572 580 572 580 607.5 544.5 c 128,-1,2
 643 509 643 509 643 459 c 2,3,-1
 643 0 l 1,4,-1
 173 0 l 2,5,6
 123 0 123 0 87.5 35.5 c 128,-1,7
 52 71 52 71 52 121 c 2,8,-1
 52 331 l 1,9,-1
 560 331 l 1,10,-1
 560 459 l 2,11,12
 560 475 560 475 548.5 486.5 c 128,-1,13
 537 498 537 498 521 498 c 2,14,-1
 52 498 l 1,15,-1
 52 580 l 1,16,-1
 521 580 l 2,0,1
560 82 m 1,17,-1
 560 249 l 1,18,-1
 134 249 l 1,19,-1
 134 121 l 2,20,21
 134 105 134 105 145.5 93.5 c 128,-1,22
 157 82 157 82 173 82 c 2,23,-1
 560 82 l 1,17,-1
369 902 m 1,24,-1
 403 763 l 1,25,-1
 323 763 l 1,26,-1
 288 902 l 1,27,-1
 369 902 l 1,24,-1
EndSplineSet
EndChar

StartChar: ampersand
Encoding: 38 38 92
Width: 938
Flags: MW
HStem: 0 82<140.5 659 174 659> 562 157<216 749 216 666> 635 84<205.5 627 216 627>
VStem: 53 82<121 336> 95 82<497 596 457 597 457 631> 698 82<194 333>
LayerCount: 2
Fore
SplineSet
780 167 m 1,0,-1
 914 88 l 1,1,-1
 914 16 l 1,2,-1
 777 93 l 1,3,4
 760 51 760 51 728.5 25.5 c 128,-1,5
 697 0 697 0 659 0 c 2,6,-1
 174 0 l 2,7,8
 124 0 124 0 88.5 35.5 c 128,-1,9
 53 71 53 71 53 121 c 2,10,-1
 53 336 l 2,11,12
 53 358 53 358 80 379.5 c 128,-1,13
 107 401 107 401 152 401 c 1,14,15
 95 444 95 444 95 497 c 2,16,-1
 95 597 l 2,17,18
 95 648 95 648 130.5 683.5 c 128,-1,19
 166 719 166 719 216 719 c 2,20,-1
 627 719 l 2,21,22
 668 719 668 719 702.5 688.5 c 128,-1,23
 737 658 737 658 749 617 c 1,24,-1
 749 562 l 1,25,-1
 666 562 l 1,26,-1
 666 596 l 2,27,28
 666 612 666 612 654.5 623.5 c 128,-1,29
 643 635 643 635 627 635 c 2,30,-1
 216 635 l 2,31,32
 200 635 200 635 188.5 623.5 c 128,-1,33
 177 612 177 612 177 596 c 2,34,-1
 177 457 l 1,35,-1
 698 194 l 1,36,-1
 698 333 l 1,37,-1
 780 333 l 1,38,-1
 780 167 l 1,0,-1
174 82 m 2,39,-1
 659 82 l 2,40,41
 670 82 670 82 681 92 c 128,-1,42
 692 102 692 102 699 118 c 1,43,-1
 189 375 l 1,44,-1
 174 375 l 2,45,46
 158 375 158 375 146.5 363.5 c 128,-1,47
 135 352 135 352 135 336 c 2,48,-1
 135 121 l 2,49,50
 135 105 135 105 146.5 93.5 c 128,-1,51
 158 82 158 82 174 82 c 2,39,-1
EndSplineSet
EndChar

StartChar: aring
Encoding: 229 229 93
Width: 725
Flags: MW
HStem: 0 82<139.5 560 173 560 173 643> 249 82<134 560 134 134> 498 82<52 521 52 521> 718 40<329 334 334 390> 838 40<326.5 390 334 390 390 395>
VStem: 52 82<121 249> 280 40<771 825 825 828> 404 40<768 771 771 825> 560 83<82 249 249 249 331 459 0 469.5>
LayerCount: 2
Fore
SplineSet
521 580 m 2,0,1
 572 580 572 580 607.5 544.5 c 128,-1,2
 643 509 643 509 643 459 c 2,3,-1
 643 0 l 1,4,-1
 173 0 l 2,5,6
 123 0 123 0 87.5 35.5 c 128,-1,7
 52 71 52 71 52 121 c 2,8,-1
 52 331 l 1,9,-1
 560 331 l 1,10,-1
 560 459 l 2,11,12
 560 475 560 475 548.5 486.5 c 128,-1,13
 537 498 537 498 521 498 c 2,14,-1
 52 498 l 1,15,-1
 52 580 l 1,16,-1
 521 580 l 2,0,1
560 82 m 1,17,-1
 560 249 l 1,18,-1
 134 249 l 1,19,-1
 134 121 l 2,20,21
 134 105 134 105 145.5 93.5 c 128,-1,22
 157 82 157 82 173 82 c 2,23,-1
 560 82 l 1,17,-1
334 878 m 2,24,-1
 390 878 l 2,25,26
 412 878 412 878 428 862.5 c 128,-1,27
 444 847 444 847 444 825 c 2,28,-1
 444 771 l 2,29,30
 444 749 444 749 428 733.5 c 128,-1,31
 412 718 412 718 390 718 c 2,32,-1
 334 718 l 2,33,34
 312 718 312 718 296 733.5 c 128,-1,35
 280 749 280 749 280 771 c 2,36,-1
 280 825 l 2,37,38
 280 847 280 847 296 862.5 c 128,-1,39
 312 878 312 878 334 878 c 2,24,-1
329 758 m 2,40,-1
 395 758 l 2,41,42
 404 758 404 758 404 768 c 2,43,-1
 404 828 l 2,44,45
 404 838 404 838 395 838 c 2,46,-1
 329 838 l 2,47,48
 320 838 320 838 320 828 c 2,49,-1
 320 768 l 2,50,51
 320 758 320 758 329 758 c 2,40,-1
EndSplineSet
EndChar

StartChar: asciitilde
Encoding: 126 126 94
Width: 404
Flags: MW
HStem: 245 109 316 38<78 124 74 126.5>
LayerCount: 2
Fore
SplineSet
295 283 m 1,0,-1
 297 283 l 2,1,2
 329 283 329 283 363 299 c 1,3,-1
 363 258 l 1,4,5
 328 245 328 245 297 245 c 0,6,7
 262 245 262 245 195 280.5 c 128,-1,8
 128 316 128 316 86 316 c 0,9,10
 47 316 47 316 24 308 c 1,11,-1
 24 345 l 1,12,13
 51 354 51 354 86 354 c 0,14,15
 126 354 126 354 193 320.5 c 128,-1,16
 260 287 260 287 295 283 c 1,0,-1
EndSplineSet
EndChar

StartChar: asterisk
Encoding: 42 42 95
Width: 491
Flags: MW
HStem: 315 21G<147 147 328 328> 699 20G<196 278 278 278>
VStem: 196 82<566 719 566 719 566 719>
LayerCount: 2
Fore
SplineSet
423 614 m 1,0,-1
 450 535 l 1,1,-1
 304 488 l 1,2,-1
 394 363 l 1,3,4
 382 354 382 354 361.5 339 c 128,-1,5
 341 324 341 324 328 315 c 1,6,-1
 237 438 l 1,7,-1
 147 315 l 1,8,9
 132 326 132 326 111 340.5 c 128,-1,10
 90 355 90 355 80 362 c 1,11,-1
 170 488 l 1,12,-1
 25 535 l 1,13,-1
 49 614 l 1,14,-1
 196 565 l 1,15,-1
 196 719 l 1,16,-1
 278 719 l 1,17,-1
 278 566 l 1,18,-1
 423 614 l 1,0,-1
EndSplineSet
EndChar

StartChar: at
Encoding: 64 64 96
Width: 831
Flags: MW
HStem: 0 82<144 784 178 784> 192 62<352 373 373 528 589 702> 458 61<341.5 468 373 468 468 489> 637 83<167.5 663 178 663>
VStem: 57 82<121 598> 252 61<314 398 398 419> 528 61<254 398 254 419 254 429.5> 702 82<254 598>
LayerCount: 2
Fore
SplineSet
373 519 m 2,0,-1
 468 519 l 2,1,2
 518 519 518 519 553.5 483.5 c 128,-1,3
 589 448 589 448 589 398 c 2,4,-1
 589 254 l 1,5,-1
 702 254 l 1,6,-1
 702 598 l 2,7,8
 702 614 702 614 690.5 625.5 c 128,-1,9
 679 637 679 637 663 637 c 2,10,-1
 178 637 l 2,11,12
 162 637 162 637 150.5 625.5 c 128,-1,13
 139 614 139 614 139 598 c 2,14,-1
 139 121 l 2,15,16
 139 105 139 105 150.5 93.5 c 128,-1,17
 162 82 162 82 178 82 c 2,18,-1
 784 82 l 1,19,-1
 784 0 l 1,20,-1
 178 0 l 2,21,22
 127 0 127 0 92 35.5 c 128,-1,23
 57 71 57 71 57 121 c 2,24,-1
 57 598 l 2,25,26
 57 649 57 649 92 684.5 c 128,-1,27
 127 720 127 720 178 720 c 2,28,-1
 663 720 l 2,29,30
 713 720 713 720 748.5 684.5 c 128,-1,31
 784 649 784 649 784 598 c 2,32,-1
 784 192 l 1,33,-1
 373 192 l 2,34,35
 322 192 322 192 287 227.5 c 128,-1,36
 252 263 252 263 252 314 c 2,37,-1
 252 398 l 2,38,39
 252 448 252 448 287 483.5 c 128,-1,40
 322 519 322 519 373 519 c 2,0,-1
352 254 m 2,41,-1
 528 254 l 1,42,-1
 528 419 l 2,43,44
 528 435 528 435 516.5 446.5 c 128,-1,45
 505 458 505 458 489 458 c 2,46,-1
 352 458 l 2,47,48
 336 458 336 458 324.5 446.5 c 128,-1,49
 313 435 313 435 313 419 c 2,50,-1
 313 293 l 2,51,52
 313 277 313 277 324.5 265.5 c 128,-1,53
 336 254 336 254 352 254 c 2,41,-1
EndSplineSet
EndChar

StartChar: atilde
Encoding: 227 227 97
Width: 725
Flags: MW
HStem: 0 82<139.5 560 173 560 173 643> 249 82<134 560 134 134> 498 82<52 521 52 521> 766 120 838 48<240 285.5 236 289>
VStem: 52 82<121 249> 560 83<82 249 249 249 331 459 0 469.5>
LayerCount: 2
Fore
SplineSet
521 580 m 2,0,1
 572 580 572 580 607.5 544.5 c 128,-1,2
 643 509 643 509 643 459 c 2,3,-1
 643 0 l 1,4,-1
 173 0 l 2,5,6
 123 0 123 0 87.5 35.5 c 128,-1,7
 52 71 52 71 52 121 c 2,8,-1
 52 331 l 1,9,-1
 560 331 l 1,10,-1
 560 459 l 2,11,12
 560 475 560 475 548.5 486.5 c 128,-1,13
 537 498 537 498 521 498 c 2,14,-1
 52 498 l 1,15,-1
 52 580 l 1,16,-1
 521 580 l 2,0,1
560 82 m 1,17,-1
 560 249 l 1,18,-1
 134 249 l 1,19,-1
 134 121 l 2,20,21
 134 105 134 105 145.5 93.5 c 128,-1,22
 157 82 157 82 173 82 c 2,23,-1
 560 82 l 1,17,-1
457 814 m 1,24,-1
 459 814 l 2,25,26
 489 814 489 814 525 831 c 1,27,-1
 525 780 l 1,28,29
 487 766 487 766 459 766 c 0,30,31
 424 766 424 766 357 802 c 128,-1,32
 290 838 290 838 248 838 c 0,33,34
 209 838 209 838 186 830 c 1,35,-1
 186 877 l 1,36,37
 213 886 213 886 248 886 c 0,38,39
 288 886 288 886 355 852.5 c 128,-1,40
 422 819 422 819 457 814 c 1,24,-1
EndSplineSet
EndChar

StartChar: b
Encoding: 98 98 98
Width: 667
Flags: MW
HStem: 0 82<176 524 176 524> 498 82<165 176 176 524> 750 20G<54 136 136 136>
VStem: 54 82<110.5 121 121 459 580 770> 563 82<121 459>
LayerCount: 2
Fore
SplineSet
524 580 m 2,0,1
 574 580 574 580 609.5 544.5 c 128,-1,2
 645 509 645 509 645 459 c 2,3,-1
 645 121 l 2,4,5
 645 71 645 71 609.5 35.5 c 128,-1,6
 574 0 574 0 524 0 c 2,7,-1
 54 0 l 1,8,-1
 54 770 l 1,9,-1
 136 770 l 1,10,-1
 136 580 l 1,11,-1
 524 580 l 2,0,1
563 121 m 2,12,-1
 563 459 l 2,13,14
 563 475 563 475 551.5 486.5 c 128,-1,15
 540 498 540 498 524 498 c 2,16,-1
 176 498 l 2,17,18
 160 498 160 498 148 486.5 c 128,-1,19
 136 475 136 475 136 459 c 2,20,-1
 136 121 l 2,21,22
 136 105 136 105 148 93.5 c 128,-1,23
 160 82 160 82 176 82 c 2,24,-1
 524 82 l 2,25,26
 540 82 540 82 551.5 93.5 c 128,-1,27
 563 105 563 105 563 121 c 2,12,-1
EndSplineSet
Substitution2: "'smcp' Lowercase to Small Capitals in Latin lookup 3 subtable" b.sc
Substitution2: "'aalt' Access All Alternates in Latin lookup 0 subtable" b.sc
EndChar

StartChar: b.sc
Encoding: 65559 -1 99
Width: 700
Flags: MW
HStem: 0 82<175 534 175 534> 246 82<164.5 502 175 502 502 512.5 175 534> 499 82<164.5 175 175 502>
VStem: 54 82<110.5 121 121 207 356.5 367 367 460> 541 83<367 460> 573 82<121 207>
LayerCount: 2
Fore
SplineSet
611 314 m 1,0,-1
 615 296 l 1,1,2
 655 259 655 259 655 207 c 2,3,-1
 655 121 l 2,4,5
 655 71 655 71 619.5 35.5 c 128,-1,6
 584 0 584 0 534 0 c 2,7,-1
 54 0 l 1,8,-1
 54 581 l 1,9,-1
 502 581 l 2,10,11
 553 581 553 581 588.5 545.5 c 128,-1,12
 624 510 624 510 624 460 c 2,13,-1
 624 367 l 2,14,15
 624 344 624 344 611 314 c 1,0,-1
502 499 m 2,16,-1
 175 499 l 2,17,18
 159 499 159 499 147.5 487.5 c 128,-1,19
 136 476 136 476 136 460 c 2,20,-1
 136 367 l 2,21,22
 136 351 136 351 147.5 339.5 c 128,-1,23
 159 328 159 328 175 328 c 2,24,-1
 502 328 l 2,25,26
 518 328 518 328 529.5 339.5 c 128,-1,27
 541 351 541 351 541 367 c 2,28,-1
 541 460 l 2,29,30
 541 476 541 476 529.5 487.5 c 128,-1,31
 518 499 518 499 502 499 c 2,16,-1
573 121 m 2,32,-1
 573 207 l 2,33,34
 573 223 573 223 561.5 234.5 c 128,-1,35
 550 246 550 246 534 246 c 2,36,-1
 175 246 l 2,37,38
 159 246 159 246 147.5 234.5 c 128,-1,39
 136 223 136 223 136 207 c 2,40,-1
 136 121 l 2,41,42
 136 105 136 105 147.5 93.5 c 128,-1,43
 159 82 159 82 175 82 c 2,44,-1
 534 82 l 2,45,46
 550 82 550 82 561.5 93.5 c 128,-1,47
 573 105 573 105 573 121 c 2,32,-1
EndSplineSet
EndChar

StartChar: backslash
Encoding: 92 92 100
Width: 520
Flags: MW
HStem: 1 21G<511 511> 705 20G<5 5>
LayerCount: 2
Fore
SplineSet
511 107 m 1,0,-1
 511 1 l 1,1,-1
 5 621 l 1,2,-1
 5 725 l 1,3,-1
 511 107 l 1,0,-1
EndSplineSet
EndChar

StartChar: bar
Encoding: 124 124 101
Width: 214
Flags: MW
HStem: -115 21G<54 54 54 136> 822 20G<54 136 136 136>
VStem: 54 82<-115 842 -115 842>
LayerCount: 2
Fore
SplineSet
54 -115 m 1,0,-1
 54 842 l 1,1,-1
 136 842 l 1,2,-1
 136 -115 l 1,3,-1
 54 -115 l 1,0,-1
EndSplineSet
EndChar

StartChar: braceleft
Encoding: 123 123 102
Width: 289
Flags: MW
HStem: 0 21G<157.5 191 191 220> 700 20G<191 220 220 220>
VStem: 70 82<121 284 284 284 434 598> 70 150<0 284>
LayerCount: 2
Fore
SplineSet
152 291 m 1,0,-1
 152 121 l 2,1,2
 152 105 152 105 163.5 93.5 c 128,-1,3
 175 82 175 82 191 82 c 2,4,-1
 220 82 l 1,5,-1
 220 0 l 1,6,-1
 191 0 l 2,7,8
 141 0 141 0 105.5 35.5 c 128,-1,9
 70 71 70 71 70 121 c 2,10,-1
 70 284 l 1,11,12
 64 288 64 288 47 298.5 c 128,-1,13
 30 309 30 309 23 313 c 1,14,-1
 23 409 l 1,15,-1
 70 434 l 1,16,-1
 70 598 l 2,17,18
 70 649 70 649 105.5 684.5 c 128,-1,19
 141 720 141 720 191 720 c 2,20,-1
 220 720 l 1,21,-1
 220 637 l 1,22,-1
 191 637 l 2,23,24
 175 637 175 637 163.5 625.5 c 128,-1,25
 152 614 152 614 152 598 c 2,26,-1
 152 427 l 1,27,-1
 68 360 l 1,28,-1
 152 291 l 1,0,-1
EndSplineSet
EndChar

StartChar: braceright
Encoding: 125 125 103
Width: 289
Flags: MW
HStem: 0 21G<51 80 51 51> 700 20G<51 80 80 113.5>
VStem: 51 150<0 121 82 121> 119 82<121 283 434 598>
LayerCount: 2
Fore
SplineSet
119 121 m 2,0,-1
 119 290 l 1,1,-1
 203 359 l 1,2,-1
 119 425 l 1,3,-1
 119 598 l 2,4,5
 119 614 119 614 107.5 625.5 c 128,-1,6
 96 637 96 637 80 637 c 2,7,-1
 51 637 l 1,8,-1
 51 720 l 1,9,-1
 80 720 l 2,10,11
 130 720 130 720 165.5 684.5 c 128,-1,12
 201 649 201 649 201 598 c 2,13,-1
 201 434 l 1,14,15
 209 430 209 430 226 419.5 c 128,-1,16
 243 409 243 409 247 407 c 1,17,-1
 247 312 l 1,18,-1
 201 283 l 1,19,-1
 201 121 l 2,20,21
 201 71 201 71 165.5 35.5 c 128,-1,22
 130 0 130 0 80 0 c 2,23,-1
 51 0 l 1,24,-1
 51 82 l 1,25,-1
 80 82 l 2,26,27
 96 82 96 82 107.5 93.5 c 128,-1,28
 119 105 119 105 119 121 c 2,0,-1
EndSplineSet
EndChar

StartChar: bracketleft
Encoding: 91 91 104
Width: 275
Flags: MW
HStem: 0 82<136 204 136 204> 638 83<136 204 136 136>
VStem: 54 82<82 638 82 721> 54 150<0 82 638 721>
LayerCount: 2
Fore
SplineSet
54 0 m 1,0,-1
 54 721 l 1,1,-1
 204 721 l 1,2,-1
 204 638 l 1,3,-1
 136 638 l 1,4,-1
 136 82 l 1,5,-1
 204 82 l 1,6,-1
 204 0 l 1,7,-1
 54 0 l 1,0,-1
EndSplineSet
EndChar

StartChar: bracketright
Encoding: 93 93 105
Width: 276
Flags: MW
HStem: 0 82<51 118 51 201 51 118> 638 83<51 201 51 118>
VStem: 51 150<0 82 82 82 638 721 0 721> 118 83<82 638 638 638>
LayerCount: 2
Fore
SplineSet
51 638 m 1,0,-1
 51 721 l 1,1,-1
 201 721 l 1,2,-1
 201 0 l 1,3,-1
 51 0 l 1,4,-1
 51 82 l 1,5,-1
 118 82 l 1,6,-1
 118 638 l 1,7,-1
 51 638 l 1,0,-1
EndSplineSet
EndChar

StartChar: breve
Encoding: 728 728 106
Width: 287
Flags: MW
HStem: 872 33<93 105 105 160> 872 67<40 105 40 160>
LayerCount: 2
Fore
SplineSet
194 939 m 1,0,-1
 225 939 l 1,1,2
 224 912 224 912 207.5 892 c 128,-1,3
 191 872 191 872 160 872 c 2,4,-1
 105 872 l 2,5,6
 75 872 75 872 58 892 c 128,-1,7
 41 912 41 912 40 939 c 1,8,-1
 72 939 l 1,9,10
 72 905 72 905 93 905 c 2,11,-1
 173 905 l 2,12,13
 194 905 194 905 194 933 c 2,14,-1
 194 939 l 1,0,-1
EndSplineSet
EndChar

StartChar: bullet
Encoding: 8226 8226 107
Width: 371
Flags: MW
HStem: 325 78<163.5 197 172 197>
VStem: 144 82<353 374 344 383>
LayerCount: 2
Fore
SplineSet
172 403 m 2,0,-1
 197 403 l 2,1,2
 226 403 226 403 226 374 c 2,3,-1
 226 353 l 2,4,5
 226 325 226 325 197 325 c 2,6,-1
 172 325 l 2,7,8
 144 325 144 325 144 353 c 2,9,-1
 144 374 l 2,10,11
 144 403 144 403 172 403 c 2,0,-1
EndSplineSet
EndChar

StartChar: c
Encoding: 99 99 108
Width: 695
Flags: MW
HStem: 0 82<138.5 642 172 642> 498 82<161.5 640 172 640>
VStem: 51 82<121 459>
LayerCount: 2
Fore
SplineSet
172 82 m 2,0,-1
 642 82 l 1,1,-1
 642 0 l 1,2,-1
 172 0 l 2,3,4
 122 0 122 0 86.5 35.5 c 128,-1,5
 51 71 51 71 51 121 c 2,6,-1
 51 459 l 2,7,8
 51 509 51 509 86.5 544.5 c 128,-1,9
 122 580 122 580 172 580 c 2,10,-1
 640 580 l 1,11,-1
 640 498 l 1,12,-1
 172 498 l 2,13,14
 156 498 156 498 144.5 486.5 c 128,-1,15
 133 475 133 475 133 459 c 2,16,-1
 133 121 l 2,17,18
 133 105 133 105 144.5 93.5 c 128,-1,19
 156 82 156 82 172 82 c 2,0,-1
EndSplineSet
Substitution2: "'smcp' Lowercase to Small Capitals in Latin lookup 3 subtable" c.sc
Substitution2: "'aalt' Access All Alternates in Latin lookup 0 subtable" c.sc
EndChar

StartChar: c.sc
Encoding: 65560 -1 109
Width: 693
Flags: MW
HStem: 0 82<138.5 640 172 640> 499 82<161.5 640 172 640>
VStem: 51 82<121 460>
LayerCount: 2
Fore
SplineSet
640 499 m 1,0,-1
 172 499 l 2,1,2
 156 499 156 499 144.5 487.5 c 128,-1,3
 133 476 133 476 133 460 c 2,4,-1
 133 121 l 2,5,6
 133 105 133 105 144.5 93.5 c 128,-1,7
 156 82 156 82 172 82 c 2,8,-1
 640 82 l 1,9,-1
 640 0 l 1,10,-1
 172 0 l 2,11,12
 122 0 122 0 86.5 35.5 c 128,-1,13
 51 71 51 71 51 121 c 2,14,-1
 51 460 l 2,15,16
 51 510 51 510 86.5 545.5 c 128,-1,17
 122 581 122 581 172 581 c 2,18,-1
 640 581 l 1,19,-1
 640 499 l 1,0,-1
EndSplineSet
EndChar

StartChar: caron
Encoding: 711 711 110
Width: 297
Flags: MW
HStem: 871 21G<99 158 99 99> 968 20G<27 69 69 69 187 228 228 228>
LayerCount: 2
Fore
SplineSet
27 988 m 1,0,-1
 69 988 l 1,1,-1
 129 903 l 1,2,-1
 187 988 l 1,3,-1
 228 988 l 1,4,-1
 158 871 l 1,5,-1
 99 871 l 1,6,-1
 27 988 l 1,0,-1
EndSplineSet
EndChar

StartChar: ccedilla
Encoding: 231 231 111
Width: 693
Flags: MW
HStem: -139 221<272 352 272 272> 0 82<138.5 642 172 307 386 642 386 386> 498 82<161.5 640 172 640>
VStem: 51 82<121 459>
LayerCount: 2
Fore
SplineSet
172 82 m 2,0,-1
 642 82 l 1,1,-1
 642 0 l 1,2,-1
 386 0 l 1,3,-1
 352 -139 l 1,4,-1
 272 -139 l 1,5,-1
 307 0 l 1,6,-1
 172 0 l 2,7,8
 122 0 122 0 86.5 35.5 c 128,-1,9
 51 71 51 71 51 121 c 2,10,-1
 51 459 l 2,11,12
 51 509 51 509 86.5 544.5 c 128,-1,13
 122 580 122 580 172 580 c 2,14,-1
 640 580 l 1,15,-1
 640 498 l 1,16,-1
 172 498 l 2,17,18
 156 498 156 498 144.5 486.5 c 128,-1,19
 133 475 133 475 133 459 c 2,20,-1
 133 121 l 2,21,22
 133 105 133 105 144.5 93.5 c 128,-1,23
 156 82 156 82 172 82 c 2,0,-1
EndSplineSet
EndChar

StartChar: cedilla
Encoding: 184 184 112
Width: 213
Flags: MW
HStem: -171 139<33 147 68 113>
LayerCount: 2
Fore
SplineSet
33 -171 m 1,0,-1
 68 -32 l 1,1,-1
 147 -32 l 1,2,-1
 113 -171 l 1,3,-1
 33 -171 l 1,0,-1
EndSplineSet
EndChar

StartChar: cent
Encoding: 162 162 113
Width: 636
Flags: MW
HStem: -115 21G<287 369 287 287> 0 82<120 287 154 287 369 621> 508 83<143.5 287 154 287 369 621 154 369> 706 20G<287 369 369 369>
VStem: 33 82<121 469> 287 82<-115 0 -115 0 82 508 591 726>
LayerCount: 2
Fore
SplineSet
621 508 m 1,0,-1
 369 508 l 1,1,-1
 369 82 l 1,2,-1
 621 82 l 1,3,-1
 621 0 l 1,4,-1
 369 0 l 1,5,-1
 369 -115 l 1,6,-1
 287 -115 l 1,7,-1
 287 0 l 1,8,-1
 154 0 l 2,9,10
 103 0 103 0 68 35.5 c 128,-1,11
 33 71 33 71 33 121 c 2,12,-1
 33 469 l 2,13,14
 33 520 33 520 68 555.5 c 128,-1,15
 103 591 103 591 154 591 c 2,16,-1
 287 591 l 1,17,-1
 287 726 l 1,18,-1
 369 726 l 1,19,-1
 369 591 l 1,20,-1
 621 591 l 1,21,-1
 621 508 l 1,0,-1
287 82 m 1,22,-1
 287 508 l 1,23,-1
 154 508 l 2,24,25
 138 508 138 508 126.5 496.5 c 128,-1,26
 115 485 115 485 115 469 c 2,27,-1
 115 121 l 2,28,29
 115 105 115 105 126.5 93.5 c 128,-1,30
 138 82 138 82 154 82 c 2,31,-1
 287 82 l 1,22,-1
EndSplineSet
EndChar

StartChar: circumflex
Encoding: 710 710 114
Width: 300
Flags: MW
HStem: 871 21G<28 69 28 28 187 187 187 229> 968 20G<99 158 158 158>
LayerCount: 2
Fore
SplineSet
69 871 m 1,0,-1
 28 871 l 1,1,-1
 99 988 l 1,2,-1
 158 988 l 1,3,-1
 229 871 l 1,4,-1
 187 871 l 1,5,-1
 129 956 l 1,6,-1
 69 871 l 1,0,-1
EndSplineSet
EndChar

StartChar: colon
Encoding: 58 58 115
Width: 214
Flags: MW
HStem: 0 82<54 136 54 136> 506 82<54 136 54 136>
VStem: 54 82<0 82 0 82 506 588>
LayerCount: 2
Fore
SplineSet
54 82 m 1,0,-1
 136 82 l 1,1,-1
 136 0 l 1,2,-1
 54 0 l 1,3,-1
 54 82 l 1,0,-1
136 588 m 1,4,-1
 136 506 l 1,5,-1
 54 506 l 1,6,-1
 54 588 l 1,7,-1
 136 588 l 1,4,-1
EndSplineSet
EndChar

StartChar: comma
Encoding: 44 44 116
Width: 193
Flags: MW
HStem: -131 21G<54 54> 62 20G<54 136 136 136>
VStem: 54 82<-43 -16 -16 82>
LayerCount: 2
Fore
SplineSet
54 82 m 1,0,-1
 136 82 l 1,1,-1
 136 -16 l 2,2,3
 136 -56 136 -56 113 -87.5 c 128,-1,4
 90 -119 90 -119 54 -131 c 1,5,-1
 54 82 l 1,0,-1
EndSplineSet
EndChar

StartChar: d
Encoding: 100 100 117
Width: 667
Flags: MW
HStem: 0 82<111 493 145 493 493 503.5 145 614> 498 82<134.5 532 145 493> 750 20G<532 614 614 614>
VStem: 23 83<121 459> 532 82<121 459 459 469.5 580 770 0 770>
LayerCount: 2
Fore
SplineSet
532 770 m 1,0,-1
 614 770 l 1,1,-1
 614 0 l 1,2,-1
 145 0 l 2,3,4
 94 0 94 0 58.5 35.5 c 128,-1,5
 23 71 23 71 23 121 c 2,6,-1
 23 459 l 2,7,8
 23 509 23 509 58.5 544.5 c 128,-1,9
 94 580 94 580 145 580 c 2,10,-1
 532 580 l 1,11,-1
 532 770 l 1,0,-1
145 82 m 2,12,-1
 493 82 l 2,13,14
 509 82 509 82 520.5 93.5 c 128,-1,15
 532 105 532 105 532 121 c 2,16,-1
 532 459 l 2,17,18
 532 475 532 475 520.5 486.5 c 128,-1,19
 509 498 509 498 493 498 c 2,20,-1
 145 498 l 2,21,22
 129 498 129 498 117.5 486.5 c 128,-1,23
 106 475 106 475 106 459 c 2,24,-1
 106 121 l 2,25,26
 106 105 106 105 117.5 93.5 c 128,-1,27
 129 82 129 82 145 82 c 2,12,-1
EndSplineSet
Substitution2: "'smcp' Lowercase to Small Capitals in Latin lookup 3 subtable" d.sc
Substitution2: "'aalt' Access All Alternates in Latin lookup 0 subtable" d.sc
EndChar

StartChar: d.sc
Encoding: 65561 -1 118
Width: 705
Flags: MW
HStem: 0 82<175 534 175 534> 499 82<164.5 175 175 534>
VStem: 54 82<110.5 121 121 460> 573 82<121 460>
LayerCount: 2
Fore
SplineSet
54 581 m 1,0,-1
 534 581 l 2,1,2
 584 581 584 581 619.5 545.5 c 128,-1,3
 655 510 655 510 655 460 c 2,4,-1
 655 121 l 2,5,6
 655 71 655 71 619.5 35.5 c 128,-1,7
 584 0 584 0 534 0 c 2,8,-1
 54 0 l 1,9,-1
 54 581 l 1,0,-1
573 121 m 2,10,-1
 573 460 l 2,11,12
 573 476 573 476 561.5 487.5 c 128,-1,13
 550 499 550 499 534 499 c 2,14,-1
 175 499 l 2,15,16
 159 499 159 499 147.5 487.5 c 128,-1,17
 136 476 136 476 136 460 c 2,18,-1
 136 121 l 2,19,20
 136 105 136 105 147.5 93.5 c 128,-1,21
 159 82 159 82 175 82 c 2,22,-1
 534 82 l 2,23,24
 550 82 550 82 561.5 93.5 c 128,-1,25
 573 105 573 105 573 121 c 2,10,-1
EndSplineSet
EndChar

StartChar: degree
Encoding: 176 176 119
Width: 439
Flags: MW
HStem: 401 61<145 167 167 261> 666 62<134.5 261 167 261 261 283>
VStem: 45 61<522 606 606 627> 322 61<501 522 522 606>
LayerCount: 2
Fore
SplineSet
167 728 m 2,0,-1
 261 728 l 2,1,2
 312 728 312 728 347.5 692.5 c 128,-1,3
 383 657 383 657 383 606 c 2,4,-1
 383 522 l 2,5,6
 383 472 383 472 347.5 436.5 c 128,-1,7
 312 401 312 401 261 401 c 2,8,-1
 167 401 l 2,9,10
 116 401 116 401 80.5 436.5 c 128,-1,11
 45 472 45 472 45 522 c 2,12,-1
 45 606 l 2,13,14
 45 657 45 657 80.5 692.5 c 128,-1,15
 116 728 116 728 167 728 c 2,0,-1
145 462 m 2,16,-1
 283 462 l 2,17,18
 299 462 299 462 310.5 473.5 c 128,-1,19
 322 485 322 485 322 501 c 2,20,-1
 322 627 l 2,21,22
 322 643 322 643 310.5 654.5 c 128,-1,23
 299 666 299 666 283 666 c 2,24,-1
 145 666 l 2,25,26
 129 666 129 666 117.5 654.5 c 128,-1,27
 106 643 106 643 106 627 c 2,28,-1
 106 501 l 2,29,30
 106 485 106 485 117.5 473.5 c 128,-1,31
 129 462 129 462 145 462 c 2,16,-1
EndSplineSet
EndChar

StartChar: dieresis
Encoding: 168 168 120
Width: 385
Flags: MW
HStem: 872 82<54 137 54 137 234 316>
VStem: 54 83<872 954 872 954> 234 82<872 954 872 954>
LayerCount: 2
Fore
SplineSet
316 954 m 1,0,-1
 316 872 l 1,1,-1
 234 872 l 1,2,-1
 234 954 l 1,3,-1
 316 954 l 1,0,-1
137 954 m 1,4,-1
 137 872 l 1,5,-1
 54 872 l 1,6,-1
 54 954 l 1,7,-1
 137 954 l 1,4,-1
EndSplineSet
EndChar

StartChar: divide
Encoding: 247 247 121
Width: 508
Flags: MW
HStem: 1 82<215 297 215 297> 255 82<18 492 18 492> 497 82<215 297 215 297>
VStem: 215 82<1 83 1 83 497 579>
LayerCount: 2
Fore
SplineSet
492 337 m 1,0,-1
 492 255 l 1,1,-1
 18 255 l 1,2,-1
 18 337 l 1,3,-1
 492 337 l 1,0,-1
215 83 m 1,4,-1
 297 83 l 1,5,-1
 297 1 l 1,6,-1
 215 1 l 1,7,-1
 215 83 l 1,4,-1
297 579 m 1,8,-1
 297 497 l 1,9,-1
 215 497 l 1,10,-1
 215 579 l 1,11,-1
 297 579 l 1,8,-1
EndSplineSet
EndChar

StartChar: dollar
Encoding: 36 36 122
Width: 788
Flags: MW
HStem: -114 21G<357 439 357 357> 0 82<121.5 357 155 357 439 640> 0 150<34 155 34 357> 320 82<121.5 357 155 357 439 640> 571 150 638 83<144.5 357 155 357 439 640 155 439> 815 20G<357 439 439 439>
VStem: 34 82<121 150 110.5 150 441 599> 357 82<-114 0 -114 0 82 320 402 638 721 835> 679 83<121 281 571 599>
LayerCount: 2
Fore
SplineSet
762 599 m 2,0,-1
 762 571 l 1,1,-1
 679 571 l 1,2,-1
 679 599 l 2,3,4
 679 615 679 615 667.5 626.5 c 128,-1,5
 656 638 656 638 640 638 c 2,6,-1
 439 638 l 1,7,-1
 439 402 l 1,8,-1
 640 402 l 2,9,10
 691 402 691 402 726.5 366.5 c 128,-1,11
 762 331 762 331 762 281 c 2,12,-1
 762 121 l 2,13,14
 762 71 762 71 726.5 35.5 c 128,-1,15
 691 0 691 0 640 0 c 2,16,-1
 439 0 l 1,17,-1
 439 -114 l 1,18,-1
 357 -114 l 1,19,-1
 357 0 l 1,20,-1
 155 0 l 2,21,22
 105 0 105 0 69.5 35.5 c 128,-1,23
 34 71 34 71 34 121 c 2,24,-1
 34 150 l 1,25,-1
 116 150 l 1,26,-1
 116 121 l 2,27,28
 116 105 116 105 127.5 93.5 c 128,-1,29
 139 82 139 82 155 82 c 2,30,-1
 357 82 l 1,31,-1
 357 320 l 1,32,-1
 155 320 l 2,33,34
 105 320 105 320 69.5 355 c 128,-1,35
 34 390 34 390 34 441 c 2,36,-1
 34 599 l 2,37,38
 34 650 34 650 69.5 685.5 c 128,-1,39
 105 721 105 721 155 721 c 2,40,-1
 357 721 l 1,41,-1
 357 835 l 1,42,-1
 439 835 l 1,43,-1
 439 721 l 1,44,-1
 640 721 l 2,45,46
 691 721 691 721 726.5 685.5 c 128,-1,47
 762 650 762 650 762 599 c 2,0,-1
640 320 m 2,48,-1
 439 320 l 1,49,-1
 439 82 l 1,50,-1
 640 82 l 2,51,52
 656 82 656 82 667.5 93.5 c 128,-1,53
 679 105 679 105 679 121 c 2,54,-1
 679 281 l 2,55,56
 679 297 679 297 667.5 308.5 c 128,-1,57
 656 320 656 320 640 320 c 2,48,-1
357 402 m 1,58,-1
 357 638 l 1,59,-1
 155 638 l 2,60,61
 139 638 139 638 127.5 626.5 c 128,-1,62
 116 615 116 615 116 599 c 2,63,-1
 116 441 l 2,64,65
 116 425 116 425 127.5 413.5 c 128,-1,66
 139 402 139 402 155 402 c 2,67,-1
 357 402 l 1,58,-1
EndSplineSet
EndChar

StartChar: dotaccent
Encoding: 729 729 123
Width: 233
Flags: MW
HStem: 873 116<74.5 124 86 124>
VStem: 45 120<913 949 902 960>
LayerCount: 2
Fore
SplineSet
86 989 m 2,0,-1
 124 989 l 2,1,2
 141 989 141 989 153 977.5 c 128,-1,3
 165 966 165 966 165 949 c 2,4,-1
 165 913 l 2,5,6
 165 896 165 896 153 884.5 c 128,-1,7
 141 873 141 873 124 873 c 2,8,-1
 86 873 l 2,9,10
 69 873 69 873 57 884.5 c 128,-1,11
 45 896 45 896 45 913 c 2,12,-1
 45 949 l 2,13,14
 45 966 45 966 57 977.5 c 128,-1,15
 69 989 69 989 86 989 c 2,0,-1
EndSplineSet
EndChar

StartChar: dotlessi
Encoding: 305 305 124
Width: 214
Flags: MW
HStem: 0 21G<52 52 52 134> 560 20G<52 134 134 134>
VStem: 52 82<0 580 0 580>
LayerCount: 2
Fore
SplineSet
52 0 m 1,0,-1
 52 580 l 1,1,-1
 134 580 l 1,2,-1
 134 0 l 1,3,-1
 52 0 l 1,0,-1
EndSplineSet
EndChar

StartChar: e
Encoding: 101 101 125
Width: 692
Flags: MW
HStem: 0 82<138.5 642 172 642> 249 82<133 559 133 642 133 559> 498 82<161.5 520 172 520>
VStem: 51 82<121 249 331 459> 559 83<331 459>
CounterMasks: 1 e0
LayerCount: 2
Fore
SplineSet
520 580 m 2,0,1
 571 580 571 580 606.5 544.5 c 128,-1,2
 642 509 642 509 642 459 c 2,3,-1
 642 249 l 1,4,-1
 133 249 l 1,5,-1
 133 121 l 2,6,7
 133 105 133 105 144.5 93.5 c 128,-1,8
 156 82 156 82 172 82 c 2,9,-1
 642 82 l 1,10,-1
 642 0 l 1,11,-1
 172 0 l 2,12,13
 122 0 122 0 86.5 35.5 c 128,-1,14
 51 71 51 71 51 121 c 2,15,-1
 51 459 l 2,16,17
 51 509 51 509 86.5 544.5 c 128,-1,18
 122 580 122 580 172 580 c 2,19,-1
 520 580 l 2,0,1
133 331 m 1,20,-1
 559 331 l 1,21,-1
 559 459 l 2,22,23
 559 475 559 475 547.5 486.5 c 128,-1,24
 536 498 536 498 520 498 c 2,25,-1
 172 498 l 2,26,27
 156 498 156 498 144.5 486.5 c 128,-1,28
 133 475 133 475 133 459 c 2,29,-1
 133 331 l 1,20,-1
EndSplineSet
Substitution2: "'smcp' Lowercase to Small Capitals in Latin lookup 3 subtable" e.sc
Substitution2: "'aalt' Access All Alternates in Latin lookup 0 subtable" e.sc
EndChar

StartChar: e.sc
Encoding: 65562 -1 126
Width: 638
Flags: MW
HStem: 0 82<136 581 136 581> 249 82<136 467 136 467> 499 82<136 581 136 136>
VStem: 54 82<82 249 331 499>
LayerCount: 2
Fore
SplineSet
581 581 m 1,0,-1
 581 499 l 1,1,-1
 136 499 l 1,2,-1
 136 331 l 1,3,-1
 467 331 l 1,4,-1
 467 249 l 1,5,-1
 136 249 l 1,6,-1
 136 82 l 1,7,-1
 581 82 l 1,8,-1
 581 0 l 1,9,-1
 54 0 l 1,10,-1
 54 581 l 1,11,-1
 581 581 l 1,0,-1
EndSplineSet
EndChar

StartChar: eacute
Encoding: 233 233 127
Width: 638
Flags: MW
HStem: 0 82<138.5 642 172 642> 249 82<133 559 133 642 133 559> 498 82<161.5 520 172 520> 764 139<245 359 280 325>
VStem: 51 82<121 249 331 459> 559 83<331 459>
LayerCount: 2
Fore
SplineSet
520 580 m 2,0,1
 571 580 571 580 606.5 544.5 c 128,-1,2
 642 509 642 509 642 459 c 2,3,-1
 642 249 l 1,4,-1
 133 249 l 1,5,-1
 133 121 l 2,6,7
 133 105 133 105 144.5 93.5 c 128,-1,8
 156 82 156 82 172 82 c 2,9,-1
 642 82 l 1,10,-1
 642 0 l 1,11,-1
 172 0 l 2,12,13
 122 0 122 0 86.5 35.5 c 128,-1,14
 51 71 51 71 51 121 c 2,15,-1
 51 459 l 2,16,17
 51 509 51 509 86.5 544.5 c 128,-1,18
 122 580 122 580 172 580 c 2,19,-1
 520 580 l 2,0,1
133 331 m 1,20,-1
 559 331 l 1,21,-1
 559 459 l 2,22,23
 559 475 559 475 547.5 486.5 c 128,-1,24
 536 498 536 498 520 498 c 2,25,-1
 172 498 l 2,26,27
 156 498 156 498 144.5 486.5 c 128,-1,28
 133 475 133 475 133 459 c 2,29,-1
 133 331 l 1,20,-1
245 764 m 1,30,-1
 280 903 l 1,31,-1
 359 903 l 1,32,-1
 325 764 l 1,33,-1
 245 764 l 1,30,-1
EndSplineSet
EndChar

StartChar: ecircumflex
Encoding: 234 234 128
Width: 638
Flags: MW
HStem: 0 82<138.5 642 172 642> 249 82<133 559 133 642 133 559> 498 82<161.5 520 172 520> 763 21G<197 238 197 197 356 356 356 398> 860 20G<268 327 327 327>
VStem: 51 82<121 249 331 459> 559 83<331 459>
LayerCount: 2
Fore
SplineSet
520 580 m 2,0,1
 571 580 571 580 606.5 544.5 c 128,-1,2
 642 509 642 509 642 459 c 2,3,-1
 642 249 l 1,4,-1
 133 249 l 1,5,-1
 133 121 l 2,6,7
 133 105 133 105 144.5 93.5 c 128,-1,8
 156 82 156 82 172 82 c 2,9,-1
 642 82 l 1,10,-1
 642 0 l 1,11,-1
 172 0 l 2,12,13
 122 0 122 0 86.5 35.5 c 128,-1,14
 51 71 51 71 51 121 c 2,15,-1
 51 459 l 2,16,17
 51 509 51 509 86.5 544.5 c 128,-1,18
 122 580 122 580 172 580 c 2,19,-1
 520 580 l 2,0,1
133 331 m 1,20,-1
 559 331 l 1,21,-1
 559 459 l 2,22,23
 559 475 559 475 547.5 486.5 c 128,-1,24
 536 498 536 498 520 498 c 2,25,-1
 172 498 l 2,26,27
 156 498 156 498 144.5 486.5 c 128,-1,28
 133 475 133 475 133 459 c 2,29,-1
 133 331 l 1,20,-1
238 763 m 1,30,-1
 197 763 l 1,31,-1
 268 880 l 1,32,-1
 327 880 l 1,33,-1
 398 763 l 1,34,-1
 356 763 l 1,35,-1
 298 848 l 1,36,-1
 238 763 l 1,30,-1
EndSplineSet
EndChar

StartChar: edieresis
Encoding: 235 235 129
Width: 638
Flags: MW
HStem: 0 82<138.5 642 172 642> 249 82<133 559 133 642 133 559> 498 82<161.5 520 172 520> 763 82<180 263 180 263 360 442>
VStem: 51 82<121 249 331 459> 180 83<763 845 763 845> 360 82<763 845 763 845> 559 83<331 459>
LayerCount: 2
Fore
SplineSet
520 580 m 2,0,1
 571 580 571 580 606.5 544.5 c 128,-1,2
 642 509 642 509 642 459 c 2,3,-1
 642 249 l 1,4,-1
 133 249 l 1,5,-1
 133 121 l 2,6,7
 133 105 133 105 144.5 93.5 c 128,-1,8
 156 82 156 82 172 82 c 2,9,-1
 642 82 l 1,10,-1
 642 0 l 1,11,-1
 172 0 l 2,12,13
 122 0 122 0 86.5 35.5 c 128,-1,14
 51 71 51 71 51 121 c 2,15,-1
 51 459 l 2,16,17
 51 509 51 509 86.5 544.5 c 128,-1,18
 122 580 122 580 172 580 c 2,19,-1
 520 580 l 2,0,1
133 331 m 1,20,-1
 559 331 l 1,21,-1
 559 459 l 2,22,23
 559 475 559 475 547.5 486.5 c 128,-1,24
 536 498 536 498 520 498 c 2,25,-1
 172 498 l 2,26,27
 156 498 156 498 144.5 486.5 c 128,-1,28
 133 475 133 475 133 459 c 2,29,-1
 133 331 l 1,20,-1
442 845 m 1,30,-1
 442 763 l 1,31,-1
 360 763 l 1,32,-1
 360 845 l 1,33,-1
 442 845 l 1,30,-1
263 845 m 1,34,-1
 263 763 l 1,35,-1
 180 763 l 1,36,-1
 180 845 l 1,37,-1
 263 845 l 1,34,-1
EndSplineSet
EndChar

StartChar: egrave
Encoding: 232 232 130
Width: 638
Flags: MW
HStem: 0 82<138.5 642 172 642> 249 82<133 559 133 642 133 559> 498 82<161.5 520 172 520> 763 139<280 326 245 360 280 280>
VStem: 51 82<121 249 331 459> 559 83<331 459>
LayerCount: 2
Fore
SplineSet
520 580 m 2,0,1
 571 580 571 580 606.5 544.5 c 128,-1,2
 642 509 642 509 642 459 c 2,3,-1
 642 249 l 1,4,-1
 133 249 l 1,5,-1
 133 121 l 2,6,7
 133 105 133 105 144.5 93.5 c 128,-1,8
 156 82 156 82 172 82 c 2,9,-1
 642 82 l 1,10,-1
 642 0 l 1,11,-1
 172 0 l 2,12,13
 122 0 122 0 86.5 35.5 c 128,-1,14
 51 71 51 71 51 121 c 2,15,-1
 51 459 l 2,16,17
 51 509 51 509 86.5 544.5 c 128,-1,18
 122 580 122 580 172 580 c 2,19,-1
 520 580 l 2,0,1
133 331 m 1,20,-1
 559 331 l 1,21,-1
 559 459 l 2,22,23
 559 475 559 475 547.5 486.5 c 128,-1,24
 536 498 536 498 520 498 c 2,25,-1
 172 498 l 2,26,27
 156 498 156 498 144.5 486.5 c 128,-1,28
 133 475 133 475 133 459 c 2,29,-1
 133 331 l 1,20,-1
326 902 m 1,30,-1
 360 763 l 1,31,-1
 280 763 l 1,32,-1
 245 902 l 1,33,-1
 326 902 l 1,30,-1
EndSplineSet
EndChar

StartChar: eight
Encoding: 56 56 131
Width: 834
Flags: MW
HStem: 0 82<144 663 178 663> 330 71<167.5 663 178 663> 637 84<167.5 663 178 663>
VStem: 57 82<121 291 452 598> 702 82<121 291 440 452 452 598 598 608.5>
LayerCount: 2
Fore
SplineSet
784 619 m 1,0,-1
 784 452 l 2,1,2
 784 412 784 412 754 371 c 1,3,4
 784 332 784 332 784 291 c 2,5,-1
 784 121 l 2,6,7
 784 71 784 71 748.5 35.5 c 128,-1,8
 713 0 713 0 663 0 c 2,9,-1
 178 0 l 2,10,11
 127 0 127 0 92 35.5 c 128,-1,12
 57 71 57 71 57 121 c 2,13,-1
 57 291 l 2,14,15
 57 332 57 332 87 371 c 1,16,17
 57 412 57 412 57 452 c 2,18,-1
 57 599 l 2,19,20
 57 650 57 650 92 685.5 c 128,-1,21
 127 721 127 721 178 721 c 2,22,-1
 663 721 l 2,23,24
 703 721 703 721 737.5 690.5 c 128,-1,25
 772 660 772 660 784 619 c 1,0,-1
702 121 m 2,26,-1
 702 291 l 2,27,28
 702 307 702 307 690.5 318.5 c 128,-1,29
 679 330 679 330 663 330 c 2,30,-1
 178 330 l 2,31,32
 162 330 162 330 150.5 318.5 c 128,-1,33
 139 307 139 307 139 291 c 2,34,-1
 139 121 l 2,35,36
 139 105 139 105 150.5 93.5 c 128,-1,37
 162 82 162 82 178 82 c 2,38,-1
 663 82 l 2,39,40
 679 82 679 82 690.5 93.5 c 128,-1,41
 702 105 702 105 702 121 c 2,26,-1
702 440 m 2,42,-1
 702 598 l 2,43,44
 702 614 702 614 690.5 625.5 c 128,-1,45
 679 637 679 637 663 637 c 2,46,-1
 178 637 l 2,47,48
 162 637 162 637 150.5 625.5 c 128,-1,49
 139 614 139 614 139 598 c 2,50,-1
 139 440 l 2,51,52
 139 424 139 424 150.5 412.5 c 128,-1,53
 162 401 162 401 178 401 c 2,54,-1
 663 401 l 2,55,56
 679 401 679 401 690.5 412.5 c 128,-1,57
 702 424 702 424 702 440 c 2,42,-1
EndSplineSet
EndChar

StartChar: ellipsis
Encoding: 8230 8230 132
Width: 574
Flags: MW
HStem: 0 82<54 136 54 136 243 325 431 514>
VStem: 54 82<0 82 0 82> 243 82<0 82 0 82> 431 83<0 82 0 82>
LayerCount: 2
Fore
SplineSet
136 82 m 1,0,-1
 136 0 l 1,1,-1
 54 0 l 1,2,-1
 54 82 l 1,3,-1
 136 82 l 1,0,-1
514 82 m 1,4,-1
 514 0 l 1,5,-1
 431 0 l 1,6,-1
 431 82 l 1,7,-1
 514 82 l 1,4,-1
325 82 m 1,8,-1
 325 0 l 1,9,-1
 243 0 l 1,10,-1
 243 82 l 1,11,-1
 325 82 l 1,8,-1
EndSplineSet
EndChar

StartChar: emdash
Encoding: 8212 8212 133
Width: 822
Flags: MW
HStem: 254 82<54 775 54 775>
LayerCount: 2
Fore
SplineSet
775 336 m 1,0,-1
 775 254 l 1,1,-1
 54 254 l 1,2,-1
 54 336 l 1,3,-1
 775 336 l 1,0,-1
EndSplineSet
EndChar

StartChar: endash
Encoding: 8211 8211 134
Width: 708
Flags: MW
HStem: 254 82<54 655 54 655>
LayerCount: 2
Fore
SplineSet
655 336 m 1,0,-1
 655 254 l 1,1,-1
 54 254 l 1,2,-1
 54 336 l 1,3,-1
 655 336 l 1,0,-1
EndSplineSet
EndChar

StartChar: equal
Encoding: 61 61 135
Width: 638
Flags: MW
HStem: 151 82<59 576 59 576> 351 82<59 576 59 576>
LayerCount: 2
Fore
SplineSet
576 233 m 1,0,-1
 576 151 l 1,1,-1
 59 151 l 1,2,-1
 59 233 l 1,3,-1
 576 233 l 1,0,-1
576 433 m 1,4,-1
 576 351 l 1,5,-1
 59 351 l 1,6,-1
 59 433 l 1,7,-1
 576 433 l 1,4,-1
EndSplineSet
EndChar

StartChar: exclam
Encoding: 33 33 136
Width: 220
Flags: MW
HStem: 0 82<58 140 58 140> 700 20G<58 140 140 140>
VStem: 58 82<0 82 203 720>
LayerCount: 2
Fore
SplineSet
140 0 m 1,0,-1
 58 0 l 1,1,-1
 58 82 l 1,2,-1
 140 82 l 1,3,-1
 140 0 l 1,0,-1
58 203 m 1,4,-1
 58 720 l 1,5,-1
 140 720 l 1,6,-1
 140 203 l 1,7,-1
 58 203 l 1,4,-1
EndSplineSet
EndChar

StartChar: exclamdown
Encoding: 161 161 137
Width: 210
Flags: MW
HStem: 0 21G<53 135 53 53> 645 83<53 135 53 135>
VStem: 53 82<0 517 645 728>
LayerCount: 2
Fore
SplineSet
135 728 m 1,0,-1
 135 645 l 1,1,-1
 53 645 l 1,2,-1
 53 728 l 1,3,-1
 135 728 l 1,0,-1
135 0 m 1,4,-1
 53 0 l 1,5,-1
 53 517 l 1,6,-1
 135 517 l 1,7,-1
 135 0 l 1,4,-1
EndSplineSet
EndChar

StartChar: f
Encoding: 102 102 138
Width: 407
Flags: MW
HStem: 0 21G<53 135 53 53> 498 82<135 386 135 386> 688 82<163.5 386 174 386>
VStem: 53 82<0 498 580 649>
LayerCount: 2
Fore
SplineSet
174 688 m 2,0,1
 158 688 158 688 146.5 676.5 c 128,-1,2
 135 665 135 665 135 649 c 2,3,-1
 135 580 l 1,4,-1
 386 580 l 1,5,-1
 386 498 l 1,6,-1
 135 498 l 1,7,-1
 135 0 l 1,8,-1
 53 0 l 1,9,-1
 53 649 l 2,10,11
 53 700 53 700 88 735 c 128,-1,12
 123 770 123 770 174 770 c 2,13,-1
 386 770 l 1,14,-1
 386 688 l 1,15,-1
 174 688 l 2,0,1
EndSplineSet
Substitution2: "'smcp' Lowercase to Small Capitals in Latin lookup 3 subtable" f.sc
Substitution2: "'aalt' Access All Alternates in Latin lookup 0 subtable" f.sc
EndChar

StartChar: f.sc
Encoding: 65563 -1 139
Width: 591
Flags: MW
HStem: 0 21G<54 136 54 54> 249 82<136 467 136 467> 499 82<136 581 136 136>
VStem: 54 82<0 249 331 499>
LayerCount: 2
Fore
SplineSet
54 581 m 1,0,-1
 581 581 l 1,1,-1
 581 499 l 1,2,-1
 136 499 l 1,3,-1
 136 331 l 1,4,-1
 467 331 l 1,5,-1
 467 249 l 1,6,-1
 136 249 l 1,7,-1
 136 0 l 1,8,-1
 54 0 l 1,9,-1
 54 581 l 1,0,-1
EndSplineSet
EndChar

StartChar: five
Encoding: 53 53 140
Width: 830
Flags: MW
HStem: 0 82<144 663 178 663> 0 150<57 178 57 663> 330 82<178 663 178 663> 638 83<167.5 178 178 784>
VStem: 57 82<121 150 110.5 150 441 452 452 599> 702 82<121 291>
LayerCount: 2
Fore
SplineSet
139 599 m 2,0,-1
 139 452 l 2,1,2
 139 436 139 436 150.5 424 c 128,-1,3
 162 412 162 412 178 412 c 2,4,-1
 663 412 l 2,5,6
 713 412 713 412 748.5 377 c 128,-1,7
 784 342 784 342 784 291 c 2,8,-1
 784 121 l 2,9,10
 784 71 784 71 748.5 35.5 c 128,-1,11
 713 0 713 0 663 0 c 2,12,-1
 178 0 l 2,13,14
 127 0 127 0 92 35.5 c 128,-1,15
 57 71 57 71 57 121 c 2,16,-1
 57 150 l 1,17,-1
 139 150 l 1,18,-1
 139 121 l 2,19,20
 139 105 139 105 150.5 93.5 c 128,-1,21
 162 82 162 82 178 82 c 2,22,-1
 663 82 l 2,23,24
 679 82 679 82 690.5 93.5 c 128,-1,25
 702 105 702 105 702 121 c 2,26,-1
 702 291 l 2,27,28
 702 307 702 307 690.5 318.5 c 128,-1,29
 679 330 679 330 663 330 c 2,30,-1
 57 330 l 1,31,-1
 57 721 l 1,32,-1
 784 721 l 1,33,-1
 784 638 l 1,34,-1
 178 638 l 2,35,36
 162 638 162 638 150.5 626.5 c 128,-1,37
 139 615 139 615 139 599 c 2,0,-1
EndSplineSet
EndChar

StartChar: four
Encoding: 52 52 141
Width: 730
Flags: MW
HStem: 0 21G<508 590 508 508> 186 82<111 508 111 508 590 702> 701 20G<498 590 590 590>
VStem: 508 82<0 186 0 186 268 590 590 590>
LayerCount: 2
Fore
SplineSet
590 268 m 1,0,-1
 702 268 l 1,1,-1
 702 186 l 1,2,-1
 590 186 l 1,3,-1
 590 0 l 1,4,-1
 508 0 l 1,5,-1
 508 186 l 1,6,-1
 6 186 l 1,7,-1
 6 278 l 1,8,-1
 498 721 l 1,9,-1
 590 721 l 1,10,-1
 590 268 l 1,0,-1
508 590 m 1,11,-1
 111 268 l 1,12,-1
 508 268 l 1,13,-1
 508 590 l 1,11,-1
EndSplineSet
Substitution2: "'ss03' Style Set 3 in Latin lookup 6 subtable" four.alt
Substitution2: "'aalt' Access All Alternates in Latin lookup 0 subtable" four.alt
EndChar

StartChar: four.alt
Encoding: 57351 57351 142
Width: 723
Flags: MW
HStem: 0 21G<511 593 511 511> 186 82<95 511 95 511 593 705> 701 20G<386 477 477 477>
VStem: 511 82<0 186 0 186 268 425>
LayerCount: 2
Fore
SplineSet
593 268 m 1,0,-1
 705 268 l 1,1,-1
 705 186 l 1,2,-1
 593 186 l 1,3,-1
 593 0 l 1,4,-1
 511 0 l 1,5,-1
 511 186 l 1,6,-1
 9 186 l 1,7,-1
 9 279 l 1,8,-1
 386 721 l 1,9,-1
 477 721 l 1,10,-1
 477 690 l 1,11,-1
 95 268 l 1,12,-1
 511 268 l 1,13,-1
 511 425 l 1,14,-1
 593 425 l 1,15,-1
 593 268 l 1,0,-1
EndSplineSet
EndChar

StartChar: g
Encoding: 103 103 143
Width: 683
Flags: MW
HStem: -229 83<148 510 148 510> 0 82<128.5 510 162 510 510 520.5 162 549> 498 82<151.5 510 162 510>
VStem: 41 82<121 459> 549 82<-107 0 0 0 121 459>
LayerCount: 2
Fore
SplineSet
631 -107 m 2,0,1
 631 -158 631 -158 596 -193.5 c 128,-1,2
 561 -229 561 -229 510 -229 c 2,3,-1
 148 -229 l 1,4,-1
 148 -146 l 1,5,-1
 510 -146 l 2,6,7
 526 -146 526 -146 537.5 -134.5 c 128,-1,8
 549 -123 549 -123 549 -107 c 2,9,-1
 549 0 l 1,10,-1
 162 0 l 2,11,12
 112 0 112 0 76.5 35.5 c 128,-1,13
 41 71 41 71 41 121 c 2,14,-1
 41 459 l 2,15,16
 41 509 41 509 76.5 544.5 c 128,-1,17
 112 580 112 580 162 580 c 2,18,-1
 510 580 l 2,19,20
 561 580 561 580 596 544.5 c 128,-1,21
 631 509 631 509 631 459 c 2,22,-1
 631 -107 l 2,0,1
162 82 m 2,23,-1
 510 82 l 2,24,25
 526 82 526 82 537.5 93.5 c 128,-1,26
 549 105 549 105 549 121 c 2,27,-1
 549 459 l 2,28,29
 549 475 549 475 537.5 486.5 c 128,-1,30
 526 498 526 498 510 498 c 2,31,-1
 162 498 l 2,32,33
 146 498 146 498 134.5 486.5 c 128,-1,34
 123 475 123 475 123 459 c 2,35,-1
 123 121 l 2,36,37
 123 105 123 105 134.5 93.5 c 128,-1,38
 146 82 146 82 162 82 c 2,23,-1
EndSplineSet
Substitution2: "'smcp' Lowercase to Small Capitals in Latin lookup 3 subtable" g.sc
Substitution2: "'aalt' Access All Alternates in Latin lookup 0 subtable" g.sc
EndChar

StartChar: g.sc
Encoding: 65564 -1 144
Width: 690
Flags: MW
HStem: 0 82<138.5 520 172 520> 217 82<380 559 380 642> 446 135<172 642 172 559> 499 82<161.5 520 172 520>
VStem: 51 82<121 460> 559 83<121 217 217 217 446 460>
LayerCount: 2
Fore
SplineSet
642 460 m 2,0,-1
 642 446 l 1,1,-1
 559 446 l 1,2,-1
 559 460 l 2,3,4
 559 476 559 476 547.5 487.5 c 128,-1,5
 536 499 536 499 520 499 c 2,6,-1
 172 499 l 2,7,8
 156 499 156 499 144.5 487.5 c 128,-1,9
 133 476 133 476 133 460 c 2,10,-1
 133 121 l 2,11,12
 133 105 133 105 144.5 93.5 c 128,-1,13
 156 82 156 82 172 82 c 2,14,-1
 520 82 l 2,15,16
 536 82 536 82 547.5 93.5 c 128,-1,17
 559 105 559 105 559 121 c 2,18,-1
 559 217 l 1,19,-1
 380 217 l 1,20,-1
 380 299 l 1,21,-1
 642 299 l 1,22,-1
 642 121 l 2,23,24
 642 71 642 71 606.5 35.5 c 128,-1,25
 571 0 571 0 520 0 c 2,26,-1
 172 0 l 2,27,28
 122 0 122 0 86.5 35.5 c 128,-1,29
 51 71 51 71 51 121 c 2,30,-1
 51 460 l 2,31,32
 51 510 51 510 86.5 545.5 c 128,-1,33
 122 581 122 581 172 581 c 2,34,-1
 520 581 l 2,35,36
 571 581 571 581 606.5 545.5 c 128,-1,37
 642 510 642 510 642 460 c 2,0,-1
EndSplineSet
EndChar

StartChar: germandbls
Encoding: 223 223 145
Width: 833
Flags: MW
HStem: 0 82<284 663 284 663> 333 71<284 663 284 663> 644 84<167.5 663 178 663>
VStem: 57 82<0 605 0 606 0 640> 702 82<121 294 443 455 455 605 605 615.5>
LayerCount: 2
Fore
SplineSet
784 626 m 1,0,-1
 784 455 l 2,1,2
 784 415 784 415 754 374 c 1,3,4
 784 335 784 335 784 294 c 2,5,-1
 784 121 l 2,6,7
 784 71 784 71 748.5 35.5 c 128,-1,8
 713 0 713 0 663 0 c 2,9,-1
 284 0 l 1,10,-1
 284 82 l 1,11,-1
 663 82 l 2,12,13
 679 82 679 82 690.5 93.5 c 128,-1,14
 702 105 702 105 702 121 c 2,15,-1
 702 294 l 2,16,17
 702 310 702 310 690.5 321.5 c 128,-1,18
 679 333 679 333 663 333 c 2,19,-1
 284 333 l 1,20,-1
 284 404 l 1,21,-1
 663 404 l 2,22,23
 679 404 679 404 690.5 415.5 c 128,-1,24
 702 427 702 427 702 443 c 2,25,-1
 702 605 l 2,26,27
 702 621 702 621 690.5 632.5 c 128,-1,28
 679 644 679 644 663 644 c 2,29,-1
 178 644 l 2,30,31
 162 644 162 644 150.5 632.5 c 128,-1,32
 139 621 139 621 139 605 c 2,33,-1
 139 0 l 1,34,-1
 57 0 l 1,35,-1
 57 606 l 2,36,37
 57 657 57 657 92 692.5 c 128,-1,38
 127 728 127 728 178 728 c 2,39,-1
 663 728 l 2,40,41
 703 728 703 728 737.5 697.5 c 128,-1,42
 772 667 772 667 784 626 c 1,0,-1
EndSplineSet
EndChar

StartChar: grave
Encoding: 96 96 146
Width: 213
Flags: MW
HStem: 872 139<67 113 32 147 67 67>
LayerCount: 2
Fore
SplineSet
113 1011 m 1,0,-1
 147 872 l 1,1,-1
 67 872 l 1,2,-1
 32 1011 l 1,3,-1
 113 1011 l 1,0,-1
EndSplineSet
EndChar

StartChar: greater
Encoding: 62 62 147
Width: 475
Flags: MW
HStem: 14 21G<59 59> 554 20G<59 59>
LayerCount: 2
Fore
SplineSet
59 14 m 1,0,-1
 59 109 l 1,1,-1
 379 294 l 1,2,-1
 59 479 l 1,3,-1
 59 574 l 1,4,-1
 461 343 l 1,5,-1
 461 246 l 1,6,-1
 59 14 l 1,0,-1
EndSplineSet
EndChar

StartChar: h
Encoding: 104 104 148
Width: 668
Flags: MW
HStem: 0 21G<54 136 54 54 563 645 563 563> 498 82<165 176 176 524> 750 20G<54 136 136 136>
VStem: 54 82<0 459 580 770> 563 82<0 459 0 469.5>
LayerCount: 2
Fore
SplineSet
524 580 m 2,0,1
 574 580 574 580 609.5 544.5 c 128,-1,2
 645 509 645 509 645 459 c 2,3,-1
 645 0 l 1,4,-1
 563 0 l 1,5,-1
 563 459 l 2,6,7
 563 475 563 475 551.5 486.5 c 128,-1,8
 540 498 540 498 524 498 c 2,9,-1
 176 498 l 2,10,11
 160 498 160 498 148 486.5 c 128,-1,12
 136 475 136 475 136 459 c 2,13,-1
 136 0 l 1,14,-1
 54 0 l 1,15,-1
 54 770 l 1,16,-1
 136 770 l 1,17,-1
 136 580 l 1,18,-1
 524 580 l 2,0,1
EndSplineSet
Substitution2: "'smcp' Lowercase to Small Capitals in Latin lookup 3 subtable" h.sc
Substitution2: "'aalt' Access All Alternates in Latin lookup 0 subtable" h.sc
EndChar

StartChar: h.sc
Encoding: 65565 -1 149
Width: 715
Flags: MW
HStem: 0 21G<54 136 54 54 580 662 580 580> 249 82<136 580 136 580> 560 20G<54 136 136 136 580 662 662 662>
VStem: 54 82<0 249 331 580> 580 82<0 249 249 249 331 580 0 580>
LayerCount: 2
Fore
SplineSet
580 580 m 1,0,-1
 662 580 l 1,1,-1
 662 0 l 1,2,-1
 580 0 l 1,3,-1
 580 249 l 1,4,-1
 136 249 l 1,5,-1
 136 0 l 1,6,-1
 54 0 l 1,7,-1
 54 580 l 1,8,-1
 136 580 l 1,9,-1
 136 331 l 1,10,-1
 580 331 l 1,11,-1
 580 580 l 1,0,-1
EndSplineSet
EndChar

StartChar: hyphen
Encoding: 45 45 150
Width: 517
Flags: MW
HStem: 255 82<59 449 59 449>
LayerCount: 2
Fore
SplineSet
449 337 m 1,0,-1
 449 255 l 1,1,-1
 59 255 l 1,2,-1
 59 337 l 1,3,-1
 449 337 l 1,0,-1
EndSplineSet
EndChar

StartChar: i
Encoding: 105 105 151
Width: 208
Flags: MW
HStem: 0 21G<52 52 52 134> 688 82<52 134 52 134>
VStem: 52 82<0 580 0 580 688 770>
LayerCount: 2
Fore
SplineSet
52 0 m 1,0,-1
 52 580 l 1,1,-1
 134 580 l 1,2,-1
 134 0 l 1,3,-1
 52 0 l 1,0,-1
52 770 m 1,4,-1
 134 770 l 1,5,-1
 134 688 l 1,6,-1
 52 688 l 1,7,-1
 52 770 l 1,4,-1
EndSplineSet
Substitution2: "'smcp' Lowercase to Small Capitals in Latin lookup 3 subtable" i.sc
Substitution2: "'aalt' Access All Alternates in Latin lookup 0 subtable" i.sc
EndChar

StartChar: i.sc
Encoding: 65566 -1 152
Width: 214
Flags: MW
HStem: 0 21G<54 54 54 136> 560 20G<54 136 136 136>
VStem: 54 82<0 580 0 580>
LayerCount: 2
Fore
SplineSet
54 0 m 1,0,-1
 54 580 l 1,1,-1
 136 580 l 1,2,-1
 136 0 l 1,3,-1
 54 0 l 1,0,-1
EndSplineSet
EndChar

StartChar: iacute
Encoding: 237 237 153
Width: 214
Flags: MW
HStem: 0 21G<51 51 51 133> 560 20G<51 133 133 133> 763 139<49 163 84 129>
VStem: 51 82<0 580 0 580>
LayerCount: 2
Fore
SplineSet
51 0 m 1,0,-1
 51 580 l 1,1,-1
 133 580 l 1,2,-1
 133 0 l 1,3,-1
 51 0 l 1,0,-1
49 763 m 1,4,-1
 84 902 l 1,5,-1
 163 902 l 1,6,-1
 129 763 l 1,7,-1
 49 763 l 1,4,-1
EndSplineSet
EndChar

StartChar: icircumflex
Encoding: 238 238 154
Width: 214
Flags: MW
HStem: 0 21G<51 51 51 133> 560 20G<51 133 133 133> 763 21G<-15 26 -15 -15 144 144 144 186> 860 20G<56 115 115 115>
VStem: 51 82<0 580 0 580>
LayerCount: 2
Fore
SplineSet
51 0 m 1,0,-1
 51 580 l 1,1,-1
 133 580 l 1,2,-1
 133 0 l 1,3,-1
 51 0 l 1,0,-1
26 763 m 1,4,-1
 -15 763 l 1,5,-1
 56 880 l 1,6,-1
 115 880 l 1,7,-1
 186 763 l 1,8,-1
 144 763 l 1,9,-1
 86 848 l 1,10,-1
 26 763 l 1,4,-1
EndSplineSet
EndChar

StartChar: idieresis
Encoding: 239 239 155
Width: 214
Flags: MW
HStem: 0 21G<55 55 55 137> 560 20G<55 137 137 137> 765 82<-32 51 -32 51 148 230>
VStem: -32 83<765 847 765 847> 55 82<0 580 0 580> 148 82<765 847 765 847>
LayerCount: 2
Fore
SplineSet
55 0 m 1,0,-1
 55 580 l 1,1,-1
 137 580 l 1,2,-1
 137 0 l 1,3,-1
 55 0 l 1,0,-1
230 847 m 1,4,-1
 230 765 l 1,5,-1
 148 765 l 1,6,-1
 148 847 l 1,7,-1
 230 847 l 1,4,-1
51 847 m 1,8,-1
 51 765 l 1,9,-1
 -32 765 l 1,10,-1
 -32 847 l 1,11,-1
 51 847 l 1,8,-1
EndSplineSet
EndChar

StartChar: igrave
Encoding: 236 236 156
Width: 214
Flags: MW
HStem: 0 21G<56 56 56 138> 560 20G<56 138 138 138> 764 139<51 97 16 131 51 51>
VStem: 56 82<0 580 0 580>
LayerCount: 2
Fore
SplineSet
56 0 m 1,0,-1
 56 580 l 1,1,-1
 138 580 l 1,2,-1
 138 0 l 1,3,-1
 56 0 l 1,0,-1
97 903 m 1,4,-1
 131 764 l 1,5,-1
 51 764 l 1,6,-1
 16 903 l 1,7,-1
 97 903 l 1,4,-1
EndSplineSet
EndChar

StartChar: j
Encoding: 106 106 157
Width: 239
Flags: MW
HStem: -243 83<-187 58 -187 58> 688 82<97 180 97 180>
VStem: 97 83<-121 580 688 770>
LayerCount: 2
Fore
SplineSet
97 770 m 1,0,-1
 180 770 l 1,1,-1
 180 688 l 1,2,-1
 97 688 l 1,3,-1
 97 770 l 1,0,-1
180 580 m 1,4,-1
 180 -121 l 2,5,6
 180 -172 180 -172 144.5 -207.5 c 128,-1,7
 109 -243 109 -243 58 -243 c 2,8,-1
 -187 -243 l 1,9,-1
 -187 -160 l 1,10,-1
 58 -160 l 2,11,12
 74 -160 74 -160 85.5 -148.5 c 128,-1,13
 97 -137 97 -137 97 -121 c 2,14,-1
 97 580 l 1,15,-1
 180 580 l 1,4,-1
EndSplineSet
Substitution2: "'smcp' Lowercase to Small Capitals in Latin lookup 3 subtable" j.sc
Substitution2: "'aalt' Access All Alternates in Latin lookup 0 subtable" j.sc
EndChar

StartChar: j.sc
Encoding: 65567 -1 158
Width: 657
Flags: MW
HStem: 0 82<92.5 485 126 485> 0 169<5 126 5 485> 560 20G<524 606 606 606>
VStem: 5 82<121 169 110.5 169> 524 82<121 580>
LayerCount: 2
Fore
SplineSet
524 121 m 2,0,-1
 524 580 l 1,1,-1
 606 580 l 1,2,-1
 606 121 l 2,3,4
 606 71 606 71 570.5 35.5 c 128,-1,5
 535 0 535 0 485 0 c 2,6,-1
 126 0 l 2,7,8
 76 0 76 0 40.5 35.5 c 128,-1,9
 5 71 5 71 5 121 c 2,10,-1
 5 169 l 1,11,-1
 87 169 l 1,12,-1
 87 121 l 2,13,14
 87 105 87 105 98.5 93.5 c 128,-1,15
 110 82 110 82 126 82 c 2,16,-1
 485 82 l 2,17,18
 501 82 501 82 512.5 93.5 c 128,-1,19
 524 105 524 105 524 121 c 2,0,-1
EndSplineSet
EndChar

StartChar: k
Encoding: 107 107 159
Width: 646
Flags: MW
HStem: 0 21G<54 136 54 54 524 631 524 524> 249 82<136 296 136 296> 750 20G<54 136 136 136>
VStem: 54 82<0 249 331 770>
LayerCount: 2
Fore
SplineSet
524 580 m 1,0,-1
 632 580 l 1,1,-1
 369 290 l 1,2,-1
 631 0 l 1,3,-1
 524 0 l 1,4,-1
 296 249 l 1,5,-1
 136 249 l 1,6,-1
 136 0 l 1,7,-1
 54 0 l 1,8,-1
 54 770 l 1,9,-1
 136 770 l 1,10,-1
 136 331 l 1,11,-1
 296 331 l 1,12,-1
 524 580 l 1,0,-1
EndSplineSet
Substitution2: "'smcp' Lowercase to Small Capitals in Latin lookup 3 subtable" k.sc
Substitution2: "'salt' Stylistic Alternatives in Latin lookup 2 subtable" k.alt
AlternateSubs2: "'aalt' Access All Alternates in Latin lookup 1 subtable" k.sc k.alt
EndChar

StartChar: k.alt
Encoding: 65568 -1 160
Width: 669
Flags: MW
HStem: 0 21G<54 136 54 54 563 645 563 563> 249 82<136 524 136 524> 750 20G<54 136 136 136>
VStem: 54 82<0 249 331 770> 563 82<0 210 0 220.5 370 580>
LayerCount: 2
Fore
SplineSet
645 580 m 1,0,-1
 645 370 l 2,1,2
 645 330 645 330 616 290 c 1,3,4
 645 250 645 250 645 210 c 2,5,-1
 645 0 l 1,6,-1
 563 0 l 1,7,-1
 563 210 l 2,8,9
 563 226 563 226 551.5 237.5 c 128,-1,10
 540 249 540 249 524 249 c 2,11,-1
 136 249 l 1,12,-1
 136 0 l 1,13,-1
 54 0 l 1,14,-1
 54 770 l 1,15,-1
 136 770 l 1,16,-1
 136 331 l 1,17,-1
 524 331 l 2,18,19
 540 331 540 331 551.5 342.5 c 128,-1,20
 563 354 563 354 563 370 c 2,21,-1
 563 580 l 1,22,-1
 645 580 l 1,0,-1
EndSplineSet
EndChar

StartChar: k.sc
Encoding: 65569 -1 161
Width: 682
Flags: MW
HStem: 0 21G<54 136 54 54 524 631 524 524> 249 82<136 296 136 296> 560 20G<54 136 136 136 524 632 632 632>
VStem: 54 82<0 249 331 580>
LayerCount: 2
Fore
SplineSet
524 580 m 1,0,-1
 632 580 l 1,1,-1
 369 290 l 1,2,-1
 631 0 l 1,3,-1
 524 0 l 1,4,-1
 296 249 l 1,5,-1
 136 249 l 1,6,-1
 136 0 l 1,7,-1
 54 0 l 1,8,-1
 54 580 l 1,9,-1
 136 580 l 1,10,-1
 136 331 l 1,11,-1
 296 331 l 1,12,-1
 524 580 l 1,0,-1
EndSplineSet
EndChar

StartChar: l
Encoding: 108 108 162
Width: 302
Flags: MW
HStem: 0 82<139.5 271 173 271> 750 20G<52 134 134 134>
VStem: 52 82<121 770> 52 219<0 770>
LayerCount: 2
Fore
SplineSet
52 770 m 1,0,-1
 134 770 l 1,1,-1
 134 121 l 2,2,3
 134 105 134 105 145.5 93.5 c 128,-1,4
 157 82 157 82 173 82 c 2,5,-1
 271 82 l 1,6,-1
 271 0 l 1,7,-1
 173 0 l 2,8,9
 123 0 123 0 87.5 35.5 c 128,-1,10
 52 71 52 71 52 121 c 2,11,-1
 52 770 l 1,0,-1
EndSplineSet
Substitution2: "'smcp' Lowercase to Small Capitals in Latin lookup 3 subtable" l.sc
Substitution2: "'aalt' Access All Alternates in Latin lookup 0 subtable" l.sc
EndChar

StartChar: l.sc
Encoding: 65570 -1 163
Width: 659
Flags: MW
HStem: 0 82<136 655 136 655> 560 20G<54 136 136 136>
VStem: 54 82<82 580 82 580 82 580>
LayerCount: 2
Fore
SplineSet
54 0 m 1,0,-1
 54 580 l 1,1,-1
 136 580 l 1,2,-1
 136 82 l 1,3,-1
 655 82 l 1,4,-1
 655 0 l 1,5,-1
 54 0 l 1,0,-1
EndSplineSet
EndChar

StartChar: less
Encoding: 60 60 164
Width: 473
Flags: MW
HStem: 16 21G<407 407> 556 20G<407 407>
LayerCount: 2
Fore
SplineSet
87 296 m 1,0,-1
 407 111 l 1,1,-1
 407 16 l 1,2,-1
 5 248 l 1,3,-1
 5 345 l 1,4,-1
 407 576 l 1,5,-1
 407 481 l 1,6,-1
 87 296 l 1,0,-1
EndSplineSet
EndChar

StartChar: m
Encoding: 109 109 165
Width: 978
Flags: MW
HStem: 0 21G<54 137 54 54 457 540 457 457 860 941 860 860> 498 82<165.5 176 176 418 568 579 579 820>
VStem: 54 83<0 459 0 580> 457 83<0 459 0 469.5> 860 81<0 459 0 469.5>
LayerCount: 2
Fore
SplineSet
820 580 m 2,0,1
 871 580 871 580 906 544.5 c 128,-1,2
 941 509 941 509 941 459 c 2,3,-1
 941 0 l 1,4,-1
 860 0 l 1,5,-1
 860 459 l 2,6,7
 860 475 860 475 848 486.5 c 128,-1,8
 836 498 836 498 820 498 c 2,9,-1
 579 498 l 2,10,11
 563 498 563 498 551.5 486.5 c 128,-1,12
 540 475 540 475 540 459 c 2,13,-1
 540 0 l 1,14,-1
 457 0 l 1,15,-1
 457 459 l 2,16,17
 457 475 457 475 445.5 486.5 c 128,-1,18
 434 498 434 498 418 498 c 2,19,-1
 176 498 l 2,20,21
 160 498 160 498 148.5 486.5 c 128,-1,22
 137 475 137 475 137 459 c 2,23,-1
 137 0 l 1,24,-1
 54 0 l 1,25,-1
 54 580 l 1,26,-1
 820 580 l 2,0,1
EndSplineSet
Substitution2: "'smcp' Lowercase to Small Capitals in Latin lookup 3 subtable" m.sc
Substitution2: "'aalt' Access All Alternates in Latin lookup 0 subtable" m.sc
EndChar

StartChar: m.sc
Encoding: 65571 -1 166
Width: 824
Flags: MW
HStem: 0 21G<54 136 54 54 695 777 695 695> 561 20G<54 164 164 164 664 777 777 777>
VStem: 54 82<0 505 0 581 0 581> 695 82<0 505 505 505>
LayerCount: 2
Fore
SplineSet
415 223 m 1,0,-1
 664 581 l 1,1,-1
 777 581 l 1,2,-1
 777 0 l 1,3,-1
 695 0 l 1,4,-1
 695 505 l 1,5,-1
 415 107 l 1,6,-1
 136 505 l 1,7,-1
 136 0 l 1,8,-1
 54 0 l 1,9,-1
 54 581 l 1,10,-1
 164 581 l 1,11,-1
 415 223 l 1,0,-1
EndSplineSet
EndChar

StartChar: minus
Encoding: 8722 8722 167
Width: 517
Flags: MW
HStem: 255 82<59 449 59 449>
LayerCount: 2
Fore
SplineSet
449 337 m 1,0,-1
 449 255 l 1,1,-1
 59 255 l 1,2,-1
 59 337 l 1,3,-1
 449 337 l 1,0,-1
EndSplineSet
EndChar

StartChar: multiply
Encoding: 215 215 168
Width: 546
Flags: MW
HStem: 95 21G<54 161 54 54 372 478 372 372> 486 20G<53 161 161 161 372 478 478 478>
LayerCount: 2
Fore
SplineSet
266 362 m 1,0,-1
 372 506 l 1,1,-1
 478 506 l 1,2,-1
 320 301 l 1,3,-1
 478 95 l 1,4,-1
 372 95 l 1,5,-1
 266 239 l 1,6,-1
 161 95 l 1,7,-1
 54 95 l 1,8,-1
 212 301 l 1,9,-1
 53 506 l 1,10,-1
 161 506 l 1,11,-1
 266 362 l 1,0,-1
EndSplineSet
EndChar

StartChar: n
Encoding: 110 110 169
Width: 696
Flags: MW
HStem: 0 21G<54 136 54 54 563 645 563 563> 498 82<165 176 176 524>
VStem: 54 82<0 459 0 580> 563 82<0 459 0 469.5>
LayerCount: 2
Fore
SplineSet
524 580 m 2,0,1
 574 580 574 580 609.5 544.5 c 128,-1,2
 645 509 645 509 645 459 c 2,3,-1
 645 0 l 1,4,-1
 563 0 l 1,5,-1
 563 459 l 2,6,7
 563 475 563 475 551.5 486.5 c 128,-1,8
 540 498 540 498 524 498 c 2,9,-1
 176 498 l 2,10,11
 160 498 160 498 148 486.5 c 128,-1,12
 136 475 136 475 136 459 c 2,13,-1
 136 0 l 1,14,-1
 54 0 l 1,15,-1
 54 580 l 1,16,-1
 524 580 l 2,0,1
EndSplineSet
Substitution2: "'smcp' Lowercase to Small Capitals in Latin lookup 3 subtable" n.sc
Substitution2: "'aalt' Access All Alternates in Latin lookup 0 subtable" n.sc
EndChar

StartChar: n.sc
Encoding: 65572 -1 170
Width: 708
Flags: MW
HStem: 0 21G<54 136 54 54 544 655 544 544> 560 20G<54 165 165 165 573 655 655 655>
VStem: 54 82<0 489 0 580> 573 82<92 580 0 580>
LayerCount: 2
Fore
SplineSet
573 92 m 1,0,-1
 573 580 l 1,1,-1
 655 580 l 1,2,-1
 655 0 l 1,3,-1
 544 0 l 1,4,-1
 136 489 l 1,5,-1
 136 0 l 1,6,-1
 54 0 l 1,7,-1
 54 580 l 1,8,-1
 165 580 l 1,9,-1
 573 92 l 1,0,-1
EndSplineSet
EndChar

StartChar: nine
Encoding: 57 57 171
Width: 828
Flags: MW
HStem: 0 82<146.5 173 173 658> 305 82<139 697 173 658> 638 83<162.5 658 173 658>
VStem: 51 83<426 599> 697 82<121 266 266 276.5 387 599>
LayerCount: 2
Fore
SplineSet
658 305 m 2,0,-1
 173 305 l 2,1,2
 122 305 122 305 86.5 340.5 c 128,-1,3
 51 376 51 376 51 426 c 2,4,-1
 51 599 l 2,5,6
 51 650 51 650 86.5 685.5 c 128,-1,7
 122 721 122 721 173 721 c 2,8,-1
 658 721 l 2,9,10
 708 721 708 721 743.5 685.5 c 128,-1,11
 779 650 779 650 779 599 c 2,12,-1
 779 121 l 2,13,14
 779 71 779 71 743.5 35.5 c 128,-1,15
 708 0 708 0 658 0 c 2,16,-1
 173 0 l 2,17,18
 134 0 134 0 102 23 c 128,-1,19
 70 46 70 46 58 82 c 1,20,-1
 658 82 l 2,21,22
 674 82 674 82 685.5 93.5 c 128,-1,23
 697 105 697 105 697 121 c 2,24,-1
 697 266 l 2,25,26
 697 282 697 282 685.5 293.5 c 128,-1,27
 674 305 674 305 658 305 c 2,0,-1
134 599 m 2,28,-1
 134 426 l 2,29,30
 134 410 134 410 145.5 398.5 c 128,-1,31
 157 387 157 387 173 387 c 2,32,-1
 697 387 l 1,33,-1
 697 599 l 2,34,35
 697 615 697 615 685.5 626.5 c 128,-1,36
 674 638 674 638 658 638 c 2,37,-1
 173 638 l 2,38,39
 157 638 157 638 145.5 626.5 c 128,-1,40
 134 615 134 615 134 599 c 2,28,-1
EndSplineSet
Substitution2: "'ss03' Style Set 3 in Latin lookup 6 subtable" nine.alt
Substitution2: "'aalt' Access All Alternates in Latin lookup 0 subtable" nine.alt
EndChar

StartChar: nine.alt
Encoding: 57347 57347 172
Width: 784
Flags: MW
HStem: 0 21G<658 740 658 658> 303 82<100 658 134 619> 636 83<123.5 619 134 619>
VStem: 12 83<424 597> 658 82<0 264 264 274.5 385 597 0 607.5>
LayerCount: 2
Fore
SplineSet
134 719 m 2,0,-1
 619 719 l 2,1,2
 669 719 669 719 704.5 683.5 c 128,-1,3
 740 648 740 648 740 597 c 2,4,-1
 740 0 l 1,5,-1
 658 0 l 1,6,-1
 658 264 l 2,7,8
 658 280 658 280 646.5 291.5 c 128,-1,9
 635 303 635 303 619 303 c 2,10,-1
 134 303 l 2,11,12
 83 303 83 303 47.5 338.5 c 128,-1,13
 12 374 12 374 12 424 c 2,14,-1
 12 597 l 2,15,16
 12 648 12 648 47.5 683.5 c 128,-1,17
 83 719 83 719 134 719 c 2,0,-1
658 385 m 1,18,-1
 658 597 l 2,19,20
 658 613 658 613 646.5 624.5 c 128,-1,21
 635 636 635 636 619 636 c 2,22,-1
 134 636 l 2,23,24
 118 636 118 636 106.5 624.5 c 128,-1,25
 95 613 95 613 95 597 c 2,26,-1
 95 424 l 2,27,28
 95 408 95 408 106.5 396.5 c 128,-1,29
 118 385 118 385 134 385 c 2,30,-1
 658 385 l 1,18,-1
EndSplineSet
EndChar

StartChar: ntilde
Encoding: 241 241 173
Width: 708
Flags: MW
HStem: 0 21G<54 136 54 54 563 645 563 563> 498 82<165 176 176 524> 765 120 837 48<232 277.5 228 281>
VStem: 54 82<0 459 0 580> 563 82<0 459 0 469.5>
LayerCount: 2
Fore
SplineSet
524 580 m 2,0,1
 574 580 574 580 609.5 544.5 c 128,-1,2
 645 509 645 509 645 459 c 2,3,-1
 645 0 l 1,4,-1
 563 0 l 1,5,-1
 563 459 l 2,6,7
 563 475 563 475 551.5 486.5 c 128,-1,8
 540 498 540 498 524 498 c 2,9,-1
 176 498 l 2,10,11
 160 498 160 498 148 486.5 c 128,-1,12
 136 475 136 475 136 459 c 2,13,-1
 136 0 l 1,14,-1
 54 0 l 1,15,-1
 54 580 l 1,16,-1
 524 580 l 2,0,1
449 813 m 1,17,-1
 451 813 l 2,18,19
 481 813 481 813 517 830 c 1,20,-1
 517 779 l 1,21,22
 479 765 479 765 451 765 c 0,23,24
 416 765 416 765 349 801 c 128,-1,25
 282 837 282 837 240 837 c 0,26,27
 201 837 201 837 178 829 c 1,28,-1
 178 876 l 1,29,30
 205 885 205 885 240 885 c 0,31,32
 280 885 280 885 347 851.5 c 128,-1,33
 414 818 414 818 449 813 c 1,17,-1
EndSplineSet
EndChar

StartChar: numbersign
Encoding: 35 35 174
Width: 797
Flags: MW
HStem: 0 21G<79 161 79 79 420 502 420 420> 171 82<32 133 32 159 241 474 32 214 581 740> 473 82<64 230 64 256 64 311 336 571 677 773> 473 246<64 393 311 393 312 393 312 571 653 734>
LayerCount: 2
Fore
SplineSet
773 555 m 1,0,-1
 773 473 l 1,1,-1
 652 473 l 1,2,-1
 581 253 l 1,3,-1
 740 253 l 1,4,-1
 740 171 l 1,5,-1
 555 171 l 1,6,-1
 502 0 l 1,7,-1
 420 0 l 1,8,-1
 474 171 l 1,9,-1
 214 171 l 1,10,-1
 161 0 l 1,11,-1
 79 0 l 1,12,-1
 133 171 l 1,13,-1
 32 171 l 1,14,-1
 32 253 l 1,15,-1
 159 253 l 1,16,-1
 230 473 l 1,17,-1
 64 473 l 1,18,-1
 64 555 l 1,19,-1
 256 555 l 1,20,-1
 312 719 l 1,21,-1
 393 719 l 1,22,-1
 336 555 l 1,23,-1
 597 555 l 1,24,-1
 653 719 l 1,25,-1
 734 719 l 1,26,-1
 677 555 l 1,27,-1
 773 555 l 1,0,-1
241 253 m 1,28,-1
 500 253 l 1,29,-1
 571 473 l 1,30,-1
 311 473 l 1,31,-1
 241 253 l 1,28,-1
EndSplineSet
EndChar

StartChar: o
Encoding: 111 111 175
Width: 692
Flags: MW
HStem: 0 82<138.5 520 172 520> 498 82<161.5 520 172 520>
VStem: 51 82<121 459> 559 83<121 459>
LayerCount: 2
Fore
SplineSet
172 580 m 2,0,-1
 520 580 l 2,1,2
 571 580 571 580 606.5 544.5 c 128,-1,3
 642 509 642 509 642 459 c 2,4,-1
 642 121 l 2,5,6
 642 71 642 71 606.5 35.5 c 128,-1,7
 571 0 571 0 520 0 c 2,8,-1
 172 0 l 2,9,10
 122 0 122 0 86.5 35.5 c 128,-1,11
 51 71 51 71 51 121 c 2,12,-1
 51 459 l 2,13,14
 51 509 51 509 86.5 544.5 c 128,-1,15
 122 580 122 580 172 580 c 2,0,-1
520 498 m 2,16,-1
 172 498 l 2,17,18
 156 498 156 498 144.5 486.5 c 128,-1,19
 133 475 133 475 133 459 c 2,20,-1
 133 121 l 2,21,22
 133 105 133 105 144.5 93.5 c 128,-1,23
 156 82 156 82 172 82 c 2,24,-1
 520 82 l 2,25,26
 536 82 536 82 547.5 93.5 c 128,-1,27
 559 105 559 105 559 121 c 2,28,-1
 559 459 l 2,29,30
 559 475 559 475 547.5 486.5 c 128,-1,31
 536 498 536 498 520 498 c 2,16,-1
EndSplineSet
Substitution2: "'smcp' Lowercase to Small Capitals in Latin lookup 3 subtable" o.sc
Substitution2: "'aalt' Access All Alternates in Latin lookup 0 subtable" o.sc
EndChar

StartChar: o.sc
Encoding: 65573 -1 176
Width: 692
Flags: MW
HStem: 0 82<138.5 520 172 520> 498 82<161.5 520 172 520>
VStem: 51 82<121 459> 559 83<121 459>
LayerCount: 2
Fore
SplineSet
172 580 m 2,0,-1
 520 580 l 2,1,2
 571 580 571 580 606.5 544.5 c 128,-1,3
 642 509 642 509 642 459 c 2,4,-1
 642 121 l 2,5,6
 642 71 642 71 606.5 35.5 c 128,-1,7
 571 0 571 0 520 0 c 2,8,-1
 172 0 l 2,9,10
 122 0 122 0 86.5 35.5 c 128,-1,11
 51 71 51 71 51 121 c 2,12,-1
 51 459 l 2,13,14
 51 509 51 509 86.5 544.5 c 128,-1,15
 122 580 122 580 172 580 c 2,0,-1
172 82 m 2,16,-1
 520 82 l 2,17,18
 536 82 536 82 547.5 93.5 c 128,-1,19
 559 105 559 105 559 121 c 2,20,-1
 559 459 l 2,21,22
 559 475 559 475 547.5 486.5 c 128,-1,23
 536 498 536 498 520 498 c 2,24,-1
 172 498 l 2,25,26
 156 498 156 498 144.5 486.5 c 128,-1,27
 133 475 133 475 133 459 c 2,28,-1
 133 121 l 2,29,30
 133 105 133 105 144.5 93.5 c 128,-1,31
 156 82 156 82 172 82 c 2,16,-1
EndSplineSet
EndChar

StartChar: oacute
Encoding: 243 243 177
Width: 692
Flags: MW
HStem: 0 82<138.5 520 172 520> 498 82<161.5 520 172 520> 764 139<272 386 307 352>
VStem: 51 82<121 459> 559 83<121 459>
LayerCount: 2
Fore
SplineSet
172 580 m 2,0,-1
 520 580 l 2,1,2
 571 580 571 580 606.5 544.5 c 128,-1,3
 642 509 642 509 642 459 c 2,4,-1
 642 121 l 2,5,6
 642 71 642 71 606.5 35.5 c 128,-1,7
 571 0 571 0 520 0 c 2,8,-1
 172 0 l 2,9,10
 122 0 122 0 86.5 35.5 c 128,-1,11
 51 71 51 71 51 121 c 2,12,-1
 51 459 l 2,13,14
 51 509 51 509 86.5 544.5 c 128,-1,15
 122 580 122 580 172 580 c 2,0,-1
520 498 m 2,16,-1
 172 498 l 2,17,18
 156 498 156 498 144.5 486.5 c 128,-1,19
 133 475 133 475 133 459 c 2,20,-1
 133 121 l 2,21,22
 133 105 133 105 144.5 93.5 c 128,-1,23
 156 82 156 82 172 82 c 2,24,-1
 520 82 l 2,25,26
 536 82 536 82 547.5 93.5 c 128,-1,27
 559 105 559 105 559 121 c 2,28,-1
 559 459 l 2,29,30
 559 475 559 475 547.5 486.5 c 128,-1,31
 536 498 536 498 520 498 c 2,16,-1
272 764 m 1,32,-1
 307 903 l 1,33,-1
 386 903 l 1,34,-1
 352 764 l 1,35,-1
 272 764 l 1,32,-1
EndSplineSet
EndChar

StartChar: ocircumflex
Encoding: 244 244 178
Width: 692
Flags: MW
HStem: 0 82<138.5 520 172 520> 498 82<161.5 520 172 520> 763 21G<224 265 224 224 383 383 383 425> 860 20G<295 354 354 354>
VStem: 51 82<121 459> 559 83<121 459>
LayerCount: 2
Fore
SplineSet
172 580 m 2,0,-1
 520 580 l 2,1,2
 571 580 571 580 606.5 544.5 c 128,-1,3
 642 509 642 509 642 459 c 2,4,-1
 642 121 l 2,5,6
 642 71 642 71 606.5 35.5 c 128,-1,7
 571 0 571 0 520 0 c 2,8,-1
 172 0 l 2,9,10
 122 0 122 0 86.5 35.5 c 128,-1,11
 51 71 51 71 51 121 c 2,12,-1
 51 459 l 2,13,14
 51 509 51 509 86.5 544.5 c 128,-1,15
 122 580 122 580 172 580 c 2,0,-1
520 498 m 2,16,-1
 172 498 l 2,17,18
 156 498 156 498 144.5 486.5 c 128,-1,19
 133 475 133 475 133 459 c 2,20,-1
 133 121 l 2,21,22
 133 105 133 105 144.5 93.5 c 128,-1,23
 156 82 156 82 172 82 c 2,24,-1
 520 82 l 2,25,26
 536 82 536 82 547.5 93.5 c 128,-1,27
 559 105 559 105 559 121 c 2,28,-1
 559 459 l 2,29,30
 559 475 559 475 547.5 486.5 c 128,-1,31
 536 498 536 498 520 498 c 2,16,-1
265 763 m 1,32,-1
 224 763 l 1,33,-1
 295 880 l 1,34,-1
 354 880 l 1,35,-1
 425 763 l 1,36,-1
 383 763 l 1,37,-1
 325 848 l 1,38,-1
 265 763 l 1,32,-1
EndSplineSet
EndChar

StartChar: odieresis
Encoding: 246 246 179
Width: 692
Flags: MW
HStem: 0 82<138.5 520 172 520> 498 82<161.5 520 172 520> 765 82<207 290 207 290 387 469>
VStem: 51 82<121 459> 207 83<765 847 765 847> 387 82<765 847 765 847> 559 83<121 459>
LayerCount: 2
Fore
SplineSet
172 580 m 2,0,-1
 520 580 l 2,1,2
 571 580 571 580 606.5 544.5 c 128,-1,3
 642 509 642 509 642 459 c 2,4,-1
 642 121 l 2,5,6
 642 71 642 71 606.5 35.5 c 128,-1,7
 571 0 571 0 520 0 c 2,8,-1
 172 0 l 2,9,10
 122 0 122 0 86.5 35.5 c 128,-1,11
 51 71 51 71 51 121 c 2,12,-1
 51 459 l 2,13,14
 51 509 51 509 86.5 544.5 c 128,-1,15
 122 580 122 580 172 580 c 2,0,-1
520 498 m 2,16,-1
 172 498 l 2,17,18
 156 498 156 498 144.5 486.5 c 128,-1,19
 133 475 133 475 133 459 c 2,20,-1
 133 121 l 2,21,22
 133 105 133 105 144.5 93.5 c 128,-1,23
 156 82 156 82 172 82 c 2,24,-1
 520 82 l 2,25,26
 536 82 536 82 547.5 93.5 c 128,-1,27
 559 105 559 105 559 121 c 2,28,-1
 559 459 l 2,29,30
 559 475 559 475 547.5 486.5 c 128,-1,31
 536 498 536 498 520 498 c 2,16,-1
469 847 m 1,32,-1
 469 765 l 1,33,-1
 387 765 l 1,34,-1
 387 847 l 1,35,-1
 469 847 l 1,32,-1
290 847 m 1,36,-1
 290 765 l 1,37,-1
 207 765 l 1,38,-1
 207 847 l 1,39,-1
 290 847 l 1,36,-1
EndSplineSet
EndChar

StartChar: oe
Encoding: 339 339 180
Width: 1177
Flags: MW
HStem: 0 82<139 521 173 521 521 531.5 681 1150> 249 82<642 1068 642 1150 642 1068> 498 82<162.5 1029 173 521 670.5 681 681 1029>
VStem: 52 82<121 459> 560 82<121 249 331 459> 1068 82<331 459>
CounterMasks: 1 fc
LayerCount: 2
Fore
SplineSet
1150 249 m 1,0,-1
 642 249 l 1,1,-1
 642 121 l 2,2,3
 642 105 642 105 653.5 93.5 c 128,-1,4
 665 82 665 82 681 82 c 2,5,-1
 1150 82 l 1,6,-1
 1150 0 l 1,7,-1
 173 0 l 2,8,9
 122 0 122 0 87 35.5 c 128,-1,10
 52 71 52 71 52 121 c 2,11,-1
 52 459 l 2,12,13
 52 509 52 509 87 544.5 c 128,-1,14
 122 580 122 580 173 580 c 2,15,-1
 1029 580 l 2,16,17
 1080 580 1080 580 1115 544.5 c 128,-1,18
 1150 509 1150 509 1150 459 c 2,19,-1
 1150 249 l 1,0,-1
681 498 m 2,20,21
 665 498 665 498 653.5 486.5 c 128,-1,22
 642 475 642 475 642 459 c 2,23,-1
 642 331 l 1,24,-1
 1068 331 l 1,25,-1
 1068 459 l 2,26,27
 1068 475 1068 475 1056.5 486.5 c 128,-1,28
 1045 498 1045 498 1029 498 c 2,29,-1
 681 498 l 2,20,21
521 82 m 2,30,31
 537 82 537 82 548.5 93.5 c 128,-1,32
 560 105 560 105 560 121 c 2,33,-1
 560 459 l 2,34,35
 560 475 560 475 548.5 486.5 c 128,-1,36
 537 498 537 498 521 498 c 2,37,-1
 173 498 l 2,38,39
 157 498 157 498 145.5 486.5 c 128,-1,40
 134 475 134 475 134 459 c 2,41,-1
 134 121 l 2,42,43
 134 105 134 105 145.5 93.5 c 128,-1,44
 157 82 157 82 173 82 c 2,45,-1
 521 82 l 2,30,31
EndSplineSet
EndChar

StartChar: ograve
Encoding: 242 242 181
Width: 692
Flags: MW
HStem: 0 82<138.5 520 172 520> 498 82<161.5 520 172 520> 764 139<307 353 272 387 307 307>
VStem: 51 82<121 459> 559 83<121 459>
LayerCount: 2
Fore
SplineSet
172 580 m 2,0,-1
 520 580 l 2,1,2
 571 580 571 580 606.5 544.5 c 128,-1,3
 642 509 642 509 642 459 c 2,4,-1
 642 121 l 2,5,6
 642 71 642 71 606.5 35.5 c 128,-1,7
 571 0 571 0 520 0 c 2,8,-1
 172 0 l 2,9,10
 122 0 122 0 86.5 35.5 c 128,-1,11
 51 71 51 71 51 121 c 2,12,-1
 51 459 l 2,13,14
 51 509 51 509 86.5 544.5 c 128,-1,15
 122 580 122 580 172 580 c 2,0,-1
520 498 m 2,16,-1
 172 498 l 2,17,18
 156 498 156 498 144.5 486.5 c 128,-1,19
 133 475 133 475 133 459 c 2,20,-1
 133 121 l 2,21,22
 133 105 133 105 144.5 93.5 c 128,-1,23
 156 82 156 82 172 82 c 2,24,-1
 520 82 l 2,25,26
 536 82 536 82 547.5 93.5 c 128,-1,27
 559 105 559 105 559 121 c 2,28,-1
 559 459 l 2,29,30
 559 475 559 475 547.5 486.5 c 128,-1,31
 536 498 536 498 520 498 c 2,16,-1
353 903 m 1,32,-1
 387 764 l 1,33,-1
 307 764 l 1,34,-1
 272 903 l 1,35,-1
 353 903 l 1,32,-1
EndSplineSet
EndChar

StartChar: one
Encoding: 49 49 182
Width: 391
Flags: MW
HStem: 0 21G<219 302 219 219> 700 20G<190 302 302 302>
VStem: 219 83<0 628 628 628>
LayerCount: 2
Fore
SplineSet
1 495 m 1,0,-1
 190 720 l 1,1,-1
 302 720 l 1,2,-1
 302 0 l 1,3,-1
 219 0 l 1,4,-1
 219 628 l 1,5,6
 205 610 205 610 163.5 561 c 128,-1,7
 122 512 122 512 108 495 c 1,8,-1
 1 495 l 1,0,-1
EndSplineSet
EndChar

StartChar: otilde
Encoding: 245 245 183
Width: 692
Flags: MW
HStem: 0 82<138.5 520 172 520> 498 82<161.5 520 172 520> 765 120 837 48<224 269.5 220 273>
VStem: 51 82<121 459> 559 83<121 459>
LayerCount: 2
Fore
SplineSet
172 580 m 2,0,-1
 520 580 l 2,1,2
 571 580 571 580 606.5 544.5 c 128,-1,3
 642 509 642 509 642 459 c 2,4,-1
 642 121 l 2,5,6
 642 71 642 71 606.5 35.5 c 128,-1,7
 571 0 571 0 520 0 c 2,8,-1
 172 0 l 2,9,10
 122 0 122 0 86.5 35.5 c 128,-1,11
 51 71 51 71 51 121 c 2,12,-1
 51 459 l 2,13,14
 51 509 51 509 86.5 544.5 c 128,-1,15
 122 580 122 580 172 580 c 2,0,-1
520 498 m 2,16,-1
 172 498 l 2,17,18
 156 498 156 498 144.5 486.5 c 128,-1,19
 133 475 133 475 133 459 c 2,20,-1
 133 121 l 2,21,22
 133 105 133 105 144.5 93.5 c 128,-1,23
 156 82 156 82 172 82 c 2,24,-1
 520 82 l 2,25,26
 536 82 536 82 547.5 93.5 c 128,-1,27
 559 105 559 105 559 121 c 2,28,-1
 559 459 l 2,29,30
 559 475 559 475 547.5 486.5 c 128,-1,31
 536 498 536 498 520 498 c 2,16,-1
441 813 m 1,32,-1
 443 813 l 2,33,34
 473 813 473 813 509 830 c 1,35,-1
 509 779 l 1,36,37
 471 765 471 765 443 765 c 0,38,39
 408 765 408 765 341 801 c 128,-1,40
 274 837 274 837 232 837 c 0,41,42
 193 837 193 837 170 829 c 1,43,-1
 170 876 l 1,44,45
 197 885 197 885 232 885 c 0,46,47
 272 885 272 885 339 851.5 c 128,-1,48
 406 818 406 818 441 813 c 1,32,-1
EndSplineSet
EndChar

StartChar: p
Encoding: 112 112 184
Width: 664
Flags: MW
HStem: -230 21G<54 136 54 54> 0 82<176 524 176 524 136 524> 498 82<165 176 176 524>
VStem: 54 82<-230 0 110.5 121 121 459> 563 82<121 459>
LayerCount: 2
Fore
SplineSet
524 580 m 2,0,1
 574 580 574 580 609.5 544.5 c 128,-1,2
 645 509 645 509 645 459 c 2,3,-1
 645 121 l 2,4,5
 645 71 645 71 609.5 35.5 c 128,-1,6
 574 0 574 0 524 0 c 2,7,-1
 136 0 l 1,8,-1
 136 -230 l 1,9,-1
 54 -230 l 1,10,-1
 54 580 l 1,11,-1
 524 580 l 2,0,1
563 121 m 2,12,-1
 563 459 l 2,13,14
 563 475 563 475 551.5 486.5 c 128,-1,15
 540 498 540 498 524 498 c 2,16,-1
 176 498 l 2,17,18
 160 498 160 498 148 486.5 c 128,-1,19
 136 475 136 475 136 459 c 2,20,-1
 136 121 l 2,21,22
 136 105 136 105 148 93.5 c 128,-1,23
 160 82 160 82 176 82 c 2,24,-1
 524 82 l 2,25,26
 540 82 540 82 551.5 93.5 c 128,-1,27
 563 105 563 105 563 121 c 2,12,-1
EndSplineSet
Substitution2: "'smcp' Lowercase to Small Capitals in Latin lookup 3 subtable" p.sc
Substitution2: "'aalt' Access All Alternates in Latin lookup 0 subtable" p.sc
EndChar

StartChar: p.sc
Encoding: 65574 -1 185
Width: 660
Flags: MW
HStem: 0 21G<54 136 54 54> 208 82<171 524 176 524> 498 82<165 176 176 524>
VStem: 54 82<0 212 318.5 329 329 459> 563 82<329 459>
LayerCount: 2
Fore
SplineSet
54 580 m 1,0,-1
 524 580 l 2,1,2
 574 580 574 580 609.5 544.5 c 128,-1,3
 645 509 645 509 645 459 c 2,4,-1
 645 329 l 2,5,6
 645 279 645 279 609.5 243.5 c 128,-1,7
 574 208 574 208 524 208 c 2,8,-1
 176 208 l 2,9,10
 166 208 166 208 136 212 c 1,11,-1
 136 0 l 1,12,-1
 54 0 l 1,13,-1
 54 580 l 1,0,-1
563 329 m 2,14,-1
 563 459 l 2,15,16
 563 475 563 475 551.5 486.5 c 128,-1,17
 540 498 540 498 524 498 c 2,18,-1
 176 498 l 2,19,20
 160 498 160 498 148 486.5 c 128,-1,21
 136 475 136 475 136 459 c 2,22,-1
 136 329 l 2,23,24
 136 313 136 313 148 301.5 c 128,-1,25
 160 290 160 290 176 290 c 2,26,-1
 524 290 l 2,27,28
 540 290 540 290 551.5 301.5 c 128,-1,29
 563 313 563 313 563 329 c 2,14,-1
EndSplineSet
EndChar

StartChar: paragraph
Encoding: 182 182 186
Width: 833
Flags: MW
HStem: 0 21G<481 563 481 481 701 783 701 701> 271 82<143 481 177 481 563 701> 644 83<166.5 783 177 481 563 563 563 701>
VStem: 56 82<392 605> 481 82<0 271 0 271 353 644> 701 82<0 271 271 271 353 644 644 644>
LayerCount: 2
Fore
SplineSet
56 605 m 2,0,1
 56 656 56 656 91 691.5 c 128,-1,2
 126 727 126 727 177 727 c 2,3,-1
 783 727 l 1,4,-1
 783 0 l 1,5,-1
 701 0 l 1,6,-1
 701 271 l 1,7,-1
 563 271 l 1,8,-1
 563 0 l 1,9,-1
 481 0 l 1,10,-1
 481 271 l 1,11,-1
 177 271 l 2,12,13
 126 271 126 271 91 306.5 c 128,-1,14
 56 342 56 342 56 392 c 2,15,-1
 56 605 l 2,0,1
563 644 m 1,16,-1
 563 353 l 1,17,-1
 701 353 l 1,18,-1
 701 644 l 1,19,-1
 563 644 l 1,16,-1
138 605 m 2,20,-1
 138 392 l 2,21,22
 138 376 138 376 149.5 364.5 c 128,-1,23
 161 353 161 353 177 353 c 2,24,-1
 481 353 l 1,25,-1
 481 644 l 1,26,-1
 177 644 l 2,27,28
 161 644 161 644 149.5 632.5 c 128,-1,29
 138 621 138 621 138 605 c 2,20,-1
EndSplineSet
EndChar

StartChar: parenleft
Encoding: 40 40 187
Width: 277
Flags: MW
HStem: 0 21G<139.5 173 173 202> 700 20G<173 202 202 202>
VStem: 52 82<121 598> 52 150<0 598>
LayerCount: 2
Fore
SplineSet
173 82 m 2,0,-1
 202 82 l 1,1,-1
 202 0 l 1,2,-1
 173 0 l 2,3,4
 123 0 123 0 87.5 35.5 c 128,-1,5
 52 71 52 71 52 121 c 2,6,-1
 52 598 l 2,7,8
 52 649 52 649 87.5 684.5 c 128,-1,9
 123 720 123 720 173 720 c 2,10,-1
 202 720 l 1,11,-1
 202 637 l 1,12,-1
 173 637 l 2,13,14
 157 637 157 637 145.5 625.5 c 128,-1,15
 134 614 134 614 134 598 c 2,16,-1
 134 121 l 2,17,18
 134 105 134 105 145.5 93.5 c 128,-1,19
 157 82 157 82 173 82 c 2,0,-1
EndSplineSet
EndChar

StartChar: parenright
Encoding: 41 41 188
Width: 278
Flags: MW
HStem: 0 21G<56 56 56 84> 700 20G<56 84 84 117.5>
VStem: 56 150<0 121 82 121> 123 83<121 598>
LayerCount: 2
Fore
SplineSet
56 0 m 1,0,-1
 56 82 l 1,1,-1
 84 82 l 2,2,3
 100 82 100 82 111.5 93.5 c 128,-1,4
 123 105 123 105 123 121 c 2,5,-1
 123 598 l 2,6,7
 123 614 123 614 111.5 625.5 c 128,-1,8
 100 637 100 637 84 637 c 2,9,-1
 56 637 l 1,10,-1
 56 720 l 1,11,-1
 84 720 l 2,12,13
 134 720 134 720 170 684.5 c 128,-1,14
 206 649 206 649 206 598 c 2,15,-1
 206 121 l 2,16,17
 206 71 206 71 170 35.5 c 128,-1,18
 134 0 134 0 84 0 c 2,19,-1
 56 0 l 1,0,-1
EndSplineSet
EndChar

StartChar: percent
Encoding: 37 37 189
Width: 966
Flags: MW
HStem: -1 61<695 716 716 811> 265 61<684.5 811 716 811 811 832> 393 61<148 170 170 264> 658 62<137.5 264 170 264 264 286> 701 20G<865 865>
VStem: 48 61<514 598 598 619> 325 61<493 514 514 598> 595 61<120 205 205 226> 871 61<99 120 120 205>
LayerCount: 2
Fore
SplineSet
137 0 m 1,0,-1
 137 108 l 1,1,-1
 865 721 l 1,2,-1
 865 614 l 1,3,-1
 137 0 l 1,0,-1
170 720 m 2,4,-1
 264 720 l 2,5,6
 315 720 315 720 350.5 684.5 c 128,-1,7
 386 649 386 649 386 598 c 2,8,-1
 386 514 l 2,9,10
 386 464 386 464 350.5 428.5 c 128,-1,11
 315 393 315 393 264 393 c 2,12,-1
 170 393 l 2,13,14
 119 393 119 393 83.5 428.5 c 128,-1,15
 48 464 48 464 48 514 c 2,16,-1
 48 598 l 2,17,18
 48 649 48 649 83.5 684.5 c 128,-1,19
 119 720 119 720 170 720 c 2,4,-1
148 454 m 2,20,-1
 286 454 l 2,21,22
 302 454 302 454 313.5 465.5 c 128,-1,23
 325 477 325 477 325 493 c 2,24,-1
 325 619 l 2,25,26
 325 635 325 635 313.5 646.5 c 128,-1,27
 302 658 302 658 286 658 c 2,28,-1
 148 658 l 2,29,30
 132 658 132 658 120.5 646.5 c 128,-1,31
 109 635 109 635 109 619 c 2,32,-1
 109 493 l 2,33,34
 109 477 109 477 120.5 465.5 c 128,-1,35
 132 454 132 454 148 454 c 2,20,-1
716 326 m 2,36,-1
 811 326 l 2,37,38
 861 326 861 326 896.5 290.5 c 128,-1,39
 932 255 932 255 932 205 c 2,40,-1
 932 120 l 2,41,42
 932 70 932 70 896.5 34.5 c 128,-1,43
 861 -1 861 -1 811 -1 c 2,44,-1
 716 -1 l 2,45,46
 665 -1 665 -1 630 34.5 c 128,-1,47
 595 70 595 70 595 120 c 2,48,-1
 595 205 l 2,49,50
 595 255 595 255 630 290.5 c 128,-1,51
 665 326 665 326 716 326 c 2,36,-1
695 60 m 2,52,-1
 832 60 l 2,53,54
 848 60 848 60 859.5 71.5 c 128,-1,55
 871 83 871 83 871 99 c 2,56,-1
 871 226 l 2,57,58
 871 242 871 242 859.5 253.5 c 128,-1,59
 848 265 848 265 832 265 c 2,60,-1
 695 265 l 2,61,62
 679 265 679 265 667.5 253.5 c 128,-1,63
 656 242 656 242 656 226 c 2,64,-1
 656 99 l 2,65,66
 656 83 656 83 667.5 71.5 c 128,-1,67
 679 60 679 60 695 60 c 2,52,-1
EndSplineSet
EndChar

StartChar: period
Encoding: 46 46 190
Width: 214
Flags: MW
HStem: 0 82<54 136 54 136>
VStem: 54 82<0 82 0 82>
LayerCount: 2
Fore
SplineSet
136 82 m 1,0,-1
 136 0 l 1,1,-1
 54 0 l 1,2,-1
 54 82 l 1,3,-1
 136 82 l 1,0,-1
EndSplineSet
EndChar

StartChar: plus
Encoding: 43 43 191
Width: 433
Flags: MW
HStem: 100 21G<169 251 169 169> 255 82<17 169 17 169 251 407> 470 20G<169 251 251 251>
VStem: 169 82<100 255 100 255 337 490>
LayerCount: 2
Fore
SplineSet
169 490 m 1,0,-1
 251 490 l 1,1,-1
 251 337 l 1,2,-1
 407 337 l 1,3,-1
 407 255 l 1,4,-1
 251 255 l 1,5,-1
 251 100 l 1,6,-1
 169 100 l 1,7,-1
 169 255 l 1,8,-1
 17 255 l 1,9,-1
 17 337 l 1,10,-1
 169 337 l 1,11,-1
 169 490 l 1,0,-1
EndSplineSet
EndChar

StartChar: q
Encoding: 113 113 192
Width: 664
Flags: MW
HStem: -230 21G<529 611 529 529> 0 82<108 490 142 490 490 500.5 142 529> 498 82<131 611 142 490>
VStem: 20 83<121 459> 529 82<-230 0 0 0 121 459 459 469.5>
LayerCount: 2
Fore
SplineSet
20 459 m 2,0,1
 20 509 20 509 55.5 544.5 c 128,-1,2
 91 580 91 580 142 580 c 2,3,-1
 611 580 l 1,4,-1
 611 -230 l 1,5,-1
 529 -230 l 1,6,-1
 529 0 l 1,7,-1
 142 0 l 2,8,9
 91 0 91 0 55.5 35.5 c 128,-1,10
 20 71 20 71 20 121 c 2,11,-1
 20 459 l 2,0,1
103 459 m 2,12,-1
 103 121 l 2,13,14
 103 105 103 105 114.5 93.5 c 128,-1,15
 126 82 126 82 142 82 c 2,16,-1
 490 82 l 2,17,18
 506 82 506 82 517.5 93.5 c 128,-1,19
 529 105 529 105 529 121 c 2,20,-1
 529 459 l 2,21,22
 529 475 529 475 517.5 486.5 c 128,-1,23
 506 498 506 498 490 498 c 2,24,-1
 142 498 l 2,25,26
 126 498 126 498 114.5 486.5 c 128,-1,27
 103 475 103 475 103 459 c 2,12,-1
EndSplineSet
Substitution2: "'smcp' Lowercase to Small Capitals in Latin lookup 3 subtable" q.sc
Substitution2: "'aalt' Access All Alternates in Latin lookup 0 subtable" q.sc
EndChar

StartChar: q.sc
Encoding: 65575 -1 193
Width: 770
Flags: MW
HStem: 0 82<139.5 521 173 521 521 531.5 638 737> 498 82<162.5 521 173 521>
VStem: 52 82<121 459> 560 83<121 459>
LayerCount: 2
Fore
SplineSet
638 82 m 1,0,-1
 737 82 l 1,1,-1
 737 0 l 1,2,-1
 173 0 l 2,3,4
 123 0 123 0 87.5 35.5 c 128,-1,5
 52 71 52 71 52 121 c 2,6,-1
 52 459 l 2,7,8
 52 509 52 509 87.5 544.5 c 128,-1,9
 123 580 123 580 173 580 c 2,10,-1
 521 580 l 2,11,12
 572 580 572 580 607.5 544.5 c 128,-1,13
 643 509 643 509 643 459 c 2,14,-1
 643 121 l 2,15,16
 643 120 643 120 638 82 c 1,0,-1
173 82 m 2,17,-1
 521 82 l 2,18,19
 537 82 537 82 548.5 93.5 c 128,-1,20
 560 105 560 105 560 121 c 2,21,-1
 560 459 l 2,22,23
 560 475 560 475 548.5 486.5 c 128,-1,24
 537 498 537 498 521 498 c 2,25,-1
 173 498 l 2,26,27
 157 498 157 498 145.5 486.5 c 128,-1,28
 134 475 134 475 134 459 c 2,29,-1
 134 121 l 2,30,31
 134 105 134 105 145.5 93.5 c 128,-1,32
 157 82 157 82 173 82 c 2,17,-1
EndSplineSet
EndChar

StartChar: question
Encoding: 63 63 194
Width: 678
Flags: MW
HStem: 0 82<153 235 153 235> 201 163<153 548 153 548> 282 82<263.5 548 274 548> 636 83<31 581.5> 700 20G<31 31>
VStem: 153 82<0 82 201 243> 587 82<403 597>
LayerCount: 2
Fore
SplineSet
31 720 m 1,0,-1
 548 719 l 2,1,2
 598 719 598 719 633.5 683.5 c 128,-1,3
 669 648 669 648 669 597 c 2,4,-1
 669 403 l 2,5,6
 669 353 669 353 633.5 317.5 c 128,-1,7
 598 282 598 282 548 282 c 2,8,-1
 274 282 l 2,9,10
 258 282 258 282 246.5 270.5 c 128,-1,11
 235 259 235 259 235 243 c 2,12,-1
 235 201 l 1,13,-1
 153 201 l 1,14,-1
 153 243 l 2,15,16
 153 294 153 294 188.5 329 c 128,-1,17
 224 364 224 364 274 364 c 2,18,-1
 548 364 l 2,19,20
 564 364 564 364 575.5 375.5 c 128,-1,21
 587 387 587 387 587 403 c 2,22,-1
 587 597 l 2,23,24
 587 613 587 613 575.5 624.5 c 128,-1,25
 564 636 564 636 548 636 c 2,26,-1
 31 636 l 1,27,-1
 31 720 l 1,0,-1
235 0 m 1,28,-1
 153 0 l 1,29,-1
 153 82 l 1,30,-1
 235 82 l 1,31,-1
 235 0 l 1,28,-1
EndSplineSet
Substitution2: "'salt' Stylistic Alternatives in Latin lookup 2 subtable" question.alt
Substitution2: "'aalt' Access All Alternates in Latin lookup 0 subtable" question.alt
EndChar

StartChar: question.alt
Encoding: 57350 57350 195
Width: 667
Flags: MW
HStem: 0 82<204 287 204 287> 151 214<204 526 204 526> 283 82<315 526 326 526> 523 197<27 526 27 526> 637 83<146 526 146 526 109 526>
VStem: 27 82<523 619 619 619> 204 83<0 82 0 82 151 244> 565 82<404 598>
LayerCount: 2
Fore
SplineSet
146 720 m 2,0,-1
 526 720 l 2,1,2
 576 720 576 720 611.5 684.5 c 128,-1,3
 647 649 647 649 647 598 c 2,4,-1
 647 404 l 2,5,6
 647 354 647 354 611.5 318.5 c 128,-1,7
 576 283 576 283 526 283 c 2,8,-1
 326 283 l 2,9,10
 310 283 310 283 298.5 271.5 c 128,-1,11
 287 260 287 260 287 244 c 2,12,-1
 287 151 l 1,13,-1
 204 151 l 1,14,-1
 204 244 l 2,15,16
 204 295 204 295 239.5 330 c 128,-1,17
 275 365 275 365 326 365 c 2,18,-1
 526 365 l 2,19,20
 542 365 542 365 553.5 376.5 c 128,-1,21
 565 388 565 388 565 404 c 2,22,-1
 565 598 l 2,23,24
 565 614 565 614 553.5 625.5 c 128,-1,25
 542 637 542 637 526 637 c 2,26,-1
 109 637 l 1,27,-1
 109 523 l 1,28,-1
 27 523 l 1,29,-1
 27 619 l 1,30,31
 38 660 38 660 71.5 690 c 128,-1,32
 105 720 105 720 146 720 c 2,0,-1
287 0 m 1,33,-1
 204 0 l 1,34,-1
 204 82 l 1,35,-1
 287 82 l 1,36,-1
 287 0 l 1,33,-1
EndSplineSet
EndChar

StartChar: questiondown
Encoding: 191 191 196
Width: 675
Flags: MW
HStem: -20 20G<106 140> -8 21G<656 656> -4 86 354 83<129.5 413 140 413> 354 170<140 534> 645 83<452 534 452 534>
VStem: 19 82<121 315> 452 82<476 524 442 524 645 728>
LayerCount: 2
Fore
SplineSet
656 -8 m 1,0,-1
 140 0 l 2,1,2
 89 0 89 0 54 35.5 c 128,-1,3
 19 71 19 71 19 121 c 2,4,-1
 19 315 l 2,5,6
 19 366 19 366 54 401.5 c 128,-1,7
 89 437 89 437 140 437 c 2,8,-1
 413 437 l 2,9,10
 429 437 429 437 440.5 448.5 c 128,-1,11
 452 460 452 460 452 476 c 2,12,-1
 452 524 l 1,13,-1
 534 524 l 1,14,-1
 534 476 l 2,15,16
 534 425 534 425 499 389.5 c 128,-1,17
 464 354 464 354 413 354 c 2,18,-1
 140 354 l 2,19,20
 124 354 124 354 112.5 342.5 c 128,-1,21
 101 331 101 331 101 315 c 2,22,-1
 101 121 l 2,23,24
 101 105 101 105 112.5 93.5 c 128,-1,25
 124 82 124 82 140 82 c 2,26,-1
 648 82 l 1,27,28
 648 53 648 53 650 30.5 c 128,-1,29
 652 8 652 8 654 0 c 2,30,-1
 656 -8 l 1,0,-1
534 728 m 1,31,-1
 534 645 l 1,32,-1
 452 645 l 1,33,-1
 452 728 l 1,34,-1
 534 728 l 1,31,-1
EndSplineSet
EndChar

StartChar: quotedbl
Encoding: 34 34 197
Width: 372
Flags: MW
HStem: 580 140<59 141 59 141 59 214 214 296>
VStem: 59 82<580 720 580 720> 214 82<580 720 580 720>
LayerCount: 2
Fore
SplineSet
141 720 m 1,0,-1
 141 580 l 1,1,-1
 59 580 l 1,2,-1
 59 720 l 1,3,-1
 141 720 l 1,0,-1
296 720 m 1,4,-1
 296 580 l 1,5,-1
 214 580 l 1,6,-1
 214 720 l 1,7,-1
 296 720 l 1,4,-1
EndSplineSet
EndChar

StartChar: quotedblleft
Encoding: 8220 8220 198
Width: 363
Flags: MW
HStem: 502 21G<47 130 47 47 228 228 228 310> 695 20G<130 130 310 310>
VStem: 47 83<502 600 600 627> 228 82<502 600 600 627>
LayerCount: 2
Fore
SplineSet
130 502 m 1,0,-1
 47 502 l 1,1,-1
 47 600 l 2,2,3
 47 640 47 640 70 672 c 128,-1,4
 93 704 93 704 130 715 c 1,5,-1
 130 502 l 1,0,-1
310 502 m 1,6,-1
 228 502 l 1,7,-1
 228 600 l 2,8,9
 228 640 228 640 250.5 672 c 128,-1,10
 273 704 273 704 310 715 c 1,11,-1
 310 502 l 1,6,-1
EndSplineSet
EndChar

StartChar: quotedblright
Encoding: 8221 8221 199
Width: 363
Flags: MW
HStem: 508 21G<54 54 235 235> 701 20G<54 137 137 137 235 317 317 317>
VStem: 54 83<596 623 623 721> 235 82<596 623 623 721>
LayerCount: 2
Fore
SplineSet
235 721 m 1,0,-1
 317 721 l 1,1,-1
 317 623 l 2,2,3
 317 583 317 583 294 551 c 128,-1,4
 271 519 271 519 235 508 c 1,5,-1
 235 721 l 1,0,-1
54 721 m 1,6,-1
 137 721 l 1,7,-1
 137 623 l 2,8,9
 137 583 137 583 114 551 c 128,-1,10
 91 519 91 519 54 508 c 1,11,-1
 54 721 l 1,6,-1
EndSplineSet
EndChar

StartChar: quoteleft
Encoding: 8216 8216 200
Width: 168
Flags: MW
HStem: 503 21G<33 116 33 33> 696 20G<116 116>
VStem: 33 83<503 601 601 628>
LayerCount: 2
Fore
SplineSet
116 503 m 1,0,-1
 33 503 l 1,1,-1
 33 601 l 2,2,3
 33 641 33 641 56 673 c 128,-1,4
 79 705 79 705 116 716 c 1,5,-1
 116 503 l 1,0,-1
EndSplineSet
EndChar

StartChar: quoteright
Encoding: 8217 8217 201
Width: 166
Flags: MW
HStem: 508 21G<54 54> 701 20G<54 136 136 136>
VStem: 54 82<596 623 623 721>
LayerCount: 2
Fore
SplineSet
54 721 m 1,0,-1
 136 721 l 1,1,-1
 136 623 l 2,2,3
 136 583 136 583 113 551 c 128,-1,4
 90 519 90 519 54 508 c 1,5,-1
 54 721 l 1,0,-1
EndSplineSet
EndChar

StartChar: quotesingle
Encoding: 39 39 202
Width: 224
Flags: MW
HStem: 580 140<59 141 59 141>
VStem: 59 82<580 720 580 720>
LayerCount: 2
Fore
SplineSet
141 720 m 1,0,-1
 141 580 l 1,1,-1
 59 580 l 1,2,-1
 59 720 l 1,3,-1
 141 720 l 1,0,-1
EndSplineSet
EndChar

StartChar: r
Encoding: 114 114 203
Width: 512
Flags: MW
HStem: 0 21G<52 134 52 52> 498 82<162.5 499 173 499>
VStem: 52 82<0 459 0 492.5>
LayerCount: 2
Fore
SplineSet
173 580 m 2,0,-1
 499 580 l 1,1,-1
 499 498 l 1,2,-1
 173 498 l 2,3,4
 157 498 157 498 145.5 486.5 c 128,-1,5
 134 475 134 475 134 459 c 2,6,-1
 134 0 l 1,7,-1
 52 0 l 1,8,-1
 52 459 l 2,9,10
 52 509 52 509 87.5 544.5 c 128,-1,11
 123 580 123 580 173 580 c 2,0,-1
EndSplineSet
Substitution2: "'smcp' Lowercase to Small Capitals in Latin lookup 3 subtable" r.sc
Substitution2: "'aalt' Access All Alternates in Latin lookup 0 subtable" r.sc
EndChar

StartChar: r.sc
Encoding: 65576 -1 204
Width: 700
Flags: MW
HStem: 0 21G<54 136 54 54 542 647 542 542> 208 82<175 314 136 523 416 523 416 416> 498 82<164.5 175 175 523>
VStem: 54 82<0 208 318.5 329 329 459> 562 82<329 459>
LayerCount: 2
Fore
SplineSet
644 459 m 2,0,-1
 644 329 l 2,1,2
 644 279 644 279 609 243.5 c 128,-1,3
 574 208 574 208 523 208 c 2,4,-1
 416 208 l 1,5,-1
 647 0 l 1,6,-1
 542 0 l 1,7,-1
 314 208 l 1,8,-1
 136 208 l 1,9,-1
 136 0 l 1,10,-1
 54 0 l 1,11,-1
 54 580 l 1,12,-1
 523 580 l 2,13,14
 574 580 574 580 609 544.5 c 128,-1,15
 644 509 644 509 644 459 c 2,0,-1
175 290 m 2,16,-1
 523 290 l 2,17,18
 539 290 539 290 550.5 301.5 c 128,-1,19
 562 313 562 313 562 329 c 2,20,-1
 562 459 l 2,21,22
 562 475 562 475 550.5 486.5 c 128,-1,23
 539 498 539 498 523 498 c 2,24,-1
 175 498 l 2,25,26
 159 498 159 498 147.5 486.5 c 128,-1,27
 136 475 136 475 136 459 c 2,28,-1
 136 329 l 2,29,30
 136 313 136 313 147.5 301.5 c 128,-1,31
 159 290 159 290 175 290 c 2,16,-1
EndSplineSet
EndChar

StartChar: ring
Encoding: 730 730 205
Width: 233
Flags: MW
HStem: 828 40<84 89 89 145> 948 40<81.5 145 89 145 145 150>
VStem: 35 40<881 935 935 938> 159 40<878 881 881 935>
LayerCount: 2
Fore
SplineSet
89 988 m 2,0,-1
 145 988 l 2,1,2
 167 988 167 988 183 972.5 c 128,-1,3
 199 957 199 957 199 935 c 2,4,-1
 199 881 l 2,5,6
 199 859 199 859 183 843.5 c 128,-1,7
 167 828 167 828 145 828 c 2,8,-1
 89 828 l 2,9,10
 67 828 67 828 51 843.5 c 128,-1,11
 35 859 35 859 35 881 c 2,12,-1
 35 935 l 2,13,14
 35 957 35 957 51 972.5 c 128,-1,15
 67 988 67 988 89 988 c 2,0,-1
84 868 m 2,16,-1
 150 868 l 2,17,18
 159 868 159 868 159 878 c 2,19,-1
 159 938 l 2,20,21
 159 948 159 948 150 948 c 2,22,-1
 84 948 l 2,23,24
 75 948 75 948 75 938 c 2,25,-1
 75 878 l 2,26,27
 75 868 75 868 84 868 c 2,16,-1
EndSplineSet
EndChar

StartChar: s
Encoding: 115 115 206
Width: 686
Flags: MW
HStem: 0 82<135.5 517 169 517> 0 129<48 169 48 517> 249 82<135.5 517 169 517> 451 129<169 639 169 556> 498 82<158.5 517 169 517>
VStem: 48 82<121 129 110.5 129 370 459> 556 83<121 210 451 459>
LayerCount: 2
Fore
SplineSet
639 459 m 2,0,-1
 639 451 l 1,1,-1
 556 451 l 1,2,-1
 556 459 l 2,3,4
 556 475 556 475 544.5 486.5 c 128,-1,5
 533 498 533 498 517 498 c 2,6,-1
 169 498 l 2,7,8
 153 498 153 498 141.5 486.5 c 128,-1,9
 130 475 130 475 130 459 c 2,10,-1
 130 370 l 2,11,12
 130 354 130 354 141.5 342.5 c 128,-1,13
 153 331 153 331 169 331 c 2,14,-1
 517 331 l 2,15,16
 568 331 568 331 603.5 295.5 c 128,-1,17
 639 260 639 260 639 210 c 2,18,-1
 639 121 l 2,19,20
 639 71 639 71 603.5 35.5 c 128,-1,21
 568 0 568 0 517 0 c 2,22,-1
 169 0 l 2,23,24
 119 0 119 0 83.5 35.5 c 128,-1,25
 48 71 48 71 48 121 c 2,26,-1
 48 129 l 1,27,-1
 130 129 l 1,28,-1
 130 121 l 2,29,30
 130 105 130 105 141.5 93.5 c 128,-1,31
 153 82 153 82 169 82 c 2,32,-1
 517 82 l 2,33,34
 533 82 533 82 544.5 93.5 c 128,-1,35
 556 105 556 105 556 121 c 2,36,-1
 556 210 l 2,37,38
 556 226 556 226 544.5 237.5 c 128,-1,39
 533 249 533 249 517 249 c 2,40,-1
 169 249 l 2,41,42
 119 249 119 249 83.5 284.5 c 128,-1,43
 48 320 48 320 48 370 c 2,44,-1
 48 459 l 2,45,46
 48 509 48 509 83.5 544.5 c 128,-1,47
 119 580 119 580 169 580 c 2,48,-1
 517 580 l 2,49,50
 568 580 568 580 603.5 544.5 c 128,-1,51
 639 509 639 509 639 459 c 2,0,-1
EndSplineSet
Substitution2: "'smcp' Lowercase to Small Capitals in Latin lookup 3 subtable" s.sc
Substitution2: "'aalt' Access All Alternates in Latin lookup 0 subtable" s.sc
EndChar

StartChar: s.sc
Encoding: 65577 -1 207
Width: 687
Flags: MW
HStem: 0 82<136.5 518 170 518> 0 139<49 170 49 518> 249 82<136.5 518 170 518> 441 139<170 640 170 557> 498 82<159.5 518 170 518>
VStem: 49 82<121 139 110.5 139 370 459> 557 83<121 210 441 459>
LayerCount: 2
Fore
SplineSet
640 459 m 2,0,-1
 640 441 l 1,1,-1
 557 441 l 1,2,-1
 557 459 l 2,3,4
 557 475 557 475 545.5 486.5 c 128,-1,5
 534 498 534 498 518 498 c 2,6,-1
 170 498 l 2,7,8
 154 498 154 498 142.5 486.5 c 128,-1,9
 131 475 131 475 131 459 c 2,10,-1
 131 370 l 2,11,12
 131 354 131 354 142.5 342.5 c 128,-1,13
 154 331 154 331 170 331 c 2,14,-1
 518 331 l 2,15,16
 569 331 569 331 604.5 295.5 c 128,-1,17
 640 260 640 260 640 210 c 2,18,-1
 640 121 l 2,19,20
 640 71 640 71 604.5 35.5 c 128,-1,21
 569 0 569 0 518 0 c 2,22,-1
 170 0 l 2,23,24
 120 0 120 0 84.5 35.5 c 128,-1,25
 49 71 49 71 49 121 c 2,26,-1
 49 139 l 1,27,-1
 131 139 l 1,28,-1
 131 121 l 2,29,30
 131 105 131 105 142.5 93.5 c 128,-1,31
 154 82 154 82 170 82 c 2,32,-1
 518 82 l 2,33,34
 534 82 534 82 545.5 93.5 c 128,-1,35
 557 105 557 105 557 121 c 2,36,-1
 557 210 l 2,37,38
 557 226 557 226 545.5 237.5 c 128,-1,39
 534 249 534 249 518 249 c 2,40,-1
 170 249 l 2,41,42
 120 249 120 249 84.5 284.5 c 128,-1,43
 49 320 49 320 49 370 c 2,44,-1
 49 459 l 2,45,46
 49 509 49 509 84.5 544.5 c 128,-1,47
 120 580 120 580 170 580 c 2,48,-1
 518 580 l 2,49,50
 569 580 569 580 604.5 544.5 c 128,-1,51
 640 509 640 509 640 459 c 2,0,-1
EndSplineSet
EndChar

StartChar: scaron
Encoding: 353 353 208
Width: 687
Flags: MW
HStem: 0 82<135.5 517 169 517> 0 129<48 169 48 517> 249 82<135.5 517 169 517> 451 129<169 639 169 556> 498 82<158.5 517 169 517> 763 21G<293 352 293 293> 860 20G<221 263 263 263 381 422 422 422>
VStem: 48 82<121 129 110.5 129 370 459> 556 83<121 210 451 459>
LayerCount: 2
Fore
SplineSet
639 459 m 2,0,-1
 639 451 l 1,1,-1
 556 451 l 1,2,-1
 556 459 l 2,3,4
 556 475 556 475 544.5 486.5 c 128,-1,5
 533 498 533 498 517 498 c 2,6,-1
 169 498 l 2,7,8
 153 498 153 498 141.5 486.5 c 128,-1,9
 130 475 130 475 130 459 c 2,10,-1
 130 370 l 2,11,12
 130 354 130 354 141.5 342.5 c 128,-1,13
 153 331 153 331 169 331 c 2,14,-1
 517 331 l 2,15,16
 568 331 568 331 603.5 295.5 c 128,-1,17
 639 260 639 260 639 210 c 2,18,-1
 639 121 l 2,19,20
 639 71 639 71 603.5 35.5 c 128,-1,21
 568 0 568 0 517 0 c 2,22,-1
 169 0 l 2,23,24
 119 0 119 0 83.5 35.5 c 128,-1,25
 48 71 48 71 48 121 c 2,26,-1
 48 129 l 1,27,-1
 130 129 l 1,28,-1
 130 121 l 2,29,30
 130 105 130 105 141.5 93.5 c 128,-1,31
 153 82 153 82 169 82 c 2,32,-1
 517 82 l 2,33,34
 533 82 533 82 544.5 93.5 c 128,-1,35
 556 105 556 105 556 121 c 2,36,-1
 556 210 l 2,37,38
 556 226 556 226 544.5 237.5 c 128,-1,39
 533 249 533 249 517 249 c 2,40,-1
 169 249 l 2,41,42
 119 249 119 249 83.5 284.5 c 128,-1,43
 48 320 48 320 48 370 c 2,44,-1
 48 459 l 2,45,46
 48 509 48 509 83.5 544.5 c 128,-1,47
 119 580 119 580 169 580 c 2,48,-1
 517 580 l 2,49,50
 568 580 568 580 603.5 544.5 c 128,-1,51
 639 509 639 509 639 459 c 2,0,-1
221 880 m 1,52,-1
 263 880 l 1,53,-1
 323 795 l 1,54,-1
 381 880 l 1,55,-1
 422 880 l 1,56,-1
 352 763 l 1,57,-1
 293 763 l 1,58,-1
 221 880 l 1,52,-1
EndSplineSet
EndChar

StartChar: semicolon
Encoding: 59 59 209
Width: 193
Flags: MW
HStem: -131 21G<51 51> 506 82<51 133 51 133>
VStem: 51 82<-43 -16 -16 82 506 588>
LayerCount: 2
Fore
SplineSet
133 588 m 1,0,-1
 133 506 l 1,1,-1
 51 506 l 1,2,-1
 51 588 l 1,3,-1
 133 588 l 1,0,-1
51 82 m 1,4,-1
 133 82 l 1,5,-1
 133 -16 l 2,6,7
 133 -56 133 -56 110 -87.5 c 128,-1,8
 87 -119 87 -119 51 -131 c 1,9,-1
 51 82 l 1,4,-1
EndSplineSet
EndChar

StartChar: seven
Encoding: 55 55 210
Width: 660
Flags: MW
HStem: 0 21G<522 604 522 522> 638 83<3 483 3 483>
VStem: 522 82<0 599 0 609.5>
LayerCount: 2
Fore
SplineSet
483 638 m 2,0,-1
 3 638 l 1,1,-1
 3 721 l 1,2,-1
 483 721 l 2,3,4
 533 721 533 721 568.5 685.5 c 128,-1,5
 604 650 604 650 604 599 c 2,6,-1
 604 0 l 1,7,-1
 522 0 l 1,8,-1
 522 599 l 2,9,10
 522 615 522 615 510.5 626.5 c 128,-1,11
 499 638 499 638 483 638 c 2,0,-1
EndSplineSet
Substitution2: "'ss03' Style Set 3 in Latin lookup 6 subtable" seven.alt
Substitution2: "'aalt' Access All Alternates in Latin lookup 0 subtable" seven.alt
EndChar

StartChar: seven.alt
Encoding: 57346 57346 211
Width: 771
Flags: MW
HStem: -20 20G<50 54 54 54 54 162 54 54> -11 21G<46 46> 638 83<50 597 50 773>
LayerCount: 2
Fore
SplineSet
46 -11 m 1,0,-1
 50 0 l 1,1,-1
 54 0 l 1,2,-1
 46 -11 l 1,0,-1
50 721 m 1,3,-1
 773 721 l 1,4,-1
 162 0 l 1,5,-1
 54 0 l 1,6,-1
 597 638 l 1,7,-1
 50 638 l 1,8,-1
 50 721 l 1,3,-1
EndSplineSet
EndChar

StartChar: six
Encoding: 54 54 212
Width: 820
Flags: MW
HStem: 0 82<144 663 178 663> 333 82<178 663 178 663 139 663> 638 83<167.5 658 178 658>
VStem: 57 82<121 333 444 455 455 599> 702 82<121 294>
LayerCount: 2
Fore
SplineSet
178 415 m 2,0,-1
 663 415 l 2,1,2
 713 415 713 415 748.5 380 c 128,-1,3
 784 345 784 345 784 294 c 2,4,-1
 784 121 l 2,5,6
 784 71 784 71 748.5 35.5 c 128,-1,7
 713 0 713 0 663 0 c 2,8,-1
 178 0 l 2,9,10
 127 0 127 0 92 35.5 c 128,-1,11
 57 71 57 71 57 121 c 2,12,-1
 57 599 l 2,13,14
 57 650 57 650 92 685.5 c 128,-1,15
 127 721 127 721 178 721 c 2,16,-1
 658 721 l 1,17,-1
 658 638 l 1,18,-1
 178 638 l 2,19,20
 162 638 162 638 150.5 626.5 c 128,-1,21
 139 615 139 615 139 599 c 2,22,-1
 139 455 l 2,23,24
 139 439 139 439 150.5 427 c 128,-1,25
 162 415 162 415 178 415 c 2,0,-1
702 121 m 2,26,-1
 702 294 l 2,27,28
 702 310 702 310 690.5 321.5 c 128,-1,29
 679 333 679 333 663 333 c 2,30,-1
 139 333 l 1,31,-1
 139 121 l 2,32,33
 139 105 139 105 150.5 93.5 c 128,-1,34
 162 82 162 82 178 82 c 2,35,-1
 663 82 l 2,36,37
 679 82 679 82 690.5 93.5 c 128,-1,38
 702 105 702 105 702 121 c 2,26,-1
EndSplineSet
EndChar

StartChar: slash
Encoding: 47 47 213
Width: 521
Flags: MW
HStem: 0 21G<6 6> 700 20G<512 512>
LayerCount: 2
Fore
SplineSet
6 106 m 1,0,-1
 512 720 l 1,1,-1
 512 616 l 1,2,-1
 6 0 l 1,3,-1
 6 106 l 1,0,-1
EndSplineSet
EndChar

StartChar: A.alt2
Encoding: 57356 57356 214
Width: 774
Flags: MW
HStem: 0 21G<54 137 54 54 670 778 670 670> 202 83<137 432 137 499 137 432> 701 20G<54 166 166 166>
VStem: 54 83<0 202 285 629>
LayerCount: 2
Fore
SplineSet
54 721 m 1,0,-1
 166 721 l 1,1,-1
 778 0 l 1,2,-1
 670 0 l 1,3,-1
 499 202 l 1,4,-1
 137 202 l 1,5,-1
 137 0 l 1,6,-1
 54 0 l 1,7,-1
 54 721 l 1,0,-1
137 629 m 1,8,-1
 137 285 l 1,9,-1
 432 285 l 1,10,-1
 137 629 l 1,8,-1
EndSplineSet
EndChar

StartChar: sterling
Encoding: 163 163 215
Width: 734
Flags: MW
HStem: 0 82<39 144 227 691 39 144> 323 82<39 144 39 144 227 579> 583 137<266 691 266 608> 637 83<255.5 569 266 569>
VStem: 144 83<82 323 82 323 405 598>
LayerCount: 2
Fore
SplineSet
691 583 m 1,0,-1
 608 583 l 1,1,-1
 608 598 l 2,2,3
 608 614 608 614 596.5 625.5 c 128,-1,4
 585 637 585 637 569 637 c 2,5,-1
 266 637 l 2,6,7
 250 637 250 637 238.5 625.5 c 128,-1,8
 227 614 227 614 227 598 c 2,9,-1
 227 405 l 1,10,-1
 579 405 l 1,11,-1
 579 323 l 1,12,-1
 227 323 l 1,13,-1
 227 82 l 1,14,-1
 691 82 l 1,15,-1
 691 0 l 1,16,-1
 39 0 l 1,17,-1
 39 82 l 1,18,-1
 144 82 l 1,19,-1
 144 323 l 1,20,-1
 39 323 l 1,21,-1
 39 405 l 1,22,-1
 144 405 l 1,23,-1
 144 598 l 2,24,25
 144 649 144 649 179.5 684.5 c 128,-1,26
 215 720 215 720 266 720 c 2,27,-1
 569 720 l 2,28,29
 620 720 620 720 655.5 684.5 c 128,-1,30
 691 649 691 649 691 598 c 2,31,-1
 691 583 l 1,0,-1
EndSplineSet
EndChar

StartChar: t
Encoding: 116 116 216
Width: 410
Flags: MW
HStem: 0 82<140 386 174 386> 498 82<135 386 135 386> 750 20G<53 135 135 135>
VStem: 53 82<121 498 580 770>
LayerCount: 2
Fore
SplineSet
386 498 m 1,0,-1
 135 498 l 1,1,-1
 135 121 l 2,2,3
 135 105 135 105 146.5 93.5 c 128,-1,4
 158 82 158 82 174 82 c 2,5,-1
 386 82 l 1,6,-1
 386 0 l 1,7,-1
 174 0 l 2,8,9
 123 0 123 0 88 35.5 c 128,-1,10
 53 71 53 71 53 121 c 2,11,-1
 53 770 l 1,12,-1
 135 770 l 1,13,-1
 135 580 l 1,14,-1
 386 580 l 1,15,-1
 386 498 l 1,0,-1
EndSplineSet
Substitution2: "'smcp' Lowercase to Small Capitals in Latin lookup 3 subtable" t.sc
Substitution2: "'aalt' Access All Alternates in Latin lookup 0 subtable" t.sc
EndChar

StartChar: t.sc
Encoding: 65578 -1 217
Width: 644
Flags: MW
HStem: 0 21G<282 364 282 282> 498 82<22 282 22 623 364 623 364 364>
VStem: 282 82<0 498 0 498>
LayerCount: 2
Fore
SplineSet
22 580 m 1,0,-1
 623 580 l 1,1,-1
 623 498 l 1,2,-1
 364 498 l 1,3,-1
 364 0 l 1,4,-1
 282 0 l 1,5,-1
 282 498 l 1,6,-1
 22 498 l 1,7,-1
 22 580 l 1,0,-1
EndSplineSet
EndChar

StartChar: three
Encoding: 51 51 218
Width: 826
Flags: MW
HStem: 0 82<141 660 175 660> 0 137<53 175 53 660> 327 82<191 628 628 638.5 191 660 191 628> 573 148<53 628 53 628> 638 83<164.5 628 175 628>
VStem: 53 83<121 137 110.5 137 573 599> 667 82<448 599> 699 82<121 288>
LayerCount: 2
Fore
SplineSet
737 396 m 1,0,-1
 741 378 l 1,1,2
 781 341 781 341 781 288 c 2,3,-1
 781 121 l 2,4,5
 781 71 781 71 745.5 35.5 c 128,-1,6
 710 0 710 0 660 0 c 2,7,-1
 175 0 l 2,8,9
 124 0 124 0 88.5 35.5 c 128,-1,10
 53 71 53 71 53 121 c 2,11,-1
 53 137 l 1,12,-1
 136 137 l 1,13,-1
 136 121 l 2,14,15
 136 105 136 105 147.5 93.5 c 128,-1,16
 159 82 159 82 175 82 c 2,17,-1
 660 82 l 2,18,19
 676 82 676 82 687.5 93.5 c 128,-1,20
 699 105 699 105 699 121 c 2,21,-1
 699 288 l 2,22,23
 699 304 699 304 687.5 315.5 c 128,-1,24
 676 327 676 327 660 327 c 2,25,-1
 191 327 l 1,26,-1
 191 409 l 1,27,-1
 628 409 l 2,28,29
 644 409 644 409 655.5 420.5 c 128,-1,30
 667 432 667 432 667 448 c 2,31,-1
 667 599 l 2,32,33
 667 615 667 615 655.5 626.5 c 128,-1,34
 644 638 644 638 628 638 c 2,35,-1
 175 638 l 2,36,37
 159 638 159 638 147.5 626.5 c 128,-1,38
 136 615 136 615 136 599 c 2,39,-1
 136 573 l 1,40,-1
 53 573 l 1,41,-1
 53 599 l 2,42,43
 53 650 53 650 88.5 685.5 c 128,-1,44
 124 721 124 721 175 721 c 2,45,-1
 628 721 l 2,46,47
 679 721 679 721 714 685.5 c 128,-1,48
 749 650 749 650 749 599 c 2,49,-1
 749 448 l 2,50,51
 749 422 749 422 737 396 c 1,0,-1
EndSplineSet
EndChar

StartChar: tilde
Encoding: 732 732 219
Width: 403
Flags: MW
HStem: 876 120 948 48<77 122.5 73 126>
LayerCount: 2
Fore
SplineSet
294 924 m 1,0,-1
 296 924 l 2,1,2
 326 924 326 924 362 941 c 1,3,-1
 362 890 l 1,4,5
 324 876 324 876 296 876 c 0,6,7
 261 876 261 876 194 912 c 128,-1,8
 127 948 127 948 85 948 c 0,9,10
 46 948 46 948 23 940 c 1,11,-1
 23 987 l 1,12,13
 50 996 50 996 85 996 c 0,14,15
 125 996 125 996 192 962.5 c 128,-1,16
 259 929 259 929 294 924 c 1,0,-1
EndSplineSet
EndChar

StartChar: two
Encoding: 50 50 220
Width: 830
Flags: MW
HStem: 0 82<178 784 178 784> 309 82<167.5 663 178 663> 571 150<57 663 57 663>
VStem: 57 82<110.5 121 121 270 571 599> 702 82<430 599>
LayerCount: 2
Fore
SplineSet
178 721 m 2,0,-1
 663 721 l 2,1,2
 713 721 713 721 748.5 685.5 c 128,-1,3
 784 650 784 650 784 599 c 2,4,-1
 784 430 l 2,5,6
 784 380 784 380 748.5 344.5 c 128,-1,7
 713 309 713 309 663 309 c 2,8,-1
 178 309 l 2,9,10
 162 309 162 309 150.5 297.5 c 128,-1,11
 139 286 139 286 139 270 c 2,12,-1
 139 121 l 2,13,14
 139 105 139 105 150.5 93.5 c 128,-1,15
 162 82 162 82 178 82 c 2,16,-1
 784 82 l 1,17,-1
 784 0 l 1,18,-1
 57 0 l 1,19,-1
 57 270 l 2,20,21
 57 321 57 321 92 356 c 128,-1,22
 127 391 127 391 178 391 c 2,23,-1
 663 391 l 2,24,25
 679 391 679 391 690.5 402.5 c 128,-1,26
 702 414 702 414 702 430 c 2,27,-1
 702 599 l 2,28,29
 702 615 702 615 690.5 626.5 c 128,-1,30
 679 638 679 638 663 638 c 2,31,-1
 178 638 l 2,32,33
 162 638 162 638 150.5 626.5 c 128,-1,34
 139 615 139 615 139 599 c 2,35,-1
 139 571 l 1,36,-1
 57 571 l 1,37,-1
 57 599 l 2,38,39
 57 650 57 650 92 685.5 c 128,-1,40
 127 721 127 721 178 721 c 2,0,-1
EndSplineSet
Substitution2: "'ss03' Style Set 3 in Latin lookup 6 subtable" two.alt
Substitution2: "'aalt' Access All Alternates in Latin lookup 0 subtable" two.alt
EndChar

StartChar: two.alt
Encoding: 57349 57349 221
Width: 815
Flags: MW
HStem: 0 82<140.5 169 169 775> 557 164<49 656 49 656> 638 83<160.5 656 171 656 656 683.5 171 693>
VStem: 49 83<82 211 557 599> 693 82<538 619>
LayerCount: 2
Fore
SplineSet
775 488 m 1,0,-1
 669 433 l 1,1,-1
 132 160 l 1,2,-1
 132 82 l 1,3,-1
 775 82 l 1,4,-1
 775 0 l 1,5,-1
 169 0 l 2,6,7
 127 0 127 0 93.5 27.5 c 128,-1,8
 60 55 60 55 50 95 c 1,9,10
 50 114 50 114 49.5 153 c 128,-1,11
 49 192 49 192 49 211 c 1,12,-1
 693 538 l 1,13,-1
 693 638 l 1,14,-1
 171 638 l 2,15,16
 155 638 155 638 143.5 626.5 c 128,-1,17
 132 615 132 615 132 599 c 2,18,-1
 132 557 l 1,19,-1
 49 557 l 1,20,-1
 49 599 l 2,21,22
 49 650 49 650 84.5 685.5 c 128,-1,23
 120 721 120 721 171 721 c 2,24,-1
 656 721 l 2,25,26
 696 721 696 721 729.5 690.5 c 128,-1,27
 763 660 763 660 775 619 c 1,28,-1
 775 488 l 1,0,-1
EndSplineSet
EndChar

StartChar: u
Encoding: 117 117 222
Width: 695
Flags: MW
HStem: 0 82<140.5 522 174 522> 560 20G<53 135 135 135 562 644 644 644>
VStem: 53 82<121 580> 562 82<121 580>
LayerCount: 2
Fore
SplineSet
562 580 m 1,0,-1
 644 580 l 1,1,-1
 644 121 l 2,2,3
 644 71 644 71 608.5 35.5 c 128,-1,4
 573 0 573 0 522 0 c 2,5,-1
 174 0 l 2,6,7
 124 0 124 0 88.5 35.5 c 128,-1,8
 53 71 53 71 53 121 c 2,9,-1
 53 580 l 1,10,-1
 135 580 l 1,11,-1
 135 121 l 2,12,13
 135 105 135 105 146.5 93.5 c 128,-1,14
 158 82 158 82 174 82 c 2,15,-1
 522 82 l 2,16,17
 538 82 538 82 550 93.5 c 128,-1,18
 562 105 562 105 562 121 c 2,19,-1
 562 580 l 1,0,-1
EndSplineSet
Substitution2: "'smcp' Lowercase to Small Capitals in Latin lookup 3 subtable" u.sc
Substitution2: "'aalt' Access All Alternates in Latin lookup 0 subtable" u.sc
EndChar

StartChar: u.sc
Encoding: 65579 -1 223
Width: 695
Flags: MW
HStem: 0 82<140.5 522 174 522> 560 20G<53 135 135 135 562 644 644 644>
VStem: 53 82<121 580> 562 82<121 580>
LayerCount: 2
Fore
SplineSet
562 121 m 2,0,-1
 562 580 l 1,1,-1
 644 580 l 1,2,-1
 644 121 l 2,3,4
 644 71 644 71 608.5 35.5 c 128,-1,5
 573 0 573 0 522 0 c 2,6,-1
 174 0 l 2,7,8
 124 0 124 0 88.5 35.5 c 128,-1,9
 53 71 53 71 53 121 c 2,10,-1
 53 580 l 1,11,-1
 135 580 l 1,12,-1
 135 121 l 2,13,14
 135 105 135 105 146.5 93.5 c 128,-1,15
 158 82 158 82 174 82 c 2,16,-1
 522 82 l 2,17,18
 538 82 538 82 550 93.5 c 128,-1,19
 562 105 562 105 562 121 c 2,0,-1
EndSplineSet
EndChar

StartChar: uacute
Encoding: 250 250 224
Width: 695
Flags: MW
HStem: 0 82<140.5 522 174 522> 560 20G<53 135 135 135 562 644 644 644> 764 139<273 387 308 353>
VStem: 53 82<121 580> 562 82<121 580>
LayerCount: 2
Fore
SplineSet
562 580 m 1,0,-1
 644 580 l 1,1,-1
 644 121 l 2,2,3
 644 71 644 71 608.5 35.5 c 128,-1,4
 573 0 573 0 522 0 c 2,5,-1
 174 0 l 2,6,7
 124 0 124 0 88.5 35.5 c 128,-1,8
 53 71 53 71 53 121 c 2,9,-1
 53 580 l 1,10,-1
 135 580 l 1,11,-1
 135 121 l 2,12,13
 135 105 135 105 146.5 93.5 c 128,-1,14
 158 82 158 82 174 82 c 2,15,-1
 522 82 l 2,16,17
 538 82 538 82 550 93.5 c 128,-1,18
 562 105 562 105 562 121 c 2,19,-1
 562 580 l 1,0,-1
273 764 m 1,20,-1
 308 903 l 1,21,-1
 387 903 l 1,22,-1
 353 764 l 1,23,-1
 273 764 l 1,20,-1
EndSplineSet
EndChar

StartChar: ucircumflex
Encoding: 251 251 225
Width: 695
Flags: MW
HStem: 0 82<140.5 522 174 522> 560 20G<53 135 135 135 562 644 644 644> 764 21G<225 266 225 225 384 384 384 426> 861 20G<296 355 355 355>
VStem: 53 82<121 580> 562 82<121 580>
LayerCount: 2
Fore
SplineSet
562 580 m 1,0,-1
 644 580 l 1,1,-1
 644 121 l 2,2,3
 644 71 644 71 608.5 35.5 c 128,-1,4
 573 0 573 0 522 0 c 2,5,-1
 174 0 l 2,6,7
 124 0 124 0 88.5 35.5 c 128,-1,8
 53 71 53 71 53 121 c 2,9,-1
 53 580 l 1,10,-1
 135 580 l 1,11,-1
 135 121 l 2,12,13
 135 105 135 105 146.5 93.5 c 128,-1,14
 158 82 158 82 174 82 c 2,15,-1
 522 82 l 2,16,17
 538 82 538 82 550 93.5 c 128,-1,18
 562 105 562 105 562 121 c 2,19,-1
 562 580 l 1,0,-1
266 764 m 1,20,-1
 225 764 l 1,21,-1
 296 881 l 1,22,-1
 355 881 l 1,23,-1
 426 764 l 1,24,-1
 384 764 l 1,25,-1
 326 849 l 1,26,-1
 266 764 l 1,20,-1
EndSplineSet
EndChar

StartChar: udieresis
Encoding: 252 252 226
Width: 695
Flags: MW
HStem: 0 82<140.5 522 174 522> 560 20G<53 135 135 135 562 644 644 644> 763 82<208 291 208 291 388 470>
VStem: 53 82<121 580> 208 83<763 845 763 845> 388 82<763 845 763 845> 562 82<121 580>
LayerCount: 2
Fore
SplineSet
562 580 m 1,0,-1
 644 580 l 1,1,-1
 644 121 l 2,2,3
 644 71 644 71 608.5 35.5 c 128,-1,4
 573 0 573 0 522 0 c 2,5,-1
 174 0 l 2,6,7
 124 0 124 0 88.5 35.5 c 128,-1,8
 53 71 53 71 53 121 c 2,9,-1
 53 580 l 1,10,-1
 135 580 l 1,11,-1
 135 121 l 2,12,13
 135 105 135 105 146.5 93.5 c 128,-1,14
 158 82 158 82 174 82 c 2,15,-1
 522 82 l 2,16,17
 538 82 538 82 550 93.5 c 128,-1,18
 562 105 562 105 562 121 c 2,19,-1
 562 580 l 1,0,-1
470 845 m 1,20,-1
 470 763 l 1,21,-1
 388 763 l 1,22,-1
 388 845 l 1,23,-1
 470 845 l 1,20,-1
291 845 m 1,24,-1
 291 763 l 1,25,-1
 208 763 l 1,26,-1
 208 845 l 1,27,-1
 291 845 l 1,24,-1
EndSplineSet
EndChar

StartChar: ugrave
Encoding: 249 249 227
Width: 695
Flags: MW
HStem: 0 82<140.5 522 174 522> 560 20G<53 135 135 135 562 644 644 644> 764 139<308 354 273 388 308 308>
VStem: 53 82<121 580> 562 82<121 580>
LayerCount: 2
Fore
SplineSet
562 580 m 1,0,-1
 644 580 l 1,1,-1
 644 121 l 2,2,3
 644 71 644 71 608.5 35.5 c 128,-1,4
 573 0 573 0 522 0 c 2,5,-1
 174 0 l 2,6,7
 124 0 124 0 88.5 35.5 c 128,-1,8
 53 71 53 71 53 121 c 2,9,-1
 53 580 l 1,10,-1
 135 580 l 1,11,-1
 135 121 l 2,12,13
 135 105 135 105 146.5 93.5 c 128,-1,14
 158 82 158 82 174 82 c 2,15,-1
 522 82 l 2,16,17
 538 82 538 82 550 93.5 c 128,-1,18
 562 105 562 105 562 121 c 2,19,-1
 562 580 l 1,0,-1
354 903 m 1,20,-1
 388 764 l 1,21,-1
 308 764 l 1,22,-1
 273 903 l 1,23,-1
 354 903 l 1,20,-1
EndSplineSet
EndChar

StartChar: underscore
Encoding: 95 95 228
Width: 828
Flags: MW
HStem: -82 82<54 782 54 782>
LayerCount: 2
Fore
SplineSet
782 0 m 1,0,-1
 782 -82 l 1,1,-1
 54 -82 l 1,2,-1
 54 0 l 1,3,-1
 782 0 l 1,0,-1
EndSplineSet
EndChar

StartChar: v
Encoding: 118 118 230
Width: 790
Flags: MW
HStem: 0 21G<341 436 341 341> 560 20G<21 117 117 117 661 757 757 757>
LayerCount: 2
Fore
SplineSet
661 580 m 1,0,-1
 757 580 l 1,1,-1
 436 0 l 1,2,-1
 341 0 l 1,3,-1
 21 580 l 1,4,-1
 117 580 l 1,5,-1
 389 80 l 1,6,-1
 661 580 l 1,0,-1
EndSplineSet
Substitution2: "'smcp' Lowercase to Small Capitals in Latin lookup 3 subtable" v.sc
Substitution2: "'salt' Stylistic Alternatives in Latin lookup 2 subtable" v.alt
AlternateSubs2: "'aalt' Access All Alternates in Latin lookup 1 subtable" v.sc v.alt
EndChar

StartChar: v.alt
Encoding: 65580 -1 231
Width: 697
Flags: MW
HStem: 0 82<140.5 562 174 562 174 644> 560 20G<53 135 135 135 562 644 644 644>
VStem: 53 82<121 580> 562 82<82 580 0 580>
LayerCount: 2
Fore
SplineSet
562 580 m 1,0,-1
 644 580 l 1,1,-1
 644 0 l 1,2,-1
 174 0 l 2,3,4
 124 0 124 0 88.5 35.5 c 128,-1,5
 53 71 53 71 53 121 c 2,6,-1
 53 580 l 1,7,-1
 135 580 l 1,8,-1
 135 121 l 2,9,10
 135 105 135 105 146.5 93.5 c 128,-1,11
 158 82 158 82 174 82 c 2,12,-1
 562 82 l 1,13,-1
 562 580 l 1,0,-1
EndSplineSet
EndChar

StartChar: v.sc
Encoding: 65581 -1 232
Width: 801
Flags: MW
HStem: 0 21G<348 442 348 348> 560 20G<21 118 118 118 672 768 768 768>
LayerCount: 2
Fore
SplineSet
395 81 m 1,0,-1
 672 580 l 1,1,-1
 768 580 l 1,2,-1
 442 0 l 1,3,-1
 348 0 l 1,4,-1
 21 580 l 1,5,-1
 118 580 l 1,6,-1
 395 81 l 1,0,-1
EndSplineSet
EndChar

StartChar: w
Encoding: 119 119 233
Width: 1071
Flags: MW
HStem: 0 21G<263 335 263 263 756 827 756 756> 560 20G<35 123 123 123 486 594 594 594 957 1046 1046 1046>
LayerCount: 2
Fore
SplineSet
957 580 m 1,0,-1
 1046 580 l 1,1,-1
 827 0 l 1,2,-1
 756 0 l 1,3,-1
 540 479 l 1,4,-1
 335 0 l 1,5,-1
 263 0 l 1,6,-1
 35 580 l 1,7,-1
 123 580 l 1,8,-1
 299 148 l 1,9,-1
 486 580 l 1,10,-1
 594 580 l 1,11,-1
 793 149 l 1,12,-1
 957 580 l 1,0,-1
EndSplineSet
Substitution2: "'smcp' Lowercase to Small Capitals in Latin lookup 3 subtable" w.sc
Substitution2: "'salt' Stylistic Alternatives in Latin lookup 2 subtable" w.alt
AlternateSubs2: "'aalt' Access All Alternates in Latin lookup 1 subtable" w.sc w.alt
EndChar

StartChar: w.alt
Encoding: 65582 -1 234
Width: 978
Flags: MW
HStem: 0 82<141 416 175 416 416 426.5 576 819 819 829.5> 560 20G<53 135 135 135 455 537 537 537 858 940 940 940>
VStem: 53 82<121 580> 455 82<121 580> 858 82<121 580 0 580>
LayerCount: 2
Fore
SplineSet
175 0 m 2,0,1
 124 0 124 0 88.5 35.5 c 128,-1,2
 53 71 53 71 53 121 c 2,3,-1
 53 580 l 1,4,-1
 135 580 l 1,5,-1
 135 121 l 2,6,7
 135 105 135 105 147 93.5 c 128,-1,8
 159 82 159 82 175 82 c 2,9,-1
 416 82 l 2,10,11
 432 82 432 82 443.5 93.5 c 128,-1,12
 455 105 455 105 455 121 c 2,13,-1
 455 580 l 1,14,-1
 537 580 l 1,15,-1
 537 121 l 2,16,17
 537 105 537 105 548.5 93.5 c 128,-1,18
 560 82 560 82 576 82 c 2,19,-1
 819 82 l 2,20,21
 835 82 835 82 846.5 93.5 c 128,-1,22
 858 105 858 105 858 121 c 2,23,-1
 858 580 l 1,24,-1
 940 580 l 1,25,-1
 940 0 l 1,26,-1
 175 0 l 2,0,1
EndSplineSet
EndChar

StartChar: w.sc
Encoding: 65583 -1 235
Width: 1078
Flags: MW
HStem: 0 21G<266 338 266 266 759 831 759 759> 560 20G<34 122 122 122 493 593 593 593 964 1052 1052 1052>
LayerCount: 2
Fore
SplineSet
964 580 m 1,0,-1
 1052 580 l 1,1,-1
 831 0 l 1,2,-1
 759 0 l 1,3,-1
 543 467 l 1,4,-1
 338 0 l 1,5,-1
 266 0 l 1,6,-1
 34 580 l 1,7,-1
 122 580 l 1,8,-1
 301 149 l 1,9,-1
 493 580 l 1,10,-1
 593 580 l 1,11,-1
 796 150 l 1,12,-1
 964 580 l 1,0,-1
EndSplineSet
EndChar

StartChar: x
Encoding: 120 120 236
Width: 692
Flags: MW
HStem: 0 21G<46 154 46 46 531 639 531 531> 560 20G<46 154 154 154 531 638 638 638>
LayerCount: 2
Fore
SplineSet
531 580 m 1,0,-1
 638 580 l 1,1,-1
 396 295 l 1,2,-1
 639 0 l 1,3,-1
 531 0 l 1,4,-1
 342 232 l 1,5,-1
 154 0 l 1,6,-1
 46 0 l 1,7,-1
 288 295 l 1,8,-1
 46 580 l 1,9,-1
 154 580 l 1,10,-1
 342 360 l 1,11,-1
 531 580 l 1,0,-1
EndSplineSet
Substitution2: "'smcp' Lowercase to Small Capitals in Latin lookup 3 subtable" x.sc
Substitution2: "'salt' Stylistic Alternatives in Latin lookup 2 subtable" x.alt
AlternateSubs2: "'aalt' Access All Alternates in Latin lookup 1 subtable" x.sc x.alt
EndChar

StartChar: x.alt
Encoding: 65584 -1 237
Width: 698
Flags: MW
HStem: 0 21G<54 136 54 54 563 645 563 563> 249 82<165 524 176 524> 560 20G<54 136 136 136 563 645 645 645>
VStem: 54 82<0 210 0 223 370 580> 563 82<0 210 0 220.5 370 580>
LayerCount: 2
Fore
SplineSet
645 580 m 1,0,-1
 645 370 l 2,1,2
 645 330 645 330 616 290 c 1,3,4
 645 250 645 250 645 210 c 2,5,-1
 645 0 l 1,6,-1
 563 0 l 1,7,-1
 563 210 l 2,8,9
 563 226 563 226 551.5 237.5 c 128,-1,10
 540 249 540 249 524 249 c 2,11,-1
 176 249 l 2,12,13
 160 249 160 249 148 237.5 c 128,-1,14
 136 226 136 226 136 210 c 2,15,-1
 136 0 l 1,16,-1
 54 0 l 1,17,-1
 54 210 l 2,18,19
 54 250 54 250 83 290 c 1,20,21
 54 330 54 330 54 370 c 2,22,-1
 54 580 l 1,23,-1
 136 580 l 1,24,-1
 136 370 l 2,25,26
 136 354 136 354 148 342.5 c 128,-1,27
 160 331 160 331 176 331 c 2,28,-1
 524 331 l 2,29,30
 540 331 540 331 551.5 342.5 c 128,-1,31
 563 354 563 354 563 370 c 2,32,-1
 563 580 l 1,33,-1
 645 580 l 1,0,-1
EndSplineSet
EndChar

StartChar: x.sc
Encoding: 65585 -1 238
Width: 692
Flags: MW
HStem: 0 21G<46 154 46 46 531 639 531 531> 560 20G<46 154 154 154 530 638 638 638>
LayerCount: 2
Fore
SplineSet
530 580 m 1,0,-1
 638 580 l 1,1,-1
 396 296 l 1,2,-1
 639 0 l 1,3,-1
 531 0 l 1,4,-1
 342 233 l 1,5,-1
 154 0 l 1,6,-1
 46 0 l 1,7,-1
 288 296 l 1,8,-1
 46 580 l 1,9,-1
 154 580 l 1,10,-1
 342 361 l 1,11,-1
 530 580 l 1,0,-1
EndSplineSet
EndChar

StartChar: y
Encoding: 121 121 239
Width: 685
Flags: MW
HStem: -230 83<149 511 149 511> 0 82<129.5 511 163 511 511 521.5 163 550> 558 20G<42 124 124 124 550 632 632 632>
VStem: 42 82<121 578> 550 82<-108 0 0 0 121 578>
LayerCount: 2
Fore
SplineSet
632 -108 m 2,0,1
 632 -159 632 -159 597 -194.5 c 128,-1,2
 562 -230 562 -230 511 -230 c 2,3,-1
 149 -230 l 1,4,-1
 149 -147 l 1,5,-1
 511 -147 l 2,6,7
 527 -147 527 -147 538.5 -135.5 c 128,-1,8
 550 -124 550 -124 550 -108 c 2,9,-1
 550 0 l 1,10,-1
 163 0 l 2,11,12
 113 0 113 0 77.5 35.5 c 128,-1,13
 42 71 42 71 42 121 c 2,14,-1
 42 578 l 1,15,-1
 124 578 l 1,16,-1
 124 121 l 2,17,18
 124 105 124 105 135.5 93.5 c 128,-1,19
 147 82 147 82 163 82 c 2,20,-1
 511 82 l 2,21,22
 527 82 527 82 538.5 93.5 c 128,-1,23
 550 105 550 105 550 121 c 2,24,-1
 550 578 l 1,25,-1
 632 578 l 1,26,-1
 632 -108 l 2,0,1
EndSplineSet
Substitution2: "'smcp' Lowercase to Small Capitals in Latin lookup 3 subtable" y.sc
Substitution2: "'aalt' Access All Alternates in Latin lookup 0 subtable" y.sc
EndChar

StartChar: y.sc
Encoding: 65586 -1 240
Width: 688
Flags: MW
HStem: 0 21G<290 373 290 290> 560 20G<18 114 114 114 548 645 645 645>
VStem: 290 83<0 200 0 200>
LayerCount: 2
Fore
SplineSet
548 580 m 1,0,-1
 645 580 l 1,1,-1
 373 200 l 1,2,-1
 373 0 l 1,3,-1
 290 0 l 1,4,-1
 290 200 l 1,5,-1
 18 580 l 1,6,-1
 114 580 l 1,7,-1
 331 297 l 1,8,-1
 548 580 l 1,0,-1
EndSplineSet
EndChar

StartChar: yacute
Encoding: 253 253 241
Width: 688
Flags: MW
HStem: -230 83<149 511 149 511> 0 82<129.5 511 163 511 511 521.5 163 550> 558 20G<42 124 124 124 550 632 632 632> 764 139<270 384 305 350>
VStem: 42 82<121 578> 550 82<-108 0 0 0 121 578>
LayerCount: 2
Fore
SplineSet
632 -108 m 2,0,1
 632 -159 632 -159 597 -194.5 c 128,-1,2
 562 -230 562 -230 511 -230 c 2,3,-1
 149 -230 l 1,4,-1
 149 -147 l 1,5,-1
 511 -147 l 2,6,7
 527 -147 527 -147 538.5 -135.5 c 128,-1,8
 550 -124 550 -124 550 -108 c 2,9,-1
 550 0 l 1,10,-1
 163 0 l 2,11,12
 113 0 113 0 77.5 35.5 c 128,-1,13
 42 71 42 71 42 121 c 2,14,-1
 42 578 l 1,15,-1
 124 578 l 1,16,-1
 124 121 l 2,17,18
 124 105 124 105 135.5 93.5 c 128,-1,19
 147 82 147 82 163 82 c 2,20,-1
 511 82 l 2,21,22
 527 82 527 82 538.5 93.5 c 128,-1,23
 550 105 550 105 550 121 c 2,24,-1
 550 578 l 1,25,-1
 632 578 l 1,26,-1
 632 -108 l 2,0,1
270 764 m 1,27,-1
 305 903 l 1,28,-1
 384 903 l 1,29,-1
 350 764 l 1,30,-1
 270 764 l 1,27,-1
EndSplineSet
EndChar

StartChar: ydieresis
Encoding: 255 255 242
Width: 688
Flags: MW
HStem: -230 83<149 511 149 511> 0 82<129.5 511 163 511 511 521.5 163 550> 558 20G<42 124 124 124 550 632 632 632> 765 82<205 288 205 288 385 467>
VStem: 42 82<121 578> 205 83<765 847 765 847> 385 82<765 847 765 847> 550 82<-108 0 0 0 121 578>
LayerCount: 2
Fore
SplineSet
632 -108 m 2,0,1
 632 -159 632 -159 597 -194.5 c 128,-1,2
 562 -230 562 -230 511 -230 c 2,3,-1
 149 -230 l 1,4,-1
 149 -147 l 1,5,-1
 511 -147 l 2,6,7
 527 -147 527 -147 538.5 -135.5 c 128,-1,8
 550 -124 550 -124 550 -108 c 2,9,-1
 550 0 l 1,10,-1
 163 0 l 2,11,12
 113 0 113 0 77.5 35.5 c 128,-1,13
 42 71 42 71 42 121 c 2,14,-1
 42 578 l 1,15,-1
 124 578 l 1,16,-1
 124 121 l 2,17,18
 124 105 124 105 135.5 93.5 c 128,-1,19
 147 82 147 82 163 82 c 2,20,-1
 511 82 l 2,21,22
 527 82 527 82 538.5 93.5 c 128,-1,23
 550 105 550 105 550 121 c 2,24,-1
 550 578 l 1,25,-1
 632 578 l 1,26,-1
 632 -108 l 2,0,1
467 847 m 1,27,-1
 467 765 l 1,28,-1
 385 765 l 1,29,-1
 385 847 l 1,30,-1
 467 847 l 1,27,-1
288 847 m 1,31,-1
 288 765 l 1,32,-1
 205 765 l 1,33,-1
 205 847 l 1,34,-1
 288 847 l 1,31,-1
EndSplineSet
EndChar

StartChar: z
Encoding: 122 122 243
Width: 698
Flags: MW
HStem: 0 82<144 645 144 645> 498 82<54 645 54 555>
LayerCount: 2
Fore
SplineSet
54 498 m 1,0,-1
 54 580 l 1,1,-1
 645 580 l 1,2,-1
 645 468 l 1,3,-1
 144 82 l 1,4,-1
 645 82 l 1,5,-1
 645 0 l 1,6,-1
 54 0 l 1,7,-1
 54 112 l 1,8,-1
 555 498 l 1,9,-1
 54 498 l 1,0,-1
EndSplineSet
Substitution2: "'smcp' Lowercase to Small Capitals in Latin lookup 3 subtable" z.sc
Substitution2: "'salt' Stylistic Alternatives in Latin lookup 2 subtable" z.alt
AlternateSubs2: "'aalt' Access All Alternates in Latin lookup 1 subtable" z.sc z.alt
EndChar

StartChar: z.alt
Encoding: 65587 -1 244
Width: 692
Flags: MW
HStem: 0 82<138.5 642 172 642> 249 82<161.5 520 172 520> 498 82<51 520 51 520>
VStem: 51 82<121 210> 559 83<370 459>
CounterMasks: 1 e0
LayerCount: 2
Fore
SplineSet
172 249 m 2,0,1
 156 249 156 249 144.5 237.5 c 128,-1,2
 133 226 133 226 133 210 c 2,3,-1
 133 121 l 2,4,5
 133 105 133 105 144.5 93.5 c 128,-1,6
 156 82 156 82 172 82 c 2,7,-1
 642 82 l 1,8,-1
 642 0 l 1,9,-1
 172 0 l 2,10,11
 122 0 122 0 86.5 35.5 c 128,-1,12
 51 71 51 71 51 121 c 2,13,-1
 51 210 l 2,14,15
 51 260 51 260 86.5 295.5 c 128,-1,16
 122 331 122 331 172 331 c 2,17,-1
 520 331 l 2,18,19
 536 331 536 331 547.5 342.5 c 128,-1,20
 559 354 559 354 559 370 c 2,21,-1
 559 459 l 2,22,23
 559 475 559 475 547.5 486.5 c 128,-1,24
 536 498 536 498 520 498 c 2,25,-1
 51 498 l 1,26,-1
 51 580 l 1,27,-1
 520 580 l 2,28,29
 571 580 571 580 606.5 544.5 c 128,-1,30
 642 509 642 509 642 459 c 2,31,-1
 642 370 l 2,32,33
 642 320 642 320 606.5 284.5 c 128,-1,34
 571 249 571 249 520 249 c 2,35,-1
 172 249 l 2,0,1
EndSplineSet
EndChar

StartChar: z.sc
Encoding: 65588 -1 245
Width: 698
Flags: MW
HStem: 0 82<144 645 144 645> 498 82<54 645 54 555>
LayerCount: 2
Fore
SplineSet
54 498 m 1,0,-1
 54 580 l 1,1,-1
 645 580 l 1,2,-1
 645 468 l 1,3,-1
 144 82 l 1,4,-1
 645 82 l 1,5,-1
 645 0 l 1,6,-1
 54 0 l 1,7,-1
 54 112 l 1,8,-1
 555 498 l 1,9,-1
 54 498 l 1,0,-1
EndSplineSet
EndChar

StartChar: zcaron
Encoding: 382 382 246
Width: 698
Flags: MW
HStem: 0 82<144 645 144 645> 498 82<54 645 54 555> 766 21G<299 358 299 299> 863 20G<227 269 269 269 387 428 428 428>
LayerCount: 2
Fore
SplineSet
54 498 m 1,0,-1
 54 580 l 1,1,-1
 645 580 l 1,2,-1
 645 468 l 1,3,-1
 144 82 l 1,4,-1
 645 82 l 1,5,-1
 645 0 l 1,6,-1
 54 0 l 1,7,-1
 54 112 l 1,8,-1
 555 498 l 1,9,-1
 54 498 l 1,0,-1
227 883 m 1,10,-1
 269 883 l 1,11,-1
 329 798 l 1,12,-1
 387 883 l 1,13,-1
 428 883 l 1,14,-1
 358 766 l 1,15,-1
 299 766 l 1,16,-1
 227 883 l 1,10,-1
EndSplineSet
EndChar

StartChar: zero
Encoding: 48 48 247
Width: 834
Flags: MW
HStem: 0 82<149 178 178 663> 637 83<167.5 663 178 663 663 691>
VStem: 57 82<181 598 181 598 181 632> 702 82<121 538 538 538>
LayerCount: 2
Fore
SplineSet
178 720 m 2,0,-1
 663 720 l 2,1,2
 713 720 713 720 748.5 684.5 c 128,-1,3
 784 649 784 649 784 598 c 2,4,-1
 784 121 l 2,5,6
 784 71 784 71 748.5 35.5 c 128,-1,7
 713 0 713 0 663 0 c 2,8,-1
 178 0 l 2,9,10
 127 0 127 0 92 35.5 c 128,-1,11
 57 71 57 71 57 121 c 2,12,-1
 57 598 l 2,13,14
 57 649 57 649 92 684.5 c 128,-1,15
 127 720 127 720 178 720 c 2,0,-1
691 637 m 1,16,-1
 178 637 l 2,17,18
 162 637 162 637 150.5 625.5 c 128,-1,19
 139 614 139 614 139 598 c 2,20,-1
 139 181 l 1,21,-1
 691 637 l 1,16,-1
149 82 m 1,22,-1
 663 82 l 2,23,24
 679 82 679 82 690.5 93.5 c 128,-1,25
 702 105 702 105 702 121 c 2,26,-1
 702 538 l 1,27,-1
 149 82 l 1,22,-1
EndSplineSet
EndChar

StartChar: A
Encoding: 65 65 248
Width: 836
Flags: MW
HStem: 0 21G<58 139 58 58 697 778 697 697> 263 81<139 697 139 697> 639 81<167.5 658 178 658>
VStem: 58 81<0 263 344 600> 697 81<0 263 263 263 344 600 0 610.5>
LayerCount: 2
Fore
SplineSet
178 720 m 2,0,-1
 658 720 l 2,1,2
 708 720 708 720 743 685 c 128,-1,3
 778 650 778 650 778 600 c 2,4,-1
 778 0 l 1,5,-1
 697 0 l 1,6,-1
 697 263 l 1,7,-1
 139 263 l 1,8,-1
 139 0 l 1,9,-1
 58 0 l 1,10,-1
 58 600 l 2,11,12
 58 650 58 650 93 685 c 128,-1,13
 128 720 128 720 178 720 c 2,0,-1
139 344 m 1,14,-1
 697 344 l 1,15,-1
 697 600 l 2,16,17
 697 616 697 616 685.5 627.5 c 128,-1,18
 674 639 674 639 658 639 c 2,19,-1
 178 639 l 2,20,21
 162 639 162 639 150.5 627.5 c 128,-1,22
 139 616 139 616 139 600 c 2,23,-1
 139 344 l 1,14,-1
EndSplineSet
Substitution2: "'ss02' Style Set 2 in Latin lookup 5 subtable" A.alt2
Substitution2: "'ss01' Style Set 1 in Latin lookup 4 subtable" A.alt
AlternateSubs2: "'aalt' Access All Alternates in Latin lookup 1 subtable" A.alt A.alt2
EndChar
